<svg xmlns="http://www.w3.org/2000/svg" width="35.094" height="35.094" viewBox="0 0 35.094 35.094"><path d="M549.931,202.947a17.547,17.547,0,1,0,17.547,17.547A17.567,17.567,0,0,0,549.931,202.947Zm10.161,11.161a.494.494,0,0,1-.1.326,8.117,8.117,0,0,1-1.629,1.7c-.093.069-.249.143-.249.275,0,3.38-.863,6.756-3.327,9.2a12.383,12.383,0,0,1-12.021,2.811,11.491,11.491,0,0,1-2.325-.93c-.246-.134-.487-.273-.724-.429-.06-.048-.106-.093-.054-.125s.09-.028.277,0a8.2,8.2,0,0,0,3.478-.445,5.314,5.314,0,0,0,2.289-1.214c.009-.013.018-.013.027-.027-.152-.036-.3-.036-.456-.062a4.489,4.489,0,0,1-3.353-2.808c-.044-.112,0-.17.116-.148a4.816,4.816,0,0,0,1.6-.049,2.5,2.5,0,0,1-.541-.165,4.324,4.324,0,0,1-2.665-3.447,2.611,2.611,0,0,1-.027-.483c.009-.111.058-.147.157-.085a4.283,4.283,0,0,0,1.627.456c-.183-.143-.353-.3-.518-.456a4.275,4.275,0,0,1-.729-5.052c.081-.121.134-.121.233-.009a13.1,13.1,0,0,0,8.433,4.292c.089.013.1,0,.084-.1a4.529,4.529,0,0,1,.044-1.762,4.3,4.3,0,0,1,.833-1.669,4.466,4.466,0,0,1,1.4-1.14,4.357,4.357,0,0,1,1.729-.489,4.14,4.14,0,0,1,1.823.294,4.342,4.342,0,0,1,1.189.728,1.985,1.985,0,0,1,.215.219.163.163,0,0,0,.169.045,10.541,10.541,0,0,0,2.454-.939.116.116,0,0,1,.109-.009c.036.027.023.072,0,.107a3.8,3.8,0,0,1-.688,1.253c-.2.244-.687.846-1.02.9a8.391,8.391,0,0,0,2.066-.59c.084-.037.077-.054.077,0Z" transform="translate(-532.384 -202.947)" fill="#eeeeef"/></svg>