<svg xmlns="http://www.w3.org/2000/svg" width="78.198" height="78.198" viewBox="0 0 78.198 78.198">
  <g id="Group_144" data-name="Group 144" transform="translate(-336.088 -231.404)">
    <g id="Group_102" data-name="Group 102" transform="translate(336.088 231.404)">
      <path id="Path_197" data-name="Path 197" d="M414.286,270.5a39.1,39.1,0,1,1-39.1-39.1A39.1,39.1,0,0,1,414.286,270.5Z" transform="translate(-336.088 -231.404)" fill="#e72769"/>
    </g>
    <g id="Group_103" data-name="Group 103" transform="translate(347.348 244.301)" style="mix-blend-mode: multiply;isolation: isolate">
      <path id="Path_198" data-name="Path 198" d="M398.841,251.154c-.185-.2-.382-.383-.574-.574a18.62,18.62,0,0,0-25.631-1.588,18.677,18.677,0,0,0-19.459,30.853c.182.2.379.379.569.569s.389.391.584.585.378.378.568.566.384.386.578.577.379.382.572.573c.143.155,18.378,18.375,26.56,26.549a39.084,39.084,0,0,0,31.738-42.612C410.023,262.327,399,251.308,398.841,251.154Z" transform="translate(-347.631 -244.625)" fill="#b3b3b3"/>
    </g>
    <g id="Group_143" data-name="Group 143" transform="translate(347.348 244.301)">
      <g id="Group_116" data-name="Group 116" transform="translate(0 3.261)">
        <g id="Group_111" data-name="Group 111">
          <g id="Group_110" data-name="Group 110">
            <g id="Group_108" data-name="Group 108">
              <g id="Group_104" data-name="Group 104" transform="translate(0.438 0.435)">
                <path id="Path_199" data-name="Path 199" d="M348.085,266.25a18.267,18.267,0,1,1,17.829,18.7A18.268,18.268,0,0,1,348.085,266.25Z" transform="translate(-348.08 -248.414)" fill="#fff"/>
              </g>
              <g id="Group_106" data-name="Group 106">
                <g id="Group_105" data-name="Group 105">
                  <path id="Path_200" data-name="Path 200" d="M366.778,247.973a18.7,18.7,0,1,1-19.142,18.256A18.727,18.727,0,0,1,366.778,247.973Zm-.863,36.527a17.832,17.832,0,1,0-17.409-18.251A17.851,17.851,0,0,0,365.915,284.5Z" transform="translate(-347.631 -247.968)" fill="#5d5e61"/>
                </g>
              </g>
              <g id="Group_107" data-name="Group 107" transform="translate(2.176 2.178)">
                <path id="Path_201" data-name="Path 201" d="M349.866,266.335A16.526,16.526,0,1,1,366,283.25,16.535,16.535,0,0,1,349.866,266.335Z" transform="translate(-349.861 -250.2)" fill="#64b66e"/>
              </g>
            </g>
            <g id="Group_109" data-name="Group 109" transform="translate(10.803 5.903)">
              <path id="Path_202" data-name="Path 202" d="M374.22,271.64c-.046-4.174-3.411-5.607-6.342-6.667l.092-5.486a12.071,12.071,0,0,1,3.638,1.9l.479.334,1.7-3.217-.372-.262a11.873,11.873,0,0,0-5.387-2.259l.03-1.937-1.691-.029-.027,1.892c-3.626.158-6.4,2.681-6.365,5.852.04,3.859,3.468,5.3,6.158,6.3l-.1,6.127a10.9,10.9,0,0,1-4.758-2.954l-.448-.47-2.126,3.183.344.3a13.909,13.909,0,0,0,6.934,3.4l-.032,1.971,1.686.026.033-1.87C370.85,277.732,374.259,275.386,374.22,271.64Zm-10.395-9.807a2.607,2.607,0,0,1,2.457-2.525l-.085,5.022C364.946,263.767,363.833,263,363.825,261.834Zm3.9,12.528.093-5.661c1.447.6,2.537,1.344,2.562,3.094A2.557,2.557,0,0,1,367.724,274.362Z" transform="translate(-358.705 -254.019)" fill="#fff"/>
            </g>
          </g>
        </g>
        <g id="Group_113" data-name="Group 113" transform="translate(3.272 5.884)" style="mix-blend-mode: screen;isolation: isolate">
          <g id="Group_112" data-name="Group 112">
            <path id="Path_203" data-name="Path 203" d="M358.8,254s-.279.279-.721.794-1.059,1.251-1.728,2.167c-.331.462-.674.966-1.007,1.516-.366.529-.628,1.154-.977,1.75a20.955,20.955,0,0,0-.8,1.958q-.17.509-.339,1.025c-.1.348-.142.709-.217,1.062a11.6,11.6,0,0,0-.277,2.138c-.064.71.028,1.415.029,2.1.055.683.21,1.336.289,1.971a4.387,4.387,0,0,0,.209.908l.234.848a11.552,11.552,0,0,0,.457,1.488c.176.43.313.817.431,1.136.231.64.352,1.021.352,1.021s-.249-.3-.664-.848c-.206-.275-.46-.61-.736-1.008a7.7,7.7,0,0,1-.8-1.414,10.075,10.075,0,0,1-.777-1.778,17.171,17.171,0,0,1-.563-2.118q-.067-.572-.138-1.161a4.992,4.992,0,0,1-.058-1.2,13.127,13.127,0,0,1,.25-2.439c.095-.4.165-.809.283-1.2l.411-1.147a5.741,5.741,0,0,1,.492-1.089c.185-.346.355-.7.548-1.022a15.008,15.008,0,0,1,1.276-1.77,12.543,12.543,0,0,1,1.322-1.415,14.216,14.216,0,0,1,1.238-1.054c.39-.287.732-.53,1.03-.706A7.61,7.61,0,0,1,358.8,254Z" transform="translate(-350.985 -254)" fill="#9e9e9e"/>
          </g>
        </g>
        <g id="Group_115" data-name="Group 115" transform="translate(26.024 9.479)" style="mix-blend-mode: multiply;isolation: isolate">
          <g id="Group_114" data-name="Group 114">
            <path id="Path_204" data-name="Path 204" d="M374.308,279.568s.279-.279.721-.793,1.059-1.252,1.727-2.167c.33-.463.675-.967,1.007-1.517.367-.529.627-1.154.977-1.749a20.875,20.875,0,0,0,.8-1.959l.337-1.025c.1-.348.142-.709.218-1.062a11.6,11.6,0,0,0,.276-2.137c.065-.71-.028-1.415-.029-2.1-.054-.682-.209-1.335-.288-1.97a4.391,4.391,0,0,0-.209-.908c-.081-.293-.16-.577-.234-.848a11.555,11.555,0,0,0-.457-1.488c-.175-.43-.313-.816-.43-1.136-.231-.64-.352-1.021-.352-1.021s.248.3.663.848c.206.275.461.611.736,1.008a7.583,7.583,0,0,1,.8,1.414,10,10,0,0,1,.776,1.778,17.173,17.173,0,0,1,.564,2.118q.066.572.137,1.16a4.952,4.952,0,0,1,.059,1.2,13.136,13.136,0,0,1-.25,2.439c-.1.4-.164.808-.283,1.2q-.206.577-.411,1.148a5.794,5.794,0,0,1-.491,1.088c-.186.346-.356.7-.549,1.023a15.072,15.072,0,0,1-1.276,1.769,12.361,12.361,0,0,1-1.322,1.415,14.036,14.036,0,0,1-1.238,1.054c-.39.287-.731.53-1.03.706A7.565,7.565,0,0,1,374.308,279.568Z" transform="translate(-374.308 -257.685)" fill="#c7c7c7"/>
          </g>
        </g>
      </g>
      <g id="Group_129" data-name="Group 129" transform="translate(13.28 14.997)">
        <g id="Group_124" data-name="Group 124">
          <g id="Group_123" data-name="Group 123">
            <g id="Group_121" data-name="Group 121">
              <g id="Group_117" data-name="Group 117" transform="translate(0.438 0.434)">
                <path id="Path_205" data-name="Path 205" d="M361.7,278.281a18.267,18.267,0,1,1,17.829,18.7A18.27,18.27,0,0,1,361.7,278.281Z" transform="translate(-361.694 -260.444)" fill="#fff"/>
              </g>
              <g id="Group_119" data-name="Group 119">
                <g id="Group_118" data-name="Group 118">
                  <path id="Path_206" data-name="Path 206" d="M380.392,260A18.7,18.7,0,1,1,361.25,278.26,18.727,18.727,0,0,1,380.392,260Zm-.864,36.526a17.832,17.832,0,1,0-17.408-18.25A17.851,17.851,0,0,0,379.528,296.53Z" transform="translate(-361.245 -259.999)" fill="#5d5e61"/>
                </g>
              </g>
              <g id="Group_120" data-name="Group 120" transform="translate(2.176 2.178)">
                <path id="Path_207" data-name="Path 207" d="M363.48,278.367a16.526,16.526,0,1,1,16.134,16.914A16.536,16.536,0,0,1,363.48,278.367Z" transform="translate(-363.475 -262.231)" fill="#64b66e"/>
              </g>
            </g>
            <g id="Group_122" data-name="Group 122" transform="translate(10.803 5.902)">
              <path id="Path_208" data-name="Path 208" d="M387.835,283.671c-.046-4.175-3.412-5.608-6.342-6.668l.091-5.487a12.1,12.1,0,0,1,3.638,1.9l.478.335,1.7-3.218-.373-.261a11.855,11.855,0,0,0-5.386-2.259l.03-1.938-1.69-.029-.027,1.893c-3.626.158-6.4,2.681-6.366,5.852.04,3.858,3.469,5.3,6.159,6.3l-.1,6.128a10.917,10.917,0,0,1-4.76-2.955l-.447-.47-2.126,3.182.343.3a13.924,13.924,0,0,0,6.935,3.4l-.033,1.97,1.687.027.033-1.87C384.464,289.762,387.874,287.417,387.835,283.671Zm-10.4-9.807a2.6,2.6,0,0,1,2.457-2.524l-.086,5.021C378.56,275.8,377.446,275.026,377.439,273.865Zm3.9,12.528.093-5.661c1.447.6,2.538,1.344,2.561,3.094A2.555,2.555,0,0,1,381.338,286.393Z" transform="translate(-372.319 -266.049)" fill="#fff"/>
            </g>
          </g>
        </g>
        <g id="Group_126" data-name="Group 126" transform="translate(3.272 5.885)" style="mix-blend-mode: screen;isolation: isolate">
          <g id="Group_125" data-name="Group 125">
            <path id="Path_209" data-name="Path 209" d="M372.416,266.031s-.279.279-.721.794-1.059,1.251-1.728,2.167c-.33.462-.674.967-1.007,1.516-.366.529-.627,1.155-.978,1.75a21.063,21.063,0,0,0-.8,1.958q-.167.511-.337,1.026c-.1.347-.142.708-.218,1.061a11.694,11.694,0,0,0-.277,2.138c-.064.71.029,1.415.03,2.1.053.683.209,1.336.288,1.971a4.311,4.311,0,0,0,.209.908l.234.848a11.26,11.26,0,0,0,.457,1.488c.175.43.312.817.43,1.136.231.64.352,1.021.352,1.021s-.249-.3-.663-.847c-.206-.275-.461-.611-.736-1.008a7.681,7.681,0,0,1-.8-1.414,10.119,10.119,0,0,1-.776-1.778,17.129,17.129,0,0,1-.563-2.118q-.069-.572-.137-1.16a4.9,4.9,0,0,1-.059-1.2,13.144,13.144,0,0,1,.25-2.44c.1-.4.164-.808.283-1.2q.206-.578.411-1.148a5.761,5.761,0,0,1,.492-1.088c.185-.347.355-.7.548-1.023a15.088,15.088,0,0,1,1.276-1.77,12.713,12.713,0,0,1,1.322-1.415,14.38,14.38,0,0,1,1.238-1.054c.39-.287.732-.53,1.031-.706A7.731,7.731,0,0,1,372.416,266.031Z" transform="translate(-364.599 -266.031)" fill="#9e9e9e"/>
          </g>
        </g>
        <g id="Group_128" data-name="Group 128" transform="translate(26.023 9.479)" style="mix-blend-mode: multiply;isolation: isolate">
          <g id="Group_127" data-name="Group 127">
            <path id="Path_210" data-name="Path 210" d="M387.921,291.6s.279-.279.721-.793,1.059-1.251,1.728-2.167c.33-.462.674-.967,1.007-1.517.366-.528.626-1.154.977-1.749a21.059,21.059,0,0,0,.8-1.958l.339-1.026c.095-.347.141-.709.217-1.062a11.612,11.612,0,0,0,.277-2.137c.064-.711-.029-1.415-.03-2.1-.053-.683-.208-1.336-.288-1.971a4.455,4.455,0,0,0-.208-.909c-.081-.292-.159-.576-.235-.848a11.393,11.393,0,0,0-.456-1.487c-.176-.431-.313-.817-.431-1.136-.231-.641-.352-1.021-.352-1.021s.249.3.664.847c.2.275.46.611.736,1.008a7.7,7.7,0,0,1,.8,1.414,10.053,10.053,0,0,1,.776,1.779,17.113,17.113,0,0,1,.563,2.117q.069.572.138,1.161a4.9,4.9,0,0,1,.058,1.2,13.056,13.056,0,0,1-.25,2.439c-.095.4-.164.809-.282,1.2l-.412,1.148a5.729,5.729,0,0,1-.491,1.088c-.185.346-.355.7-.548,1.023a15.076,15.076,0,0,1-1.276,1.769,12.369,12.369,0,0,1-1.322,1.415,14.4,14.4,0,0,1-1.238,1.055c-.39.286-.732.53-1.031.705A7.561,7.561,0,0,1,387.921,291.6Z" transform="translate(-387.921 -269.716)" fill="#c7c7c7"/>
          </g>
        </g>
      </g>
      <g id="Group_142" data-name="Group 142" transform="translate(18.268)">
        <g id="Group_137" data-name="Group 137">
          <g id="Group_136" data-name="Group 136">
            <g id="Group_134" data-name="Group 134">
              <g id="Group_130" data-name="Group 130" transform="translate(0.438 0.435)">
                <path id="Path_211" data-name="Path 211" d="M366.812,262.908a18.267,18.267,0,1,1,17.829,18.7A18.27,18.27,0,0,1,366.812,262.908Z" transform="translate(-366.807 -245.071)" fill="#fff"/>
              </g>
              <g id="Group_132" data-name="Group 132">
                <g id="Group_131" data-name="Group 131">
                  <path id="Path_212" data-name="Path 212" d="M385.5,244.63a18.7,18.7,0,1,1-19.141,18.257A18.727,18.727,0,0,1,385.5,244.63Zm-.862,36.527a17.832,17.832,0,1,0-17.409-18.251A17.85,17.85,0,0,0,384.642,281.156Z" transform="translate(-366.358 -244.625)" fill="#5d5e61"/>
                </g>
              </g>
              <g id="Group_133" data-name="Group 133" transform="translate(2.176 2.178)">
                <path id="Path_213" data-name="Path 213" d="M368.593,262.993a16.526,16.526,0,1,1,16.134,16.915A16.536,16.536,0,0,1,368.593,262.993Z" transform="translate(-368.588 -246.857)" fill="#64b66e"/>
              </g>
            </g>
            <g id="Group_135" data-name="Group 135" transform="translate(10.804 5.903)">
              <path id="Path_214" data-name="Path 214" d="M392.948,268.3c-.047-4.174-3.412-5.607-6.342-6.668l.092-5.486a12.078,12.078,0,0,1,3.636,1.9l.479.335,1.7-3.218-.372-.262a11.878,11.878,0,0,0-5.388-2.259l.03-1.937-1.69-.029-.026,1.893c-3.627.159-6.4,2.681-6.367,5.852.04,3.859,3.469,5.3,6.159,6.3l-.1,6.128A10.911,10.911,0,0,1,380,267.892l-.448-.47-2.124,3.183.342.3a13.914,13.914,0,0,0,6.935,3.4l-.033,1.97,1.687.026.033-1.869C389.577,274.389,392.987,272.043,392.948,268.3Zm-10.4-9.806a2.606,2.606,0,0,1,2.457-2.525l-.086,5.021C383.673,260.424,382.559,259.653,382.552,258.492Zm3.9,12.527.093-5.66c1.447.6,2.538,1.343,2.561,3.093A2.555,2.555,0,0,1,386.451,271.019Z" transform="translate(-377.433 -250.676)" fill="#fff"/>
            </g>
          </g>
        </g>
        <g id="Group_139" data-name="Group 139" transform="translate(3.272 5.885)" style="mix-blend-mode: screen;isolation: isolate">
          <g id="Group_138" data-name="Group 138">
            <path id="Path_215" data-name="Path 215" d="M377.53,250.657s-.28.279-.722.794-1.059,1.251-1.727,2.166c-.331.463-.675.968-1.007,1.517-.366.529-.628,1.155-.977,1.749a20.814,20.814,0,0,0-.8,1.959c-.111.34-.224.682-.337,1.026-.1.347-.143.708-.219,1.062a11.586,11.586,0,0,0-.276,2.137c-.065.71.028,1.415.029,2.1.054.683.209,1.336.288,1.971a4.311,4.311,0,0,0,.209.908l.234.848a11.413,11.413,0,0,0,.457,1.488c.175.43.312.817.43,1.136.232.64.353,1.021.353,1.021s-.249-.3-.664-.847c-.206-.276-.461-.611-.737-1.008a7.685,7.685,0,0,1-.8-1.414,10.048,10.048,0,0,1-.776-1.778,16.785,16.785,0,0,1-.563-2.118q-.069-.572-.138-1.16a4.957,4.957,0,0,1-.058-1.2,13.146,13.146,0,0,1,.25-2.44c.1-.4.164-.808.283-1.2q.206-.578.411-1.148a5.766,5.766,0,0,1,.492-1.088c.186-.347.355-.7.549-1.023a15.085,15.085,0,0,1,1.275-1.77,12.625,12.625,0,0,1,1.323-1.415,14.385,14.385,0,0,1,1.237-1.054c.391-.287.732-.53,1.031-.706A7.521,7.521,0,0,1,377.53,250.657Z" transform="translate(-369.712 -250.657)" fill="#9e9e9e"/>
          </g>
        </g>
        <g id="Group_141" data-name="Group 141" transform="translate(26.023 9.48)" style="mix-blend-mode: multiply;isolation: isolate">
          <g id="Group_140" data-name="Group 140">
            <path id="Path_216" data-name="Path 216" d="M393.034,276.226s.279-.279.721-.793,1.059-1.251,1.728-2.167c.331-.462.674-.967,1.007-1.516.366-.529.627-1.155.977-1.75a20.779,20.779,0,0,0,.8-1.958q.17-.511.338-1.026c.1-.348.143-.709.218-1.062a11.521,11.521,0,0,0,.276-2.137c.064-.711-.028-1.416-.029-2.1-.054-.683-.209-1.336-.288-1.971a4.4,4.4,0,0,0-.209-.909l-.234-.848a11.339,11.339,0,0,0-.457-1.487c-.176-.431-.312-.817-.431-1.136-.231-.641-.352-1.021-.352-1.021s.249.3.664.847c.206.275.46.611.736,1.008a7.705,7.705,0,0,1,.8,1.414,10.059,10.059,0,0,1,.777,1.779,16.9,16.9,0,0,1,.563,2.118q.069.571.138,1.16a4.941,4.941,0,0,1,.057,1.2,12.955,12.955,0,0,1-.25,2.439c-.094.4-.164.81-.282,1.2q-.206.578-.412,1.148a5.792,5.792,0,0,1-.49,1.088c-.186.346-.356.7-.549,1.023a15.082,15.082,0,0,1-1.276,1.769,12.466,12.466,0,0,1-1.322,1.416A14.542,14.542,0,0,1,395.014,275c-.39.287-.732.529-1.03.705A7.6,7.6,0,0,1,393.034,276.226Z" transform="translate(-393.034 -254.343)" fill="#c7c7c7"/>
          </g>
        </g>
      </g>
    </g>
  </g>
</svg>
