<svg xmlns="http://www.w3.org/2000/svg" width="1920" height="1124.086" viewBox="0 0 1920 1124.086"><g transform="translate(27.734 6.919)" opacity="0.85"><path d="M433.042,491.273a74.962,74.962,0,0,0,17.16-2.135c45.47-11.15,72.119-51,77.812-95.6,3.479-26.412-6.722-48.949-20.56-69.351-27.044-40.092-58.043-76.705-86.353-115.848-27.361-37.878-60.257-70.142-91.651-103.75-20.639-22.379-39.776-46.1-58.675-69.984C261.523,22.977,252.9,10.166,239.223,3.207c-4.349-2.135-8.145-3.4-11.783-3.4-5.219,0-9.885,2.53-14.946,8.066C200.554,20.6,192.8,36.341,184.423,51.682c-15.1,27.519-31,54.484-48.237,80.5-25.542,37.957-57.885,66.5-99.954,81.371A123.142,123.142,0,0,0,5,229.606c-13.048,9.489-18.662,24.672-14.55,40.725,7.354,29.18,36.3,52.9,64.369,52.9,17.239-.553,33.134-6.563,48.712-13.6,21.825-9.727,43.73-19.453,67.374-22.537a288.258,288.258,0,0,1,39.381-2.689c30.129,0,59.783,5.219,88.171,18.583,36.771,17.476,57.489,49.582,67.69,90.148,4.745,19.137,8.619,38.353,14.392,57.41C389.154,479.491,410.347,491.273,433.042,491.273Zm-63.815-98.926c-11.466-45.311-34.161-75.519-69.351-92.2-27.2-12.731-56.54-18.9-89.595-18.9a308.572,308.572,0,0,0-39.855,2.689c-24.2,3.163-46.656,13.206-68.244,22.853-14.55,6.563-30.445,12.731-47.446,13.285-26.728,0-54.247-22.616-61.285-50.53-3.717-14.55,1.344-28.547,13.443-37.325a116.034,116.034,0,0,1,30.366-15.657c40.646-14.392,73.937-41.437,101.535-82.636C154.61,110.2,169.951,84.5,187.19,53.263l3.321-6.089c7.275-13.522,14.234-26.333,24.277-37.166,4.428-4.824,8.3-6.959,12.652-6.959,2.926,0,6.326.949,10.359,2.926,11.071,5.773,18.979,15.815,26.57,25.621l3.954,4.982c18.109,22.853,37.562,47.13,58.834,70.221,6.405,6.8,12.731,13.522,19.216,20.244,24.672,26.175,50.451,53.061,72.2,83.11,11.7,16.29,24.2,32.422,36.217,48.079,16.843,21.825,34.32,44.362,50.056,67.69,16.685,24.751,22.853,45.39,20.086,67.216-6.01,47.367-35.031,83.031-75.44,92.916a69.917,69.917,0,0,1-16.448,2.056c-14.234,0-39.46-4.982-49.5-38.432-3.717-12.573-6.722-25.463-9.727-37.878C372.39,405.316,370.808,398.832,369.227,392.347Z" transform="translate(1315.857 525.149)" fill="#eeeeef"/><path d="M398.832,85.1a542.03,542.03,0,0,1-50.372,53.931C326.95,158.882,302.911,175.251,282.9,197c-1.107,1.186-1.661,2.768-2.689,3.954a176.1,176.1,0,0,0-24.672,35.9l-1.424,2.926c-.633,1.186-1.661,2.135-2.293,3.4-9.806,20.086-18.425,40.962-30.6,59.466l-1.186,1.9a153.883,153.883,0,0,1-27.993,31.868l-.237.158a114.876,114.876,0,0,1-36.613,20.876c-24.751,8.778-50.214,14.471-74.728,24.04-22.853,8.936-44.6,20.244-61.68,38.906-2.847,3.084-4.112,6.88-6.642,10.122A135.735,135.735,0,0,0-1.063,450.836a157.482,157.482,0,0,0-7.592,16.132c-.474,1.265-1.265,2.293-1.661,3.558-1.977,5.614-2.372,10.517-3.8,15.815-1.5,6.168-4.112,11.7-5.061,18.188-.158,1.028.237,1.977.079,3a124.746,124.746,0,0,0,.633,37.246l.079.158c.712,4.033,2.609,7.75,3.716,11.7a122.17,122.17,0,0,0,9.015,23.17c1.107,2.056,1.344,4.428,2.531,6.484,3.558,5.852,7.987,10.834,12.02,16.132l.158.237.712.949c3.717,4.824,6.959,10.043,10.913,14.708,20.8,24.593,38.511,51.321,55.592,78.84,3.242,5.3,7.038,10.359,10.438,15.657,4.349,7.2,8.461,13.443,12.573,18.979,1.819,2.451,3.163,5.14,5.061,7.512,13.6,18.109,33.213,28.31,53.852,28.31a66.921,66.921,0,0,0,20.56-3.321c1.582-.554,2.689-1.74,4.191-2.293,12.652-4.033,24.909-10.675,37.166-20.4,3.242-2.451,6.247-5.14,9.252-7.829,1.74-1.582,3.559-2.847,5.3-4.507,9.015-8.619,16.211-18.583,22.774-29.021.633-1.107,1.661-1.74,2.372-2.847,10.834-18.583,20.639-37.878,31.473-56.54,4.191-7.117,8.224-14.55,12.89-21.114a282.419,282.419,0,0,1,22.7-27.44c2.53-2.768,4.9-5.694,7.512-8.382,9.568-9.806,19.611-19.295,29.97-28.389,23.012-20.244,46.023-40.409,68.481-61.364,18.188-16.844,36.059-34.24,57.094-46.972,20.007-11.941,40.883-18.267,62.946-18.267a110.672,110.672,0,0,1,15.183,1.423,77.054,77.054,0,0,1,10.992,2.451,58.781,58.781,0,0,1,16.053,7.117,61.42,61.42,0,0,1,7.2,5.456,82.149,82.149,0,0,1,10.992,11.783,139.824,139.824,0,0,1,11.941,18.9c1.74,3.242,3.8,6.405,5.377,9.647,13.443,28.863,26.1,58.122,43.493,84.534A195.025,195.025,0,0,0,697.982,599.9l.712.633c6.88,6.959,14.076,13.6,22.458,18.979,16.211,10.6,32.58,15.974,49.107,15.974,14,0,28.072-3.875,42.227-11.783,21.746-12.336,42.939-25.621,64.448-38.194,8.936-5.219,18.425-8.857,27.914-11.941,1.9-.633,3.638-1.581,5.535-2.056a125.476,125.476,0,0,1,32.975-4.824h.316q27.044,0,49.5,10.043c1.582.712,3.321,1.028,4.824,1.74,6.089,3.163,11.466,7.67,16.844,12.257,1.819,1.582,3.954,2.768,5.614,4.508,4.824,4.824,8.857,11.15,12.969,17.555,1.582,2.61,3.717,4.745,5.061,7.592,1.186,2.214,1.661,4.666,2.61,6.959a112.737,112.737,0,0,1,6.089,19.769,158.571,158.571,0,0,1,2.452,16.29l.316,3.954a206.745,206.745,0,0,1,.079,22.142c-.079,2.926-.237,5.773-.474,8.857a144.242,144.242,0,0,1-3.954,22.379c-.475,1.819-.791,3.717-1.344,5.377a70.506,70.506,0,0,1-5.219,12.415,77.669,77.669,0,0,1-6.405,10.517,80.6,80.6,0,0,1-5.061,6.326,76.717,76.717,0,0,1-10.6,8.857,77.93,77.93,0,0,1-26.175,12.02c-19.453,4.824-39.381,5.456-59.466,6.8-18.821,1.028-37.72,1.028-56.54,2.926-1.9.158-3.717,0-5.535.316-.712.079-1.186.554-1.9.633-4.745.712-9.647.554-14.392,1.819-6.484,1.819-11.071,6.168-16.923,8.778-6.089,2.689-12.178,5.377-17.476,9.015-7.2,5.061-13.364,11.545-19.295,18.425-2.689,3.084-6.405,4.824-8.778,8.382l-1.107,1.74h6.089c4.666-6.8,8.936-14.155,14.788-19.374,1.9-1.74,4.112-2.926,6.168-4.507a108.736,108.736,0,0,1,33.212-17.239,150.146,150.146,0,0,1,20.007-4.586c12.257-1.9,24.593-.791,36.85-1.582,19.374-1.5,38.827-2.135,58.2-4.033l2.689-.4c7.275-.791,14.629-1.028,21.825-2.609,13.68-3.084,25.146-9.885,35.11-18.583,1.423-1.265,3.084-2.293,4.428-3.638,8.382-8.62,14.55-19.453,18.5-31.868.237-.554.633-.791.791-1.344.554-1.819.633-3.954,1.028-5.773.949-4.033,2.531-7.512,3.005-11.783.316-2.609.316-5.3.553-7.908.237-2.451.316-5.061.474-7.592a223.431,223.431,0,0,0,.079-23.011c-.079-1.344.079-2.531,0-3.875-.158-1.423-.474-2.372-.633-3.717-.316-3.558-.158-7.038-.791-10.6-.316-2.056-1.265-3.638-1.74-5.615a101.612,101.612,0,0,0-6.089-19.611c-.949-2.372-1.661-4.9-2.768-7.117l-.4-1.265c-1.423-2.53-3.4-4.349-4.9-6.721-14-22.7-35.189-39.064-62.55-44.679a135.6,135.6,0,0,0-27.914-2.926,134.015,134.015,0,0,0-35.822,5.3c-1.581.4-3.084,1.186-4.666,1.661-7.829,2.451-15.578,4.824-23.17,8.619-19.453,9.727-37.562,22.063-56.066,33.371a219.716,219.716,0,0,1-26.886,13.6,71.839,71.839,0,0,1-28.468,5.931c-15.5,0-30.445-5.061-45.074-13.918-20.086-11.941-35.031-29.417-48-49.265-17.792-27.282-30.682-57.568-44.916-86.985-1.186-2.53-3.163-4.507-4.428-6.959-2.768-5.219-5.535-10.992-8.382-15.183-1.107-1.661-2.531-2.372-3.8-3.954-1.661-2.214-2.61-4.9-4.428-7.038-2.135-2.53-4.982-3.321-7.354-5.377a64.257,64.257,0,0,0-25.226-13.68c-1.107-.316-1.977-1.107-3.084-1.344-2.056-.4-4.033-.316-6.01-.554-3.242-.474-6.168-1.819-9.489-1.977-2.61-.158-5.061-.237-7.591-.237-35.348,0-65.555,15.42-92.284,39.539-39.539,35.585-79.394,70.932-118.853,106.754-3,2.768-5.219,6.168-8.066,9.015-2.768,2.847-5.3,6.01-7.987,8.936-8.619,9.41-17.081,18.82-24.356,29.338l-.87,1.028c-1.74,2.53-2.926,5.3-4.586,7.908-6.722,10.359-13.68,20.481-19.295,31.789a422.181,422.181,0,0,1-23.644,41.674A152.916,152.916,0,0,1,227,731.719c-2.768,2.53-5.615,5.061-8.461,7.354A137.5,137.5,0,0,1,181.211,759.4a89.564,89.564,0,0,1-23.249,4.191h-2.056c-19.3,0-34.636-9.885-47.367-24.751a219.109,219.109,0,0,1-21.351-31.156A858.921,858.921,0,0,0,11.51,600.608,127.27,127.27,0,0,1-2.645,578.783a114.879,114.879,0,0,1-8.54-21.746c-1.344-4.27-3.321-8.145-4.112-12.652A120.964,120.964,0,0,1-15.93,506.9c.712-5.377,2.609-10.675,3.875-16.053a157.99,157.99,0,0,1,6.405-22.774A144.947,144.947,0,0,1,2.97,450.124a139.12,139.12,0,0,1,11.387-17.318c3.875-4.982,7.592-10.2,12.178-14.55,1.9-1.819,4.033-3.084,6.089-4.824a164.64,164.64,0,0,1,47.921-27.993c24.2-9.173,49.186-15.183,73.463-23.407,14.313-4.982,26.412-12.494,37.483-21.351l1.977-1.5a153.757,153.757,0,0,0,29.575-33.292l.079-.079.158-.237c3.321-5.061,6.722-9.885,9.726-15.341,8.541-15.815,15.657-32.5,23.644-48.633a188.923,188.923,0,0,1,26.728-39.776,248.9,248.9,0,0,1,31.71-29.5c25.621-20.718,50.372-42.544,72.119-67.69,3.479-3.954,6.168-8.619,9.568-12.731,1.423-1.74,3.005-3,4.507-4.824,13.206-15.974,25.226-33.371,36.929-50.372,2.531-3.717,5.614-7.038,8.145-10.834C458.219,7.686,468.341.569,480.281.569a43.156,43.156,0,0,1,13.68,2.689c8.382,3,15.578,7.275,22.853,11.466A119.069,119.069,0,0,1,542.278,34.73a96.217,96.217,0,0,1,7.987,8.066,184.212,184.212,0,0,1,22.774,34.082c14.787,28.389,28.389,57.252,39.143,87.776A305.459,305.459,0,0,1,623.1,204.43c.237,1.186.4,2.451.633,3.558a322.376,322.376,0,0,1,5.14,39.222c1.423,25.147,1.582,50.372,2.847,75.519.158,3.8,1.265,7.433,1.661,11.229.475,4.824.791,9.964,1.5,14.55.316,2.135,1.028,3.638,1.423,5.615.633,2.926.474,6.01,1.344,8.857.633,2.135,1.74,3.717,2.53,5.694l.949,2.135a58.663,58.663,0,0,0,8.857,14.708l.633.712c9.173,10.517,21.351,17.239,36.217,19.532a223.827,223.827,0,0,0,33.845,2.847c24.672,0,48.791-5.219,71.486-19.137,4.112-2.61,7.2-6.247,11.071-9.173a146.117,146.117,0,0,0,15.1-12.415A181.041,181.041,0,0,0,833.6,351.04c2.768-3.479,5.456-7.275,8.145-11.15,3.242-4.745,7.2-8.857,10.2-13.918,1.344-2.293,1.9-4.824,3.084-7.117,1.028-1.819,2.214-3.242,3.242-5.061a241.611,241.611,0,0,0,16.211-39.222c1.9-5.614,3.242-11.466,4.745-17.16a373.406,373.406,0,0,0,9.331-48.87c.079-.87.4-1.582.474-2.372q1.186-13.878,2.609-27.756c.554-7.354,1.977-13.443,3.005-20.007a168.838,168.838,0,0,1,5.931-26.333c.791-2.61,1.819-5.061,2.768-7.591a121.188,121.188,0,0,1,9.568-20.165,75.77,75.77,0,0,1,6.01-7.829,60.681,60.681,0,0,1,15.974-15.1,64.052,64.052,0,0,1,9.173-4.982c3.875-1.819,7.591-3.954,11.783-4.824a32.686,32.686,0,0,1,7.117-.791c4.745,0,8.778,1.9,12.573,4.033.87.554,2.135.554,2.926,1.186a32.517,32.517,0,0,1,10.122,13.918c6.563,15.974,9.094,32.975,11.941,49.9.791,4.824,2.056,9.568,3,14.313l.237,1.5.237.791a344.644,344.644,0,0,0,17.081,60.257c1.107,2.768,1.977,5.615,3.163,8.3,1.74,4.112,2.609,8.461,4.665,12.494a328.2,328.2,0,0,0,25.305,40.725c.4.474.633,1.186,1.028,1.74,1.107,1.423,2.451,2.61,3.559,4.033,4.191,5.456,8.066,11.229,12.731,16.369,3.242,3.479,6.88,6.484,10.2,9.885,12.573,13.048,25.542,25.542,38.432,37.483l2.847,2.61c3.875,3.558,7.512,7.433,11.387,11.071l.87.949c20.956,19.928,39.855,42.069,57.964,65.16,22.379,28.863,45.469,57.489,71.328,82.952,12.257,12.1,25.226,23.644,38.115,35.11v-5.14c-21.825-19.216-43.255-38.985-62.471-61.285-17.634-20.4-34.161-41.674-51.163-62.787-3.084-3.875-6.8-7.038-9.964-10.834-14.708-17.713-28.547-33.292-42.385-46.26v-.079c-1.265-1.186-2.293-2.609-3.479-3.8-7.829-7.275-15.578-14.629-23.407-21.9-7.2-6.8-14.155-13.759-21.114-20.8a332.989,332.989,0,0,1-28.942-32.5c-.87-1.107-1.74-2.056-2.531-3.163a264.853,264.853,0,0,1-30.366-53.931c-1.344-3.163-2.372-6.484-3.559-9.727a304.21,304.21,0,0,1-16.369-58.043l-.158-.712c-2.451-13.759-4.824-27.6-7.908-41.2-.4-2.056-1.107-3.954-1.661-6.01-1.5-5.852-2.53-11.783-4.745-17.4-5.852-14.946-15.974-23.17-29.18-23.17a36.291,36.291,0,0,0-10.834,1.582c-3.4,1.028-5.773,3.4-8.936,4.824-2.689,1.186-5.219,1.582-8.145,3.321-1.028.554-1.423,1.74-2.452,2.372A74.682,74.682,0,0,0,915.84,95.383c-2.056,2.768-4.428,5.061-6.168,7.987-1.028,1.819-2.689,2.847-3.717,4.824-2.135,4.349-3.084,9.015-4.824,13.443-.791,2.056-2.135,4.112-2.847,6.168-.633,1.819-.791,3.717-1.344,5.456a191.625,191.625,0,0,0-5.219,22.142c-1.107,6.247-2.056,12.415-2.768,18.662-.158,1.74-.633,3.4-.712,5.061-.791,10.438-1.819,20.718-3.084,31-1.581,16.29-4.982,31.947-9.094,47.288-1.5,5.615-3,11.229-4.824,16.844a268.961,268.961,0,0,1-18.979,43.176c-3.4,6.01-7.038,11.783-10.755,17.4-3.242,4.824-6.642,9.331-10.122,13.68a168.508,168.508,0,0,1-13.838,15.974c-4.27,4.27-9.094,7.671-13.76,11.308-13.443,10.517-28.231,19.295-46.1,24.119a151.34,151.34,0,0,1-39.381,5.219,160.324,160.324,0,0,1-33.924-3.717,57.723,57.723,0,0,1-22.063-9.647,45.941,45.941,0,0,1-7.117-5.852,56.609,56.609,0,0,1-12.89-21.114,94.63,94.63,0,0,1-2.926-11.545c-.87-4.112-1.265-7.908-1.819-11.941a458.608,458.608,0,0,1-3.8-61.443,359.606,359.606,0,0,0-6.722-70.7c-.4-1.977-.553-3.875-.949-5.852a371.9,371.9,0,0,0-27.6-82.636c-7.2-15.1-14.55-30.128-22.379-44.916l-.237-.474-.474-.633c-5.061-9.41-10.122-18.741-16.29-27.44-2.214-3.163-5.3-4.9-7.75-7.75a117.39,117.39,0,0,0-9.41-9.41A127.273,127.273,0,0,0,518,11.64c-1.423-.791-2.531-2.293-4.033-3.084a142.88,142.88,0,0,0-18.5-8.145c-1.186-.474-2.135-1.344-3.4-1.74a40.725,40.725,0,0,0-12.178-1.977c-11.783,0-21.9,6.247-30.761,18.82C432.6,39,417.02,63.2,398.832,85.1Z" transform="translate(589.579 282.094)" fill="#eeeeef"/><path d="M85.33,12.836C73.943,4.929,64.137,1.212,55.122,1.212c-13.759,0-25.7,8.857-38.985,24.909-11.545,14-18.979,31-23.486,49.028C-11.382,91.518-5.214,105.99,8.7,113.976c16.843,9.885,35.189,13.839,53.614,17.081a656.249,656.249,0,0,0,71.012,8.54c.791.079,1.74.079,2.53.079a77.587,77.587,0,0,0,15.42-1.9c10.359-1.74,16.527-11.545,14.392-22.458-2.61-13.68-8.936-25.542-16.211-36.771A232.952,232.952,0,0,0,85.33,12.836Zm74.886,115.928a14.491,14.491,0,0,1-9.41,5.931,79.325,79.325,0,0,1-14.946,1.819l-2.293-.079a658.324,658.324,0,0,1-70.616-8.461c-17.476-3.084-35.98-6.88-52.666-16.685C-2.525,103.855-7.9,90.649-4.265,75.94.559,56.724,8.308,40.593,18.588,28.1,32.348,11.492,43.34,4.375,55.122,4.375c8.3,0,17.634,3.558,28.468,11.071A230.334,230.334,0,0,1,146.773,80.21c8.7,13.206,13.522,24.277,15.815,35.743A16.614,16.614,0,0,1,160.216,128.764Z" transform="translate(1496.716 634.848)" fill="#eeeeef"/><path d="M13.875,132.788c3.084,19.137,5.219,38.194,5.3,57.568,0,35.9-.554,71.881,1.74,107.783,1.582,25.147,0,49.977,1.423,74.886.87,16.764,1.423,34,7.433,49.977,6.642,17.476,18.188,26.1,30.761,26.1,6.247,0,12.731-2.135,19.137-6.484A62.264,62.264,0,0,0,99.832,418.89c8.461-16.527,10.992-34.478,11.941-52.745.474-11.387,0-22.7,0-39.46-1.028-26.333.87-57.806,10.438-88.25,11.308-35.585,30.049-66.583,52.428-95.13,10.6-13.443,21.114-26.728,31.71-40.013A65.292,65.292,0,0,0,215.285,87.4C221.849,71.74,219.793,62.8,203.5,52.525c-5.535-3.4-12.178-4.982-18.5-6.168-34.161-7.671-66.9-19.769-99.4-32.9C61.875,3.813,38.073-5.281,12.214-5.281a41.43,41.43,0,0,0-4.428.158c-11.7.474-18.5,7.75-19.058,20.086-.712,17,5.061,32.422,8.778,48.316C3.041,86.528,10.158,109.223,13.875,132.788ZM7.944-2.039h4.27c24.356,0,46.181,7.908,72.2,18.425,29.18,11.783,63.974,24.988,99.875,33.054,5.773,1.028,12.336,2.61,17.476,5.773,14.55,9.094,16.843,15.974,10.6,30.919a63.557,63.557,0,0,1-8.54,15.262l-2.926,3.8c-9.568,12.02-19.216,23.881-28.784,36.138-25.226,32.185-42.544,63.578-52.9,96.237-8.382,26.333-11.941,56.3-10.517,89.12,0,5.694,0,10.755.079,15.578.079,9.094.158,16.369-.237,23.723-.791,15.816-2.689,34.241-11.466,51.479-4.9,9.568-11.387,17.239-19.295,22.537a30.455,30.455,0,0,1-17.239,5.931c-11.782,0-21.984-8.7-27.835-23.961-5.456-14.55-6.247-30.287-7.117-45.707l-.158-3.4c-.633-11.862-.633-23.96-.553-35.743,0-12.811.079-26.1-.791-39.222-1.9-30.049-1.9-60.652-1.74-90.385v-17.16c-.079-17.318-1.819-35.743-5.377-58.043C14.428,116.419,10.475,100.92,6.442,85.9,4.386,78.146,2.409,70.4.669,62.567c-.87-3.717-1.977-7.512-2.926-11.308C-5.5,39.081-8.583,27.615-8.109,15.121-7.792,7.53-4.708-1.485,7.944-2.039Z" transform="translate(1280.645 127.891)" fill="#eeeeef"/><path d="M-3.788,10.478c2.372,3.875,5.535,7.433,8.3,11.15,3.321,4.27,6.01,9.015,9.726,12.969a43.168,43.168,0,0,0,7.433,6.326,18.17,18.17,0,0,0,9.252,3c4.824,0,8.382-3.479,10.992-8.857L42,34.992c.633-1.344,1.581-2.135,2.056-3.8.474-1.74.316-3.638.633-5.377h0l.4-1.9c.237-1.028,0-2.056.158-3.084.712-4.9,1.819-9.647,1.661-14.788-.079-4.349,0-8.7,0-12.969H43.421a182.934,182.934,0,0,1-1.107,25.463c-.237,2.056-.316,4.191-.633,6.168C40.5,30.485,39.546,36.732,33.3,38.946a11.109,11.109,0,0,1-3.717.633c-5.219,0-9.252-3.8-12.811-7.591a153.618,153.618,0,0,1-12.336-15.5c-1.5-2.056-3.321-4.033-4.666-6.168A142.345,142.345,0,0,1-9.245-6.919h-3.479l.791,1.661A155.561,155.561,0,0,0-3.788,10.478Z" transform="translate(1171.942 0)" fill="#eeeeef"/><path d="M.757,34.122C6.925,52.31,12.7,70.656,16.81,89.556c4.191,19.453,8.382,39.064,15.5,57.806,1.107,2.847,3.4,4.824,4.666,7.591,2.926,6.01,6.8,11.545,10.517,17,2.768,3.954,4.349,8.857,7.592,12.415,1.661,1.819,3.4,3.479,5.061,5.3h0l.474.474c8.936,9.41,18.03,18.741,26.965,28.152l1.186,1.265c8.54,8.778,14.155,19.295,20.323,29.5,3.638,6.168,7.908,11.862,10.675,18.662,4.507,10.6,6.959,22.221,9.015,34,1.423,6.722,3.558,12.811,4.428,20.086.4,4.349,1.265,8.619,1.74,13.048v.237c1.9,20.639,3.717,42.069,7.591,62.788,3.638,19.216,6.484,39.064,9.094,59.15,4.112,23.8,5.3,48,6.959,72.039.949,12.257,2.214,24.514,4.033,36.692.554,3.558,1.582,7.117,2.372,10.834,1.186,5.615,1.9,11.308,3.638,16.843,3.638,11.229,10.359,20.323,18.346,27.756.633.633,1.186,1.344,1.9,1.977,11.229,9.648,25.147,15.657,40.092,15.657a63.253,63.253,0,0,0,10.122-.87c4.191-.712,7.671-2.451,11.545-3.717,2.056-.633,4.191-1.107,6.247-1.9,20.086-7.908,35.427-22.221,47.763-40.8L306,589.4c2.768-4.27,5.615-8.382,8.145-12.969,3.242-6.168,4.666-12.811,7.117-19.216,1.107-2.847,2.689-4.824,3.717-7.75.554-1.661.554-3.4,1.028-5.14a195.757,195.757,0,0,0,5.852-27.2c.87-5.852,1.819-11.387,2.293-17.081.237-2.847.949-5.615,1.186-8.54.474-9.964.87-20.007,1.265-30.049.316-9.252,1.423-18.9,2.293-28.626.791-8.778,1.265-17.555,3-26.333,6.722-34,20.876-62.392,42.623-85.562l1.186-1.186a170.084,170.084,0,0,1,23.565-20.639c14.076-10.28,28.547-20.007,42.306-30.919,1.107-.87,1.5-2.135,2.609-3.084,9.489-8.145,17.081-17.081,22.379-26.57,1.423-2.53,2.451-5.3,3.638-7.908a116.444,116.444,0,0,0,9.41-34.478c.079-.87.554-1.423.633-2.293,0-.87-.158-1.661-.158-2.53a161.363,161.363,0,0,0-1.344-35.98c-.237-1.423.079-2.847-.158-4.27-.158-.87-.791-1.344-1.028-2.135L487,145.78c-1.265-5.535-4.428-9.727-7.354-14a46.978,46.978,0,0,0-18.5-16.132c-1.5-.712-2.768-2.135-4.27-2.689-1.265-.474-1.977-1.661-3.242-2.056-4.112-1.344-8.54-1.107-12.732-1.819-1.5-.237-3.084-.949-4.586-1.107-1.977-.316-3.479-.158-5.377-.316-4.428-.4-8.54-1.819-13.048-1.9-2.768-.158-5.535-.158-8.3-.158-8.54,0-17,.237-25.463.237-8.619,0-17.081-.316-25.621-1.028-1.186-.158-2.293-.316-3.479-.474a150.986,150.986,0,0,1-37.641-9.41l-1.9-.712A203.293,203.293,0,0,1,279.11,74.926a247.622,247.622,0,0,1-32.026-24.593c-1.423-1.344-2.768-2.847-4.191-4.27-9.331-8.936-18.109-18.5-25.463-29.733A161.05,161.05,0,0,1,207.386-1.3c-.87-1.819-1.74-3.717-2.53-5.614h-3.638l.475.87c.633,1.582,1.344,3.242,2.135,4.824,5.456,11.7,11.624,23.012,20.086,32.738,4.586,5.14,9.489,9.647,14.234,14.392,1.661,1.661,3.242,3.4,5.061,5.061,21.351,20.165,45.232,35.9,72.119,46.418,1.5.554,3,1.028,4.428,1.582,5.773,2.135,11.308,4.586,17.4,6.247,5.773,1.5,11.7,1.5,17.555,2.214l1.5.4,2.135.079c4.112.4,8.224,1.5,12.494,1.582,2.451.079,4.824.158,7.354.158,9.015,0,17.951-.316,26.965-.316a248.82,248.82,0,0,1,25.542,1.423c3.4.4,6.8.87,9.806,1.423a79.812,79.812,0,0,1,15.262,3.8c2.293.87,3.8,2.53,5.773,3.638,4.824,2.689,9.648,5.219,13.522,10.2,1.107,1.423,1.582,3.242,2.53,4.745,2.768,4.428,5.377,8.936,6.643,14.55A154.515,154.515,0,0,1,487.4,177.49c0,1.74-.079,3.559-.158,5.3-.079,6.089-1.265,12.02-2.135,17.951a107.6,107.6,0,0,1-5.931,22.063,105.583,105.583,0,0,1-7.512,16.764c-3.638,5.773-8.54,10.913-13.522,15.974-4.587,4.824-8.224,10.122-14.076,14.313-15.815,10.913-31.789,21.43-46.656,33.845-5.219,4.349-9.568,9.252-14.155,14l-.949.949c-23.565,25.068-38.669,55.512-44.758,91.73-.791,4.349-.554,8.778-1.028,13.127-1.5,12.178-2.451,24.356-2.926,36.455-.158,3.163-.712,6.326-.791,9.489-.237,10.043-.949,20.086-1.819,30.049-.633,7.275-1.819,13.759-2.926,20.323-1.423,8.619-2.847,17.239-5.535,25.7-.949,3-2.214,5.694-3.321,8.62-3.954,10.834-8.382,21.272-14.155,30.682l-2.451,3.8c-7.275,11.071-15.816,21.114-26.57,29.417a87.437,87.437,0,0,1-20.876,11.782c-1.186.4-2.372.633-3.558,1.028a65.5,65.5,0,0,1-21.43,3.954,70.516,70.516,0,0,1-15.025-1.661,52.822,52.822,0,0,1-24.83-12.969c-.712-.633-1.265-1.344-1.9-1.9a69.724,69.724,0,0,1-15.262-23.644c-2.056-5.061-3.084-10.359-4.349-15.578-.949-4.428-2.135-8.857-2.847-13.285-1.028-6.722-1.819-13.364-2.214-20.165-1.819-29.259-4.9-58.359-8.778-87.381l-.158-1.661c-3.084-18.82-6.247-39.3-9.252-60.1-4.191-23.091-6.01-46.656-8.066-70.3a204.866,204.866,0,0,0-15.1-61.364c-.87-1.9-1.661-3.717-2.53-5.535-5.456-11.466-11.783-22.616-20.244-32.817-2.61-3.084-5.615-5.852-8.3-8.778l-.316-.4c-3.8-4.033-7.67-7.987-11.545-12.02-5.773-5.773-11.387-11.783-17-17.713-5.14-5.615-8.778-12.02-12.89-18.109-3.558-5.14-7.2-10.28-9.806-15.974a149.369,149.369,0,0,1-8.778-23.328c-3.242-10.755-6.326-21.43-8.7-32.264C19.34,85.6,16.573,73.345,13.251,61.246c-1.5-5.377-3.717-10.438-5.377-15.736C3.288,31.2-1.694,17.2-6.676,3.44-7.941.04-8.969-3.519-10.235-6.919h-3.4c3.4,9.647,6.88,19.216,10.28,28.863C-1.932,25.977-.666,30.089.757,34.122Z" transform="translate(1100.814 0)" fill="#eeeeef"/><path d="M-6.225,93.993a131.729,131.729,0,0,0,4.349,40.171c7.117,25.937,14.708,33.213,39.618,38.748a75.164,75.164,0,0,0,16.132,1.74c14.313,0,28.389-3.717,42.227-8.066,19.374-6.01,37.957-14.788,52.112-30.287C180,101.98,186.566,50.342,146.553,19.107A91.459,91.459,0,0,0,112.391,2.579c-19.058-4.9-38.273-8.54-57.885-8.54A147.01,147.01,0,0,0,36-4.854C19.792-2.64,9.433,5.189,3.976,21.8A205.946,205.946,0,0,0-4.643,67.66C-5.434,76.833-7.411,86.006-6.225,93.993Zm3.875-18.03c.316-2.61.633-5.377.791-8.066C-.057,50.817,2.79,36.108,7.06,22.823,11.884,7.8,20.978.365,36.4-1.77A151.6,151.6,0,0,1,54.507-2.8c21.272,0,41.674,4.507,57.173,8.461a90.281,90.281,0,0,1,33.054,15.895c15.578,12.336,24.672,28.705,26.254,47.288,1.819,22.379-7.354,46.181-25.068,65.318-11.941,13.127-28.072,22.379-50.689,29.338-15.262,4.824-28.152,7.908-41.357,7.908a69.86,69.86,0,0,1-15.42-1.582C14.573,164.451,7.93,158.046,1.209,133.373A125.07,125.07,0,0,1-2.983,94.151C-3.852,88.22-3.141,82.289-2.35,75.963Z" transform="translate(1650.504 74.798)" fill="#eeeeef"/><path d="M209.47,11.765c-12.89-4.745-25.7-9.647-39.3-11.783a273.477,273.477,0,0,0-38.274-2.768c-25.226,0-49.819,5.535-73.779,14.867-3.4,1.265-6.88,1.819-10.28,3.242-.791.316-1.344.949-2.135,1.265-2.214,1.028-4.586,1.344-6.8,2.53-3.954,1.977-6.88,5.14-10.28,7.75-2.372,1.74-4.745,3.321-6.88,5.14a79.971,79.971,0,0,0-9.252,10.755,78.549,78.549,0,0,0-8.066,12.1A75.168,75.168,0,0,0,.785,63.956,87.987,87.987,0,0,0-3.96,79.614,109.426,109.426,0,0,0-5.621,97.406c0,2.372-.633,4.27-.554,6.722,0,.791.237,1.5.316,2.372.079,1.819-.4,3.638-.237,5.535.237,2.372,1.5,4.428,1.9,6.722a113.76,113.76,0,0,0,6.8,25.068c.633,1.423.949,2.847,1.582,4.27a111.156,111.156,0,0,0,18.5,27.756c1.186,1.423,2.53,2.451,3.8,3.8,3.4,3.479,6.484,7.117,10.438,10.359,1.423,1.107,3.163,1.423,4.586,2.451C54,202.184,67.368,210.329,81.6,214.362a191.462,191.462,0,0,0,52.982,7.275c6.88,0,13.839-.87,20.718-1.5h.712l.237-.079a304.707,304.707,0,0,0,43.255-7.2c3.321-.87,6.643-1.661,9.964-2.531v-3.954c-17.713,4.349-35.506,9.094-53.694,10.6-7.512.554-14.946.949-22.379.949-1.344,0-2.689-.158-4.033-.237a188.961,188.961,0,0,1-42.544-5.773,133.69,133.69,0,0,1-17.476-6.563A94.391,94.391,0,0,1,58.906,200.6a124.275,124.275,0,0,1-11.229-7.354c-6.484-4.666-12.89-9.489-18.583-15.42-.791-.791-1.74-1.582-2.53-2.451a124.29,124.29,0,0,1-19.058-27.6c-.554-1.186-.87-2.53-1.344-3.8C2.6,136.154.626,127.693-.876,119.073a126.449,126.449,0,0,1-1.9-13.522c-.079-2.451.237-4.824.237-7.2a107.468,107.468,0,0,1,1.582-18.5A88.991,88.991,0,0,1,3.71,64.905a78.953,78.953,0,0,1,3.4-8.857c1.977-3.954,4.824-7.2,7.354-10.755C17.391,41.577,20,37.624,23.717,34.3c1.5-1.423,3.4-2.451,4.982-3.717A92.144,92.144,0,0,1,47.2,19.357c3.321-1.5,6.88-2.451,10.2-3.8C81.918,6.23,106.748.694,132.211.694a205.3,205.3,0,0,1,52.507,6.959l2.61.791c7.512,2.214,14.787,4.982,22.142,7.591Z" transform="translate(1682.796 322.772)" fill="#eeeeef"/><path d="M408.8,145.562c-8.3-21.351-17.16-42.386-26.965-62.946-.87-1.9-1.5-3.875-2.451-5.773-2.926-5.931-5.852-10.359-8.777-15.42-2.452-4.349-4.191-9.015-6.959-13.206-1.186-1.9-3.084-3.084-4.349-4.9A170.905,170.905,0,0,0,346.01,26.629c-1.74-1.819-3.717-2.451-5.456-4.033-2.293-2.135-3.717-5.061-6.247-6.959-3.4-2.53-6.959-3.8-10.517-5.535l-1.9-1.028c-8.145-3.638-16.448-6.089-25.226-6.089a86.337,86.337,0,0,0-18.9,2.293c-3,.712-5.694,2.056-8.54,3l-1.5.474a117.188,117.188,0,0,0-29.575,15.025c-32.5,22.774-64.923,46.26-94.577,73.3-22.063,20.086-40.962,43.334-54.484,71.407-7.908,16.448-15.1,33.213-22.537,49.74A352.524,352.524,0,0,1,48.283,253.9a329.06,329.06,0,0,1-34,48.712c-3.717,4.666-6.643,9.489-10.6,14.076-6.88,8.224-13.839,16.369-20.007,25.226-.474.633-.474,1.344-.87,1.977h4.27a181.711,181.711,0,0,1,15.736-20.8c1.344-1.581,2.372-3.321,3.638-4.9,2.214-2.53,4.507-5.773,6.563-8.145A381.058,381.058,0,0,0,39.9,274.221c2.768-4.112,5.219-8.461,7.829-12.652,2.293-3.875,5.061-7.671,7.117-11.545,4.824-8.778,8.7-18.03,12.811-27.2,2.372-5.14,5.615-9.647,7.75-14.946,10.675-26.886,22.616-53.456,40.8-75.993a318.012,318.012,0,0,1,53.852-52.349C195.288,60,220.039,40.151,246.688,22.754a107.185,107.185,0,0,1,21.9-10.992l.791-.237A85.008,85.008,0,0,1,292.949,6.7c1.028-.079,2.056-.079,3.084-.079a59.162,59.162,0,0,1,25.226,5.615l1.344.633a73.822,73.822,0,0,1,21.114,15.895c9.489,9.964,17,21.588,23.881,33.529,3.8,6.643,7.433,13.285,10.755,20.165,14,28.784,24.751,59.15,36.692,88.962,1.819,4.587,4.191,8.778,6.089,13.364,2.847,6.88,6.168,13.522,9.331,20.4,3.717,8.145,6.88,16.685,11.15,24.514,8.382,15.183,11.941,31.156,8.857,48.712-3.8,21.588-4.982,43.572-5.535,65.476h3.559c.474-21.746,1.74-43.493,5.456-65a73.418,73.418,0,0,0-8.461-49.582C431.018,202.576,419.868,174.029,408.8,145.562Z" transform="translate(823.014 773.279)" fill="#eeeeef"/><path d="M24.653,5.055C7.414,12.172-3.973,26.248-5.4,46.729c-1.265,18.82,6.959,33.608,20.56,45.232C30.346,105.009,48.139,109.6,67.117,109.6h2.056c25.621-.316,48.474-7.038,68.007-26.412,12.652-12.494,14.155-31.789,1.344-47.288C117.964,11.539,88.626-2.062,59.6-2.062A88.018,88.018,0,0,0,24.653,5.055ZM134.966,80.969C117.727,98.05,96.85,106.116,69.173,106.511H67.117c-20.323,0-36.692-5.535-49.977-16.843C2.985,77.411-3.341,63.414-2.234,46.887-.969,28.541,8.758,15.1,25.839,7.981A84.485,84.485,0,0,1,59.6,1.18c28.468,0,57.173,13.759,76.468,36.771C147.46,51.711,146.985,68.95,134.966,80.969Z" transform="translate(1734.052 379.222)" fill="#eeeeef"/><path d="M197.994,13.981a34.815,34.815,0,0,0-24.751-9.964,44.542,44.542,0,0,0-4.586.237C131.174,8.445,98.515,25.131,69.415,50.277c-4.349,3.717-7.591,8.224-11.387,12.336-.949,1.028-2.214,1.582-3.163,2.689-.712.791-1.107,1.9-1.819,2.689A171.334,171.334,0,0,0,32.09,99.068l-.475.712c-10.992,21.43-18.741,44.837-24.988,69.193-7.987,31.315-15.816,62.708-22.616,94.339h3.638Q.934,201.75,18.331,141.533a218.5,218.5,0,0,1,15.5-39.064l.712-1.265A183.554,183.554,0,0,1,55.26,70.284c1.74-1.977,3.558-3.875,5.377-5.773,7.354-7.987,15.816-14.55,24.514-20.876A194.654,194.654,0,0,1,106.5,29.559c6.563-3.558,13.127-7.354,20.007-10.2,12.969-5.3,26.175-9.489,40.013-11.229a43.209,43.209,0,0,1,4.428-.316c18.979,0,34.32,13.522,37.562,34.557,2.768,17.239.633,34.4-.791,51.479-.633,7.987-.791,15.895-1.028,23.8-.158,2.53-.4,5.061-.554,7.591,0,.791.079,1.423.079,2.214-.079,7.512.316,14.946.633,22.379.158,2.926.158,5.931.4,8.778a327.114,327.114,0,0,0,13.76,75.2l.237.87c.791,2.61,1.265,5.219,2.135,7.829a149.738,149.738,0,0,0,9.489,20.8h5.061c-4.9-9.41-9.647-18.9-13.048-28.863a307.088,307.088,0,0,1-11.545-52.824c-1.344-10.043-1.5-20.086-2.214-30.049-.791-16.369-1.423-32.817-.237-50.451.87-10.834,1.661-21.667,2.214-32.58C213.889,48.775,213.889,29.164,197.994,13.981Z" transform="translate(917.019 853.855)" fill="#eeeeef"/><path d="M25.753,55.082c7.671-13.68,4.033-33.608-6.722-44.6-3.242-3.321-6.484-4.9-9.885-4.9A15.613,15.613,0,0,0,1.4,7.952C-12.679,16.1-23.75,50.733-4.455,65.758A18.625,18.625,0,0,0,6.932,70.186C16.105,69.316,21.8,62.437,25.753,55.082ZM-2.478,63.307c-8.857-6.88-9.489-17.792-9.094-23.644.791-12.02,7.275-24.751,14.55-29.021a13.062,13.062,0,0,1,6.168-1.9c2.531,0,5.14,1.265,7.592,3.875,10.28,10.517,13.048,28.863,6.247,40.962C18.32,62.12,13.18,66.391,6.616,67.023A15.809,15.809,0,0,1-2.478,63.307Z" transform="translate(1009.946 975.89)" fill="#eeeeef"/><path d="M112.075,54.558C133.5,35.184,155.488,16.6,182.691,6.716l.474-.237a86.971,86.971,0,0,1,27.282-4.9c13.048,0,24.672,4.27,35.031,11.15a66.384,66.384,0,0,1,8.54,6.563,70.171,70.171,0,0,1,7.908,8.778,92.418,92.418,0,0,1,11.387,19.374c1.344,3.084,3.163,5.535,4.27,8.857.791,2.372,1.107,4.745,1.74,7.038a157.544,157.544,0,0,1,4.9,27.2c1.74,20.244-.237,40.409-5.061,60.732A392.09,392.09,0,0,0,268.253,267.2q2.491,43.888,7.671,87.46c.316,2.926.633,6.326.87,9.094.237,1.582.791,2.847.949,4.349,1.423,9.964,2.214,20.086,4.112,29.97,4.428,23.407,13.68,44.916,26.1,64.764,15.341,24.672,31.789,48.474,43.176,75.677,9.727,23.565,18.583,47.526,27.6,71.249.712,1.9,2.135,2.926,2.926,4.745,6.88,15.578,14.867,29.5,24.83,40.646,2.135,2.372,4.745,4.191,6.959,6.405,10.6,10.2,22.3,18.82,36.138,24.988,1.423.712,2.293,1.977,3.8,2.61,32.184,13.918,61.443,32.343,87.46,57.489A442.7,442.7,0,0,1,573.1,781.121h4.666c-1.028-1.186-1.661-2.61-2.689-3.8-5.773-6.642-12.257-12.178-18.267-18.425-4.587-4.824-9.094-10.043-13.76-14.55-.87-.791-1.9-1.423-2.847-2.214-8.461-7.908-17.713-14.788-26.965-21.588-6.643-4.9-13.522-9.648-20.718-14-4.982-3-9.173-7.117-14.392-9.727-8.778-4.349-17.4-8.7-26.412-12.652l-.87-.553a131.907,131.907,0,0,1-34.952-24.2c-2.451-2.451-5.219-4.587-7.591-7.2-9.806-11.071-17.634-24.2-23.8-38.906-1.9-4.349-4.191-8.461-5.852-13.127-7.67-21.351-15.262-42.781-24.356-63.42-10.834-24.988-24.909-47.684-39.618-69.9-19.848-30.049-29.5-63.578-33.845-99.4-.474-3.242-.949-6.484-1.344-9.647-3-28.468-5.773-56.54-7.512-84.929-2.372-39.143.4-78.128,9.647-116.244,4.507-18.979,8.224-38.273,7.275-58.043-1.344-23.96-6.563-46.814-19.374-66.267-.633-.949-1.344-1.74-1.977-2.689a92.519,92.519,0,0,0-6.247-8.7c-1.5-1.661-3.321-2.214-4.9-3.717A63.974,63.974,0,0,0,246.586,9.8C235.673,2.367,224.049-2.615,211.159-2.615A87.449,87.449,0,0,0,187.594.943c-1.977.633-3.638,1.977-5.615,2.61h0l-.079.079c-23.486,8.3-44.283,22.3-62.55,39.618C78.7,81.919,33.076,111.415-16.584,134.663c-3.8,1.74-7.433,4.112-11.15,6.01v4.586C-8.676,135.217,10.46,125.1,29.439,114.973,59.567,98.762,86.375,77.57,112.075,54.558Z" transform="translate(0 336.045)" fill="#eeeeef"/><path d="M196.888,31.405c-1.107-6.247-2.847-12.415-6.326-17.871C184.236,3.649,175.221-1.728,165.02-1.728A33.449,33.449,0,0,0,154.5.091C136.947,6.022,122,16.776,107.847,29.033c-32.422,28.072-67.928,51.4-101.773,77.5a103.017,103.017,0,0,0-19.848,19.928C-34.967,155-29.59,180.387-9.03,205.613c9.173,11.071,20.323,19.69,31.71,27.993,32.264,23.407,64.685,46.5,97.186,69.667,10.517,7.433,21.509,13.759,33.608,17.476a34.311,34.311,0,0,0,10.438,1.74c11.229,0,19.374-6.8,24.277-20.086,7.354-19.927,9.41-40.8,8.936-62.076-.633-25.621-2.531-51.163-4.191-76.784-1.265-22.063-.158-44.2,1.977-66.188C196.809,75.373,201,53.547,196.888,31.405Zm-5.14,65.713c-2.53,26.1-3.163,47.288-1.977,66.583l1.028,14.787c1.265,20.4,2.688,41.358,3.163,61.918.554,24.04-2.214,43.334-8.7,60.89-4.507,12.1-11.466,18.03-21.351,18.03a33.054,33.054,0,0,1-9.489-1.582c-10.359-3.163-20.718-8.54-32.659-17l-4.349-3.084c-30.524-21.667-62-44.2-92.916-66.662-10.675-7.75-21.9-16.369-31-27.361-21.984-26.807-23.328-50.056-4.745-75.282A108.083,108.083,0,0,1,7.972,109.06C20.387,99.57,33.2,90.16,45.534,81.224c21.43-15.736,43.73-31.947,64.369-49.819C121.448,21.442,136.947,9.264,155.53,3.1a29.434,29.434,0,0,1,9.489-1.74c9.015,0,17.16,4.982,22.853,13.918,2.847,4.349,4.666,9.647,5.931,16.685,3.084,17,1.265,34.241-.633,50.926C192.618,87.709,192.143,92.3,191.748,97.119Z" transform="translate(34.91 405.3)" fill="#eeeeef"/><path d="M3.138.139h-.4L3.06,3.3c9.568,0,15.1,7.987,18.109,14.629,3.717,7.829,5.456,15.341,5.3,22.221C26.387,50.669,21.247,61.74,11.679,61.74a19.5,19.5,0,0,1-9.964-3.163l-3.084-1.819c-4.587-2.689-8.936-5.219-12.178-9.173-5.3-6.326-8.382-12.811-9.331-19.848a29.045,29.045,0,0,1,3.163-9.964C-14.417,8.363-6.746,3.3,2.743,3.3V.139c-10.6,0-19.532,5.773-25.226,16.053a31.34,31.34,0,0,0-3.558,12.02c1.186,8.066,4.9,15.183,10.122,21.43,4.428,5.3,10.359,8.224,15.974,11.7A22.739,22.739,0,0,0,11.679,64.9C23.066,64.9,29.55,52.567,29.63,40.31c.158-8.066-2.056-16.053-5.615-23.644C19.666,6.94,12.786.139,3.138.139Z" transform="translate(132.185 551.071)" fill="#eeeeef"/><path d="M36.477,86.569c16.29-8.382,32.264-17.792,47.367-29.417,16.843-13.048,34.082-25.3,52.745-35.427,5.377-2.926,10.675-4.9,15.974-7.2C169.96,6.938,187.989,1.323,206.889.612h.079c1.661-.158,3.4-.158,5.14-.158A105.657,105.657,0,0,1,231.719,2.51c5.456.949,10.28,2.847,15.183,4.666A76.738,76.738,0,0,1,267.067,18.4c3.242,2.53,6.722,4.824,9.647,7.908,2.531,2.61,4.745,6.01,7.117,9.094,5.377,7.038,9.015,15.341,13.206,23.249,4.9,9.806,9.885,19.69,13.048,30.049,2.293,7.591,3.321,16.132,4.745,24.435,1.9,10.6,4.428,21.035,4.824,32.184,0,1.028-.158,1.9-.158,2.926.4,23.328-4.033,45.786-9.41,68.086-7.433,30.524-12.178,61.522-10.6,93.074,1.9,42.306,7.512,83.98,23.723,122.807l.4,1.028c1.423,3.479,2.451,7.038,4.112,10.438,9.727,20.639,22.616,39.064,36.692,56.224,19.611,23.8,38.827,47.842,59.387,70.774,2.61,3,5.061,6.01,7.829,8.936,1.344,1.423,2.609,3.084,3.954,4.507A267.9,267.9,0,0,0,468.4,614.173c23.565,17.4,42.7,38.985,59.15,63.736,3.875,5.773,8.936,10.438,12.969,16.053,10.043,14,19.928,28.231,30.761,40.646,3.479,4.033,7.512,7.275,11.229,11.071,3.163,3.4,5.535,7.591,8.857,10.913,4.349,4.349,9.489,7.75,14.076,11.782,3.558,3.084,7.2,5.931,10.754,8.936,10.755,8.857,21.114,18.188,32.185,26.728,5.852,4.586,10.675,9.964,15.578,15.341h4.982c-4.033-4.982-8.145-9.964-13.364-14.076-13.048-10.438-26.175-20.8-38.906-31.552l-4.428-3.717A357.734,357.734,0,0,1,576.259,735c-1.423-1.581-2.926-3.163-4.349-4.824A557.64,557.64,0,0,1,529.287,673.8c-17.239-26.1-38.432-47.13-62.392-65.792-11.624-8.936-22.142-19.137-32.263-29.891-11.624-12.336-22.221-25.463-33.054-38.59-14.708-18.109-29.575-36.455-44.046-54.8A223.131,223.131,0,0,1,325.9,430.477l-.633-1.661a277.471,277.471,0,0,1-16.527-61.127,530,530,0,0,1-5.852-60.336c-1.028-30.6,3.479-60.415,10.675-89.753,5.693-23.012,9.489-46.26,9.173-69.984-.079-.712.158-1.344.079-2.056v-.237c-.079-2.135.4-4.112.237-6.168-2.135-34.873-11.15-67.295-29.18-95.684l-.632-1.344c-.712-1.107-1.661-1.9-2.372-3.084-2.689-3.8-4.824-7.908-7.908-11.545-.949-1.265-2.372-1.661-3.4-2.847A91.642,91.642,0,0,0,266.2,13.738,81.961,81.961,0,0,0,246.427,3.617,92.061,92.061,0,0,0,233.142-.337c-2.056-.4-3.717-1.5-5.852-1.74a128.47,128.47,0,0,0-16.448-1.028c-.949,0-1.74.4-2.689.474H206.81A147.021,147.021,0,0,0,171.7,3.3c-8.224,2.451-16.132,6.247-24.04,9.885-3.4,1.582-6.8,2.372-10.122,4.191-1.265.633-2.372,1.5-3.638,2.135-2.214,1.265-4.586,1.9-6.8,3.163-5.061,3-9.727,6.563-14.629,9.806-1.661,1.186-3.479,2.372-5.219,3.558C95.31,44.262,83.291,52.407,71.508,60.79c-10.122,7.2-20.955,13.048-31.789,18.9-10.992,6.089-22.062,12.1-33.608,16.527-10.754,4.191-22.379,7.275-33.845,10.359v4.507c19.848-5.535,39.3-12.257,57.806-21.193Z" transform="translate(0 297.787)" fill="#eeeeef"/><path d="M-.057,121.74c14.471,0,28.152-3.638,41.516-8.936l1.028-.237c1.265-.554,2.372-1.5,3.558-2.135,7.354-3.242,14.708-6.089,21.667-10.992,2.451-1.74,4.191-4.191,6.563-5.931,8.461-6.247,16.448-14.155,24.435-22.3a219.108,219.108,0,0,0,23.644-28.784c6.01-8.54,11.862-17.16,16.29-26.016,1.581-3.084,3.954-5.377,5.377-8.54,2.135-4.745,3.163-9.885,4.744-14.788h-4.349C141.65.989,138.882,8.9,135.165,16.172A231.612,231.612,0,0,1,120.3,40.053c-4.666,6.563-8.619,13.522-13.918,19.532-1.344,1.5-2.847,2.61-4.191,4.033A224.515,224.515,0,0,1,72.931,90.346a170.177,170.177,0,0,1-29.1,17.713c-1.344.554-2.61,1.5-3.954,1.977a84.565,84.565,0,0,1-14.234,4.428A100.9,100.9,0,0,1,11.8,116.679,104.736,104.736,0,0,1,.734,117.707,174.986,174.986,0,0,1-27.1,115.256l-.633-.079v3.558L-20.459,120A119.814,119.814,0,0,0-.057,121.74Z" transform="translate(0 0)" fill="#eeeeef"/><path d="M7.693,319.75l1.107-.237c15.894-4.349,30.919-11.15,45.628-18.109,4.349-2.056,8.936-2.847,13.206-5.14,13.364-7.275,27.282-12.257,41.2-17.4,7.2-2.768,14.55-5.614,21.667-7.67a302.545,302.545,0,0,1,40.409-8.3c9.252-1.265,18.583-3.084,27.756-3.321,3-.079,6.089-.474,9.094-.474a166.7,166.7,0,0,1,51.559,7.671,96.693,96.693,0,0,1,31.077,17.4c1.423,1.186,2.847,2.531,4.27,3.8a108.671,108.671,0,0,1,22.221,27.756c10.6,18.741,18.583,38.511,24.988,58.913,1.028,3.321,1.819,7.2,2.768,10.6a384.247,384.247,0,0,1,12.02,59.15c2.689,23.17-.237,45.865-4.982,68.481-.4,1.9-.712,3.717-1.107,5.535-4.586,19.928-10.2,39.7-12.336,60.178-.554,5.061-.237,9.885-.554,14.946-.158,1.977-.158,4.033-.237,6.089a274.557,274.557,0,0,0,1.423,40.488c.158.87,0,1.819.079,2.689.158.87.475,1.581.554,2.372a211.416,211.416,0,0,0,9.015,38.511c.712,2.214,1.423,4.507,2.293,6.643a186.987,186.987,0,0,0,13.364,27.835c2.609,4.507,5.219,8.936,8.145,13.127,2.135,3.084,3.479,6.405,5.852,9.41,3.954,5.061,8.857,9.015,13.285,13.759,1.74,1.74,3.4,3.717,5.219,5.456a138.474,138.474,0,0,0,28.073,20.876c1.661,1.107,2.926,2.452,4.666,3.479,3.321,1.977,6.247,2.926,9.41,4.349,2.135.87,3.716,2.61,5.931,3.321.791.237,1.344.158,2.056.4,6.88,2.372,13.443,3.875,19.69,3.875l.316-.079c.554,0,1.265.316,1.74.316,17.16,0,29.575-8.936,43.255-26.333,16.053-20.165,27.993-43.414,42.385-64.764a208.618,208.618,0,0,1,29.021-34.715c2.293-2.135,4.507-4.27,6.88-6.247,11.229-9.727,23.96-17.713,37.325-24.988,26.728-14.471,55.2-24.356,82.794-36.534,28.231-12.415,51.954-30.524,64.923-61.364,4.665-11.229,7.275-22.932,9.41-34.873v-.4c1.265-7.117,2.451-14.234,3.242-21.43,2.135-18.979-.079-37.957,2.372-56.857.237-1.5.237-2.926.553-4.428a69.425,69.425,0,0,1,3.005-11.387c1.661-4.428,3.558-8.461,6.247-11.545a24.778,24.778,0,0,1,2.214-3.163c3.8-3.4,8.857-5.377,14.392-6.8a83.72,83.72,0,0,1,14.155-2.135c14.234-.949,28.389.4,42.465-3.559,3.717-1.028,6.721-3.479,10.2-4.982,1.582-.712,3.084-1.423,4.666-2.214A92.136,92.136,0,0,0,914.948,357c.474-.554,1.186-.712,1.661-1.265l.87-1.265a97.129,97.129,0,0,0,8.145-12.02,109.477,109.477,0,0,0,6.089-11.7,101.835,101.835,0,0,0,4.745-11.783,104.075,104.075,0,0,0,4.349-25.226c0-.554.316-1.107.316-1.661,0-1.661-.554-3.084-.633-4.666,0-4.982.158-9.885-.633-14.787-.474-3.084-1.661-5.852-2.214-8.857a286.43,286.43,0,0,0-15.5-57.41c-8.778-22.379-18.03-44.521-27.124-66.741-3.875-9.41-7.512-18.9-10.834-28.626-1.661-4.824-3.559-9.647-4.824-14.629a102.278,102.278,0,0,1-3.638-32.5,64.488,64.488,0,0,1,1.423-9.647,71.532,71.532,0,0,1,7.513-20.718c1.819-3.242,3-6.642,5.14-9.727l.237-.237c6.168-8.461,13.443-15.5,20.8-22.063C913.92-1.3,917-4.072,920.009-6.919h-5.535l-1.344,1.265a171.107,171.107,0,0,0-22.537,24.04c-1.028,1.344-2.451,2.135-3.4,3.558l-.079.158c-.712,1.028-1.819,1.582-2.53,2.689a76.22,76.22,0,0,0-9.489,20.56c-.316,1.028-.316,2.056-.633,3.084a79.044,79.044,0,0,0-2.372,18.741c0,.791-.4,1.582-.316,2.372.079,1.028.4,2.135.474,3.084A121.846,121.846,0,0,0,876.6,99.756c2.135,7.2,4.982,13.918,7.513,20.876l.633,1.977.553,1.423c6.405,17.081,13.443,33.845,20.4,50.53,11.624,28.705,22.379,57.489,28.468,88.013,1.5,8.778,3.321,17.476,3.321,26.728,0,1.186.237,2.451.237,3.638a95.2,95.2,0,0,1-4.349,24.988,104.226,104.226,0,0,1-3.717,9.806,109.167,109.167,0,0,1-7.2,13.839,85.7,85.7,0,0,1-5.852,9.173,92.273,92.273,0,0,1-14.392,14.471,88.109,88.109,0,0,1-12.02,7.987c-2.689,1.5-5.456,2.768-8.224,4.033a85.637,85.637,0,0,1-17.4,5.456,144.57,144.57,0,0,1-18.741,1.977h-6.642a122.4,122.4,0,0,0-20.086,1.265c-1.423.237-2.056,1.265-3.4,1.661a34.886,34.886,0,0,0-15.183,7.275c-1.344,1.186-2.214,3-3.4,4.428a38.6,38.6,0,0,0-6.01,11.229c-.712,1.819-2.135,2.847-2.689,4.9-.632,2.61-.474,5.3-.87,7.829l-.316,1.028c-.079.87,0,1.661-.079,2.53-.633,4.587-1.74,9.173-1.581,13.839a392.96,392.96,0,0,1-4.191,65.318c-2.451,16.764-8.145,30.6-15.341,43.255a101.924,101.924,0,0,1-12.732,18.425,109.185,109.185,0,0,1-12.731,12.178,143.466,143.466,0,0,1-23.565,15.1c-2.768,1.344-5.061,3.163-7.987,4.507-24.435,10.438-49.819,19.058-73.937,31-2.847,1.344-4.9,3.638-7.671,5.061-3.8,2.056-7.75,3.638-11.466,5.931-8.7,5.3-15.974,11.308-23.486,17.318-2.847,2.372-6.247,4.191-9.015,6.722a185.993,185.993,0,0,0-25.938,28.784c-2.293,3.084-4.033,6.405-6.168,9.568-1.9,2.768-4.428,4.587-6.168,7.433-11.387,18.425-21.825,37.562-34.873,55.038-13.443,18.346-27.756,26.491-43.493,26.649a59.951,59.951,0,0,1-27.756-7.671c-3.717-1.5-7.275-3.875-10.913-5.852A190.452,190.452,0,0,1,400,758.392c-2.531-2.451-5.14-5.061-7.671-7.829a174.815,174.815,0,0,1-17.95-21.746c-2.451-3.559-4.666-7.2-6.88-10.913a179.648,179.648,0,0,1-13.6-28.31q-1.186-3.2-2.372-6.643a219.01,219.01,0,0,1-8.62-37.4c-.316-1.9-.633-3.717-.87-5.615a248.684,248.684,0,0,1-1.265-39.776c.079-2.847.079-5.535.237-8.461a302.528,302.528,0,0,1,6.168-42.623c.475-2.135.712-4.191,1.186-6.247,1.186-4.9,1.977-9.964,3.163-14.867.949-3.954,1.9-7.987,2.847-11.941.4-2.056.474-3.558.87-5.535,1.582-7.512,3.638-14.788,4.666-22.379.475-3.558.158-7.038.4-10.6v-.87a216.862,216.862,0,0,0-3.8-58.992c-2.689-13.68-6.484-26.965-10.359-40.171-.4-1.186-.633-2.451-.949-3.638-6.168-20.244-13.6-40.013-24.2-58.438A122.108,122.108,0,0,0,296.4,285.351c-1.423-1.344-2.847-2.768-4.349-3.954a104.821,104.821,0,0,0-53.3-23.328,247.2,247.2,0,0,0-33.924-2.372c-1.9,0-3.8.633-5.694.712-5.456.158-10.834.316-16.606.87-4.824.554-9.41,2.214-14.155,2.926-13.364,1.977-26.649,4.27-39.7,8.145-6.484,1.9-12.731,4.507-19.137,6.8-9.015,3.321-18.267,5.535-27.2,9.647-9.331,4.349-18.662,8.857-27.993,13.285-15.5,7.433-31,14.076-46.893,18.425-9.885,2.847-19.928,3.638-29.891,4.9-1.74.316-3.558.4-5.3.712v3.4c2.926-.633,5.931-1.028,8.936-1.5C-9.942,322.6-.927,322.043,7.693,319.75Z" transform="translate(0 0)" fill="#eeeeef"/><path d="M116.345,94.954c18.267,17.555,35.585,35.743,51.242,55.908,1.5,1.9,3,3.717,4.428,5.694,6.01,8.145,10.359,17,14.708,25.858,2.609,5.614,5.377,11.071,7.433,16.843a234.947,234.947,0,0,1,8.778,30.049c.712,3.321,1.423,6.643,2.056,10.043,4.112,22.379,7.354,45,11.783,67.374l.554,3.084c.791,3.954,1.265,7.908,2.214,11.783,1.423,5.931,3.875,11.308,5.694,17,.633,1.977.87,4.033,1.582,5.931.4,1.107.949,1.74,1.344,2.768a162.684,162.684,0,0,0,10.834,23.17,120.056,120.056,0,0,0,8.224,12.89c2.61,3.559,4.191,7.75,7.117,11.071,12.02,13.68,26.886,23.8,41.99,33.529,15.578,9.964,31.552,18.82,45.074,31.947a120.753,120.753,0,0,1,15.816,19.69h3.954c-10.28-16.211-23.881-29.733-40.725-40.8-19.532-12.811-39.7-24.2-57.173-40.567-6.247-5.852-10.992-12.811-15.657-19.848a106.433,106.433,0,0,1-6.01-9.094,170.749,170.749,0,0,1-9.489-20.8c-1.5-3.717-2.768-7.671-4.033-11.7a264.91,264.91,0,0,1-8.778-34c-.712-3.875-1.423-7.671-2.056-11.545-1.977-11.941-3.717-23.881-5.615-35.822-.87-5.3-2.372-10.359-3.321-15.657-.474-2.451-.712-4.9-1.265-7.354-.237-1.423-.791-2.451-1.107-3.875a244.944,244.944,0,0,0-9.568-32.026,178.489,178.489,0,0,0-7.592-17.16c-2.451-4.9-3.638-10.28-6.721-15.025-2.135-3.321-4.9-6.01-7.117-9.173-.633-.791-.949-1.9-1.581-2.689-2.293-3-4.824-5.535-7.117-8.382a620.62,620.62,0,0,0-45.549-49.977C98.394,72.259,73.327,55.1,46.441,41.023,21.61,28.054-3.22,14.927-27.734,1.247V4.964c22.142,12.415,44.2,24.988,66.741,36.455C67,55.573,93.254,72.891,116.345,94.954Z" transform="translate(0 637.58)" fill="#eeeeef"/><path d="M229.7,1.089C226.065.14,222.428-.888,218.711-.888l-1.977.158C203.291.061,190.8,4.727,178.856,10.895a274.739,274.739,0,0,0-66.82,49.582C91.317,81.353,77.4,107.211,67.2,135.2a413.2,413.2,0,0,1-65,117.746c-6.247,7.829-10.675,17-14.866,26.333-3.954,8.54-6.88,17.16-.949,26.017,5.377,8.066,13.206,10.517,21.588,10.517.949,0,1.977,0,2.847-.079,17.16-1.107,32.9-7.591,47.763-16.527,25.621-15.183,46.181-36.613,65.4-60.02,26.807-32.58,54.405-64.527,84.059-94.339,13.443-13.522,27.677-26.175,40.646-40.409a91.2,91.2,0,0,0,19.532-32.9C277.7,42.209,258.961,7.731,229.7,1.089Zm35.506,69.43a88.942,88.942,0,0,1-18.82,31.789c-8.461,9.094-17.476,17.713-26.1,26.254-4.982,4.586-9.727,9.252-14.55,14-25.779,25.937-52.507,55.987-84.138,94.656C104.839,257.458,84.042,280.39,57,296.522c-16.765,10.043-31.394,15.1-46.418,16.053-.791.079-1.661.079-2.609.079-8.778,0-14.788-2.926-18.979-9.173-4.666-6.959-3.084-13.6,1.186-22.932,3.954-8.778,8.382-17.951,14.471-25.7A417.573,417.573,0,0,0,70.124,136.311c11.308-30.919,25.7-55.038,44.046-73.542a271.823,271.823,0,0,1,66.109-49.107c13.68-6.959,25.3-10.517,36.692-11.229l1.74-.079a41.291,41.291,0,0,1,9.015,1.5l1.186.316c12.732,2.926,24.2,11.783,31.394,24.277C267.739,41.656,269.637,57,265.208,70.519Z" transform="translate(839.13 470.885)" fill="#eeeeef"/><path d="M10.223,13.867a237.51,237.51,0,0,1,26.1,9.173c4.112,1.819,8.066,3.8,12.02,5.852A179.685,179.685,0,0,1,70.8,41.939c2.61,1.74,5.061,3.717,7.592,5.615A237.177,237.177,0,0,1,106.54,72.463c2.135,2.135,4.191,4.27,6.247,6.563a221.913,221.913,0,0,1,20.56,27.282c2.135,3.163,4.428,6.326,6.326,9.568,15.1,25.858,25.384,55.038,30.049,88.013,3.084,21.984,5.14,44.283,7.75,66.425.633,5.061,1.265,10.043,2.056,15.1.712,4.586.949,9.252,1.819,13.838.712,3.717,2.293,6.959,3.163,10.6.633,2.847.87,5.773,1.74,8.619.712,2.451,1.9,4.033,2.609,6.405a140.08,140.08,0,0,0,9.964,23.8,103.378,103.378,0,0,0,11.15,16.448c2.847,3.638,4.349,8.066,7.671,11.387,14.708,14.155,32.026,24.593,49.028,35.427,7.117,4.428,13.522,9.568,20.086,14.629h4.112c-1.107-.87-1.74-1.9-2.847-2.847-2.768-2.056-4.587-5.14-7.433-7.117-16.211-10.834-32.738-21.351-48.4-33.292-2.214-1.74-4.666-3.163-6.8-4.982-6.88-5.773-11.7-12.81-16.527-19.848-2.451-3.479-5.219-6.563-7.354-10.517-3.321-6.326-5.773-13.285-8.224-20.323a187.328,187.328,0,0,1-6.01-19.69c-1.74-7.512-3.4-15.1-4.508-22.7-1.186-7.591-2.135-15.1-2.926-22.7-.712-7.275-1.582-14.471-2.293-21.746-3.638-41.358-10.2-81.687-29.812-118.379-1.424-2.689-3.48-4.982-4.982-7.671-1.9-3.163-4.112-6.089-6.089-9.094-4.27-6.563-8.145-13.522-12.969-19.611-2.53-3.242-5.456-5.614-8.066-8.619-2.135-2.372-4.349-4.587-6.563-6.88A219.608,219.608,0,0,0,79.811,44.549c-1.265-.949-2.214-2.135-3.479-3.084-1.107-.791-2.372-1.186-3.479-1.977A214.4,214.4,0,0,0,47.785,25.017c-3.242-1.582-6.405-3.242-9.647-4.666A239.663,239.663,0,0,0,9.274,10.229C7.455,9.755,5.716,9.2,3.9,8.727c-5.14-1.344-9.885-3.242-15.183-4.27-5.456-.949-10.992-1.661-16.448-2.53V6.671C-17.691,8.331-7.411,9.122,2.394,11.653,5,12.285,7.613,13.076,10.223,13.867Z" transform="translate(0 690.595)" fill="#eeeeef"/><path d="M-15.75,69.3A36.185,36.185,0,0,0,20.388,98.8h2.768c24.119,0,37.957-16.844,35.664-44.679-1.9-21.9-10.438-40.409-27.6-53.615A24.163,24.163,0,0,0,16.434-4.871C9.159-4.871,2.121-1.313-2.861,5.488-17.095,24.467-20.179,46.213-15.75,69.3ZM-.33,7.465C3.94,1.613,10.029-1.629,16.434-1.629a20.844,20.844,0,0,1,12.89,4.666c15.5,11.862,24.435,29.18,26.333,51.321,1.186,13.68-1.819,24.672-8.382,31.947-5.615,6.01-13.918,9.252-24.119,9.252a18.2,18.2,0,0,1-2.768.158c-19.137,0-30.524-14-33.055-27.044C-17.253,44.711-13.22,24.625-.33,7.465Z" transform="translate(789.387 159.903)" fill="#eeeeef"/><path d="M2.562,39.262a288.926,288.926,0,0,1,13.127,29.97c.791,1.9,1.582,3.717,2.372,5.694,4.033,10.6,7.908,21.351,12.178,31.789,4.428,10.517,9.727,20.481,16.844,29.1l.949,1.344c1.186,1.344,1.977,3,3.321,4.349,1.423,1.344,2.926,1.028,4.428,2.056.791.474,1.265,1.265,2.135,1.74,1.423.791,2.768.712,4.191,1.186,2.293.87,4.507,3.242,6.88,3.242,4.428,0,8.857-1.582,13.206-4.745,7.038-5.061,9.489-13.522,11.466-21.746.4-1.661.158-3.321.4-4.9.158-1.028.158-2.056.316-3.084a113.266,113.266,0,0,0-1.423-30.129C90.1,66.7,85.752,48.751,81.956,30.643a379.335,379.335,0,0,1-6.01-37.562h-3.4c.554,4.9,1.028,9.885,1.74,14.788,1.028,7.512,2.847,14.787,4.349,22.142,1.028,5.219,1.265,10.438,2.53,15.657,4.112,17.4,7.829,34.794,10.122,52.745a71.915,71.915,0,0,1,0,15.974c-.079,1.028-.079,1.977-.237,3a57.188,57.188,0,0,1-4.9,16.211c-3.875,7.908-9.568,11.862-16.29,11.862-2.451,0-5.14-1.028-7.829-2.214a21.823,21.823,0,0,1-3.4-1.582c-6.563-3.954-11.229-9.806-15.183-16.527-6.959-11.229-11.862-23.486-16.053-36.059C18.3,62.59,5.8,37.918-7.322,13.562c-3.558-6.643-6.8-13.6-10.122-20.481h-3.8C-14.123,7.789-6.453,22.261,1.218,36.732Z" transform="translate(507.035 0)" fill="#eeeeef"/><path d="M40.9,139.231A27.206,27.206,0,0,0,51.9,142.157c6.326,0,11.782-3.717,15.974-11.624,7.275-13.206,9.568-28.389,11.862-43.334,3.4-21.825,2.293-43.018-5.693-63.578C70.32,14.052,65.022,5.907,56.561-.261a30.121,30.121,0,0,0-18.5-6.01c-21.825,0-45.47,20.086-50.452,39.46-1.581,6.089-3.321,11.941-2.847,18.267C-14.372,69.09-7.966,84.747.653,99.535,10.7,116.536,23.348,130.691,40.9,139.231ZM-9.785,35.719l.4-1.74C-4.408,14.922,18.6-3.029,38.057-3.029A27,27,0,0,1,54.742,2.348c7.2,5.3,12.415,12.415,16.369,22.458,7.2,18.82,9.094,39.064,5.535,61.918l-.158,1.028c-2.214,14.155-4.507,28.784-11.466,41.278-3.479,6.643-7.829,9.885-13.127,9.885a22.136,22.136,0,0,1-9.648-2.61C27.065,129.03,14.413,116.457,3.421,97.795-6.464,81.11-11.367,66.322-12.157,51.376-12.474,46.078-11.129,41.017-9.785,35.719Z" transform="translate(969.175 50.594)" fill="#eeeeef"/><path d="M411.15-1.807h-1.344c-22.616,0-41.437,11.545-59.545,23.96-26.728,18.425-50.926,40.488-75.44,62-31.552,27.361-54.563,61.364-71.486,100.428-10.992,24.83-23.96,48.079-42.465,67.769-19.295,20.4-41.674,34.478-67.058,43.809-20.956,7.987-42.623,13.127-63.262,22.063C6.511,328.5-12.23,343.92-18,372.7c-3.717,18.346,1.186,35.427,8.54,51.559,17.318,38.273,36.929,75.2,61.443,108.652C61.47,545.8,73.094,555.768,87.328,561.3a42.256,42.256,0,0,0,15.1,2.926c12.1,0,23.17-5.773,33.529-14.076,10.913-8.7,18.583-20.639,26.333-32.422,22.774-35.506,52.428-63.42,84.692-88.329,32.58-25.068,63.341-52.349,90.544-83.664,12.1-13.68,24.435-27.044,36.692-40.329,22.379-23.96,47.921-43.1,75.914-58.517,8.936-4.745,17.4-9.964,25.858-15.341,20.718-13.206,31.868-33.608,37.087-57.489C525.575,117.2,508.89,68.651,472.04,28.005,455.829,10.134,435.585-1.412,411.15-1.807ZM510,173.429c-5.694,25.621-17.318,43.73-35.664,55.433-9.568,6.089-17.713,10.992-25.621,15.262a305.912,305.912,0,0,0-76.784,59.071c-13.127,14.313-24.988,27.124-36.771,40.488-24.672,28.389-54.168,55.591-89.99,83.269-38.353,29.5-65.555,57.806-85.562,89.12l-.87,1.344c-7.2,10.913-14.629,22.221-24.83,30.287-11.387,9.094-21.43,13.364-31.473,13.364a39.858,39.858,0,0,1-13.918-2.689c-12.89-5.061-24.356-14.234-34-27.361-21.825-29.733-41.2-64.053-61.127-108.1-8.7-19.216-11.308-34.557-8.3-49.582,4.9-24.435,19.295-40.567,46.656-52.191,11.782-5.14,24.039-8.936,35.98-12.731,9.015-2.847,18.188-5.852,27.2-9.252,26.886-9.885,49.186-24.514,68.244-44.679,16.448-17.555,30.129-39.3,43.018-68.56,17.793-40.962,40.883-73.542,70.7-99.4l9.489-8.3C307.243,59.715,328.91,40.737,352,24.684c18.188-12.257,36.3-23.328,57.806-23.328h1.186c21.984.4,41.674,10.043,58.6,28.705C508.02,72.368,521.622,120.6,510,173.429Z" transform="translate(660.45 399.132)" fill="#eeeeef"/><path d="M9.842,121.853c19.611,10.28,40.725,13.68,62.234,14.313,19.295-.633,37.8-3.4,54.01-15.974,31.71-24.435,30.919-67.532,17.4-88.488C130.91,12.252,113.592,4.423,93.348,4.423a87.8,87.8,0,0,0-10.043.633C54.046,8.614,31.588,25.379,12.61,48.469a248.073,248.073,0,0,0-15.1,20.718C-8.9,79.072-10.323,90.3-8.583,101.53-6.843,112.126,1.776,117.425,9.842,121.853Zm-9.648-51c4.982-7.591,9.885-14.234,14.788-20.4,21.272-25.7,43.176-39.143,68.8-42.227a79.856,79.856,0,0,1,9.568-.633c20.718,0,36.217,8.54,47.446,25.779,12.652,19.532,13.918,60.652-16.527,84.376C108.214,130.077,89.631,132.449,71.918,133c-24.593-.791-43.967-5.219-60.652-13.918C3.358,114.736-3.917,109.991-5.5,100.977-7.239,89.589-5.341,79.468.195,70.848Z" transform="translate(1441.884 885.554)" fill="#eeeeef"/><path d="M45.694,134.076c7.908,17.239,17.318,33.687,29.021,48.316.791.949,1.424,2.214,2.214,3.163.712.712,1.107,1.661,1.74,2.372,4.745,5.3,10.2,8.619,15.341,12.652,2.135,1.661,3.875,3.954,6.089,5.377l.949.474c3.638,2.293,7.592,3.638,11.466,5.219a67.8,67.8,0,0,0,17.476,4.507c2.293.316,4.27,1.74,6.721,1.74a81.163,81.163,0,0,0,9.647-.633c5.3-.791,9.252-3.875,13.759-5.931,2.293-1.028,4.666-1.582,6.8-2.926a64.461,64.461,0,0,0,17.555-16.843c.791-1.107,2.056-1.5,2.847-2.689.316-.474.316-1.028.633-1.582,1.107-1.74,2.768-2.768,3.8-4.666,10.675-19.532,14.234-41.437,15.183-63.736.87-19.848-.633-39.934-1.9-59.941-.316-4.27-.4-8.54-.554-12.811-.632-17.634-.237-35.348-.237-53.061h-3.558v38.59c0,4.349.475,8.7.633,13.048,0,1.977-.079,3.954,0,5.931.237,3.717.475,7.354.712,10.992.079,2.135.158,4.27.237,6.326.474,6.88.316,13.918.632,20.876.4,9.173,1.028,18.267.633,27.44-1.265,24.435-4.9,48.316-18.188,69.272-1.107,1.74-2.53,2.926-3.717,4.507-5.14,6.8-10.834,12.494-17.16,16.211-1.661,1.028-3.558,1.423-5.3,2.214-7.038,3.163-14.313,5.535-21.9,5.535-2.689,0-5.377-.791-8.066-1.186a62.793,62.793,0,0,1-14.155-3.479,77.707,77.707,0,0,1-11.7-5.377c-2.689-1.661-5.3-4.349-7.908-6.484-6.089-4.666-12.02-9.331-16.923-15.183-1.107-1.344-2.214-3.084-3.321-4.587A150.386,150.386,0,0,1,59.77,153.45C37.787,109.483,16.278,65.358-6.892,21.944a169.182,169.182,0,0,1-8.382-18.9C-16.54-.2-17.568-3.44-18.6-6.682l-.079-.237H-22A272.117,272.117,0,0,0-.013,43.691C16.357,73.186,31.7,103.157,45.694,134.076Z" transform="translate(448.008 0)" fill="#eeeeef"/><path d="M-9.135,51.638a85.241,85.241,0,0,0,21.351,2.926,70.669,70.669,0,0,0,15.736-1.819c15.736-3.717,22.3-19.058,15.262-35.427C36.73,2.373,25.422-5.535,13.4-5.535,4.7-5.535-4.311-1.5-12.219,6.959-23.131,18.5-24.634,21.351-24.634,30.92-24.634,39.934-17.912,49.187-9.135,51.638ZM-9.926,9.094C-2.809,1.582,5.178-2.372,13.4-2.372c11.308,0,21.114,7.671,26.886,20.956,3.321,7.67,3.48,15.1.474,21.035A19.709,19.709,0,0,1,27.32,49.661a68.536,68.536,0,0,1-15.1,1.661A84.35,84.35,0,0,1-8.423,48.554c-7.117-1.977-13.048-9.885-13.048-17.634C-21.471,22.537-20.759,20.561-9.926,9.094Z" transform="translate(242.04 108.059)" fill="#eeeeef"/><path d="M-8.666,130.676l-.87,1.582c-1.423,2.451-3.321,4.507-4.745,6.959-.791,1.423-.791,3.084-1.423,4.507A93.562,93.562,0,0,0-24.481,168c-.158.949.237,1.582.079,2.53-.237,1.423-1.186,2.61-1.344,4.033-1.977,17.239,9.252,28.231,21.114,33.924,13.68,6.643,28.31,8.382,42.939,10.043,32.5,3.717,65.4,3.321,97.265,12.1l2.372.712a131.082,131.082,0,0,1,22.379,9.015c1.977,1.107,3.8,2.372,5.615,3.479a118.07,118.07,0,0,1,15.183,10.834c2.53,2.293,4.666,4.9,6.959,7.433a114.773,114.773,0,0,1,17.951,26.333l.554.949c6.643,13.759,11.624,28.073,16.448,42.465,2.056,5.852,4.191,11.308,6.168,17.4,3.8,12.494,7.275,25.147,10.754,37.8,1.661,6.247,3.321,12.731,4.9,19.216a430.907,430.907,0,0,1,10.122,52.349c1.107,9.173,2.689,18.425,2.689,27.44,0,2.372.158,4.745.079,7.038a209.413,209.413,0,0,1-6.326,42.86c-3.954,16.369-8.145,32.659-11.071,49.186-.553,2.926-.158,5.852-.553,8.778-.158,1.582-.791,3.084-.949,4.666-.474,5.535-.158,10.438-.237,15.657a152.153,152.153,0,0,0,1.344,24.04A121.287,121.287,0,0,0,246.438,665c.87,2.293.712,4.665,1.661,6.959.791,1.661,1.977,3.242,2.847,4.982l.553,1.107c8.382,16.448,21.035,30.919,36.534,39.3l.316.158c8.145,4.349,16.685,7.512,26.017,7.512.949,0,1.977,0,2.926-.079,4.982-.237,9.015-2.293,13.443-3.8a39.277,39.277,0,0,0,4.982-1.423,67.288,67.288,0,0,0,16.211-10.2c.554-.474,1.186-.633,1.661-1.107l1.028-1.028c1.74-1.582,3.8-2.53,5.377-4.27,14-14.55,27.282-29.891,40.8-44.758,13.048-14.313,27.835-25.937,43.335-36.613,12.336-8.3,24.83-16.211,37.641-23.249,16.29-8.936,32.738-17.634,48.633-27.44,2.689-1.661,4.587-4.507,7.2-6.405,3.559-2.61,7.275-4.745,10.675-7.671,1.9-1.581,2.53-3.875,4.27-5.614,3.321-3.321,7.512-5.535,10.517-9.252,2.926-3.717,3.717-8.066,5.773-12.1A74.092,74.092,0,0,0,572,523.3a91.531,91.531,0,0,0,5.773-31.947c0-.87.474-1.582.4-2.451l-.158-1.186c0-1.107.316-2.056.237-3.242-.554-11.071-2.609-21.746-5.061-32.264v-.158a286.523,286.523,0,0,0-12.732-41.041c-11.387-28.626-30.445-48.4-59.15-56.54-34.636-10.2-69.193-20.56-100.9-39.222a400.1,400.1,0,0,1-66.5-48.949c-19.453-17.713-36.059-37.878-51.163-59.15l-2.53-3.558c-14.867-21.272-28.389-43.651-41.437-66.425Q213.74,93.865,192.587,48.119c-4.112-9.173-7.75-18.5-11.308-27.835-2.135-5.614-4.112-11.387-5.931-17.239C174.241-.2,173.45-3.6,172.5-6.919h-4.033c.949,3.242,2.293,6.168,3.242,9.331,1.9,5.773,3.954,11.862,6.247,17.951,2.135,5.614,3.4,11.466,5.931,16.923,1.5,3.479,3.48,6.642,5.061,10.043l.791,2.056c1.661,3.638,3.717,6.959,5.456,10.517q22.774,48.514,49.9,94.023a688.457,688.457,0,0,0,43.1,65.634c1.977,2.53,3.321,5.456,5.3,7.908,2.135,2.847,4.666,5.14,6.88,7.908,2.53,3,5.3,5.931,7.908,8.857,37.72,43.018,82.952,75.044,135.539,95.526,18.346,7.2,37.325,12.652,56.066,18.109,27.993,8.145,46.418,27.361,57.489,55.117,9.568,23.96,16.369,48.633,17.476,74.728,0,1.582-.316,2.689-.4,4.27a80.949,80.949,0,0,1-5.615,31.394c-.633,1.661-1.581,3.163-2.372,4.745-3.8,7.75-9.568,14.471-15.974,20.955a122.026,122.026,0,0,1-14,12.336c-14.55,10.676-30.049,19.453-45.628,27.993-21.272,11.7-42.544,23.091-62,38.115-3.8,3.005-6.721,7.117-10.359,10.28-6.8,6.01-14.076,11.862-20.007,18.346-4.191,4.666-8.382,9.252-12.494,13.918l-1.107,1.265c-1.581,1.74-3.479,3.163-5.061,4.982a266.945,266.945,0,0,1-27.282,28.626c-.949.949-2.056,1.582-3,2.372a63.012,63.012,0,0,1-15.895,10.122c-.712.237-1.344.237-2.056.475a49.632,49.632,0,0,1-16.923,3.4,52.356,52.356,0,0,1-25.3-6.8H289.3a78.081,78.081,0,0,1-22.379-18.979c-8.461-10.2-13.839-21.351-17.872-32.9a128.049,128.049,0,0,1-5.694-22.458,150.986,150.986,0,0,1-1.9-18.109,166.809,166.809,0,0,1,1.581-29.733c.791-6.247,1.74-12.415,3-18.583.633-3,1.265-6.01,1.977-9.015,1.74-7.275,3.479-14.471,5.456-21.667.633-2.53.475-4.982,1.107-7.433.791-3.559,1.74-7.117,2.531-10.675.87-3.954.158-7.671.712-11.545,1.5-11.545,2.689-23.011,2.293-34.557-.079-2.451.791-5.14.554-7.591-.474-4.27-1.977-8.857-2.609-13.206-.87-6.959-.554-13.918-2.056-20.876-2.53-11.466-5.773-22.7-8.54-34.082-.4-1.344-.4-2.61-.791-4.033l-2.768-10.359-.4-1.344c-3.321-12.415-6.959-24.83-10.834-37.087-3-9.885-6.643-19.453-10.2-29.18-3.084-8.461-5.377-17.16-8.857-25.463-1.107-2.689-2.768-4.586-3.954-7.117l-.4-.949a147.237,147.237,0,0,0-9.41-16.606c-1.74-2.53-3.717-4.666-5.614-6.959-2.372-3.084-4.349-6.247-7.275-9.015-1.423-1.265-3.163-2.135-4.666-3.321a109.132,109.132,0,0,0-13.918-10.043c-2.293-1.344-4.507-2.847-6.88-4.112a125.967,125.967,0,0,0-22.774-9.252l-1.5-.633-1.028-.158c-3.479-1.028-6.484-2.451-10.122-3.242-6.089-1.265-12.494-1.423-18.741-2.214-4.428-.633-8.857-1.186-13.364-1.661-7.275-.712-14.392-2.056-21.667-2.689-22.063-1.74-44.2-2.53-65.713-8.936a49.762,49.762,0,0,1-18.267-9.173c-9.015-7.591-11.15-17.16-9.648-28.31a91.218,91.218,0,0,1,8.224-25.621c2.056-4.191,4.191-8.3,6.643-12.336,5.931-9.806,12.336-18.662,18.82-27.519C21.7,92.956,31.348,80.3,40.521,67.493,47,58.478,52.7,48.989,58.392,39.579c.633-1.107,1.423-2.056,2.056-3.163,3.479-6.01,6.405-12.415,9.41-18.741A211.418,211.418,0,0,0,79.031-4.547c.237-.87.712-1.582.949-2.372H76.5l-.316.949a185.95,185.95,0,0,1-9.252,22.3C54.517,42.109,38.069,65.437,20.593,88.211,12.844,98.254,6.043,109.167-1,119.842-3.526,123.559-6.293,126.88-8.666,130.676Z" transform="translate(137.426 0)" fill="#eeeeef"/><path d="M9.736,292.241c.712,16.844,8.857,26.333,21.035,26.333a33.017,33.017,0,0,0,13.759-3.479,159.544,159.544,0,0,0,24.356-14.946c23.723-16.764,49.107-30.445,74.175-44.679,17.951-10.043,35.11-21.43,49.344-37.245,11.15-12.336,18.188-26.491,17-43.493.949-23.012-7.67-40.8-21.667-56.54-15.025-17-32.9-29.338-51.163-41.516-27.361-18.425-54.88-37.008-82.794-54.8C39.39,12.7,24.919,3.134,8.313-1.453a38.408,38.408,0,0,0-9.727-1.5c-12.969,0-20.165,9.015-20.718,26.1-.474,17.634,2.53,34.873,6.247,51.954,6.8,30.84,17.476,60.336,24.751,91.018,7.671,31.947,8.145,63.895,3.163,96.316A139.2,139.2,0,0,0,9.736,292.241Zm5.377-29.259c5.377-34.636,4.27-66.5-3.163-97.582C8.471,150.93,4.2,136.379.168,122.462-4.5,106.8-9.164,90.594-12.8,74.3c-3.48-15.974-6.643-33.292-6.168-51C-18.495,8.037-12.564.287-1.414.287A38.464,38.464,0,0,1,7.443,1.552C22.467,5.664,35.99,14.2,49.037,22.587l3.084,1.977c28.152,18.03,55.908,36.692,82.715,54.722,18.346,12.257,35.98,24.514,50.531,40.883,15.025,17.16,21.746,34.478,20.876,54.405,1.028,14.867-4.349,28.31-16.132,41.516-15.341,16.923-34.082,28.389-48.553,36.613l-10.755,6.01c-21.272,11.941-43.334,24.435-63.815,38.906a159.606,159.606,0,0,1-23.8,14.629,30.017,30.017,0,0,1-12.415,3.163c-10.6,0-17.239-8.778-17.872-23.249A135.643,135.643,0,0,1,15.113,262.982Z" transform="translate(433.515 309.499)" fill="#eeeeef"/><path d="M-11.73,30.722c1.344,3.558,2.372,7.2,3.875,10.675C-4.139,50.412.764,58.715,5.192,67.414,6.774,70.5,7.723,73.5,9.384,76.587c.949,1.74,1.977,3.321,2.926,5.061C24.25,103.631,36.9,125.061,49.318,146.728c2.293,3.954,4.982,7.67,7.275,11.624,1.028,1.74,2.056,3.638,3.084,5.377l7.2,12.02c5.3,9.094,10.675,16.606,15.974,24.593,3.4,5.14,6.01,10.675,9.647,15.578,27.6,36.85,61.364,63.341,103.038,75.044a118.269,118.269,0,0,0,12.336,3.242c2.689.553,5.061,1.661,7.829,2.135a149.467,149.467,0,0,0,20.323,1.582c25.3,0,49.028-8.066,68.481-29.417,1.819-2.056,2.847-4.666,4.428-6.88l.474-.712c7.591-10.913,13.048-23.249,17.318-36.217,9.885-28.784,15.262-58.992,20.876-88.883A470.8,470.8,0,0,1,360.8,82.122c1.344-4.349,3-8.54,4.507-12.89,5.3-15.657,11.071-31.236,18.346-46.26.87-1.74,1.028-3.8,1.819-5.535,3.321-7.908,6.01-16.053,8.7-24.356h-3.8c-2.293,7.591-4.349,15.262-7.592,22.7-3.479,8.145-7.038,16.29-10.675,24.356-3.954,8.619-6.247,17.792-9.331,26.649-1.5,4.27-3.163,8.382-4.428,12.652a613.433,613.433,0,0,0-16.923,68.956c-5.535,29.021-11.466,57.885-21.746,85.562a110.7,110.7,0,0,1-12.257,24.277l-.712,1.107c-3.4,4.9-7.75,8.619-11.941,12.415a82.163,82.163,0,0,1-12.731,9.173c-12.336,7.117-26.807,11.783-45.232,12.494-1.661.158-3.321.158-4.982.158a130.958,130.958,0,0,1-25.147-2.847c-3.48-.712-6.88-1.74-10.28-2.689-25.384-7.275-48.237-21.43-69.667-39.7-15.578-13.285-27.756-29.338-39.064-46.181-9.015-13.127-17.476-26.728-25.384-40.567-17-28.626-34.082-57.252-50.056-86.432A363.894,363.894,0,0,1-8.093,31.513l-.474-1.423c-4.508-11.941-7.75-24.435-10.675-37.008H-22.88A249.426,249.426,0,0,0-12.2,29.457Z" transform="translate(378.988 0)" fill="#eeeeef"/><path d="M39.953,123.638c3,5.615,6.326,11.071,9.331,16.764,2.689,4.982,5.456,9.806,8.066,14.788,2.135,3.954,4.666,7.908,6.88,11.941,3.954,7.117,7.512,14.55,11.941,21.351l1.028,1.344a179.715,179.715,0,0,0,24.672,29.812c8.778,8.778,19.058,15.5,29.812,21.667,3.8,2.214,7.591,5.456,11.387,7.117,1.344.633,2.293,1.819,3.717,2.372a92.131,92.131,0,0,0,33.924,6.643,77.86,77.86,0,0,0,37.562-10.043l.87-.4c14.392-8.066,27.124-20.639,36.138-38.985,1.74-3.321,2.372-7.038,3.8-10.438a156.745,156.745,0,0,0,5.852-16.053,223.093,223.093,0,0,0,7.433-34.636l.158-.791v-.079c.475-3.4,1.344-6.722,1.74-10.2,2.451-25.542,4.112-51.163,6.405-76.705,1.107-12.336,2.689-24.593,4.27-36.85,1.344-9.726,2.61-19.453,4.033-29.18H285.33c-.712,5.061-1.107,10.2-1.819,15.262-1.819,12.415-3.637,24.909-4.982,37.483-.474,4.666-.712,9.331-1.186,14-.474,5.377-1.5,10.675-1.9,16.053-1.5,23.249-2.689,46.339-6.01,69.272l-.237,1.344a255.978,255.978,0,0,1-8.382,37.72c-.554,1.582-1.107,3-1.661,4.507-4.27,12.1-9.647,23.8-17.634,34.478a74.975,74.975,0,0,1-24.04,20.956l-1.5.712a74.89,74.89,0,0,1-29.5,8.3,65.232,65.232,0,0,1-6.8.316c-2.926,0-5.694-.791-8.54-1.107A90.742,90.742,0,0,1,144.1,245.5a125.711,125.711,0,0,1-27.756-17.239c-3.005-2.372-6.089-4.666-8.936-7.275a179.018,179.018,0,0,1-27.44-32.817c-7.2-10.992-13.68-22.7-19.769-34.4C42.8,120.791,24.375,88.607,6.582,55.789-4.093,35.941-12.95,15.223-18.723-6.919h-3.716C-16.666,13.72-9.47,33.727.651,52.626,13.541,76.429,26.984,99.915,39.953,123.638Z" transform="translate(413.42 0)" fill="#eeeeef"/></g></svg>