<svg xmlns="http://www.w3.org/2000/svg" width="78" height="78" viewBox="0 0 78 78"><g transform="translate(-131.849 -230.102)"><g transform="translate(131.849 230.102)"><circle cx="39" cy="39" r="39" transform="translate(0 0)" fill="#424244"/></g><g transform="translate(131.849 259.846)" style="mix-blend-mode:multiply;isolation:isolate"><path d="M131.99,273.123c.067.818.152,1.632.269,2.436,0,.026.007.054.011.081q.2,1.352.493,2.672c.012.056.025.113.039.169q.292,1.3.667,2.576v0c.17.045,20.214,19.958,26.78,26.4a38.994,38.994,0,0,0,48.7-45.863l-.015,0c-.068-.308-.124-.622-.2-.927q-5.85,1.77-11.808,2.993l.178.872c-.267.053-.532.115-.8.167q-.617.559-1.245,1.114v0c-2.086-.429-5.451.506-7.478-.605a18.539,18.539,0,0,0-5.86-1.792,4.91,4.91,0,0,0-1.015-.129l-.271-.008-.27-.018q-5.308-.471-10.5-1.372l-.593-.105a2.8,2.8,0,0,0-2.166.52c-1.094.824-2.214,1.631-3.349,2.427-.787-.209-1.6-.417-2.487-.625-1.394-.323-6.1.275-9.392.765-2.135.339-4.091-.066-5.388.507l-.037-.022c.012-.057.024-.116.035-.172-.167-.035-.334-.074-.5-.109-.118-.07-.235-.141-.352-.213.03-.147.059-.295.09-.443-.295-.059-.587-.128-.881-.19l.117-.573q-5.954-1.211-11.807-2.992c-.17.7-.319,1.409-.452,2.124-.018.1-.034.193-.052.289-.109.612-.2,1.23-.282,1.852-.02.159-.042.317-.06.477-.067.576-.117,1.155-.159,1.739-.013.179-.031.356-.041.537-.043.741-.068,1.487-.068,2.239,0,.873.038,1.737.1,2.6C131.957,272.723,131.974,272.923,131.99,273.123Z" transform="translate(-131.849 -260.67)" fill="#b3b3b3"/></g><g transform="translate(131.849 259.846)"><g transform="translate(1.258 1.1)"><path d="M134.88,279.993c1.675-5.657-3.048-12.537-1.372-18.193q5.74,1.7,11.585,2.867.8.493,1.617.976-1.557,8.381-3.116,16.762C138.513,281.459,139.866,281.47,134.88,279.993Z" transform="translate(-133.142 -261.8)" fill="#f2ce9e"/></g><path d="M132.963,260.67a39.028,39.028,0,0,0,.507,20.39q3.688.947,7.411,1.707,1.944-9.551,3.889-19.1Q138.816,262.451,132.963,260.67Z" transform="translate(-131.849 -260.67)" fill="#12a2d9"/><g transform="translate(10.511 3.351)"><path d="M175.638,273.7c-.153-4.565-3.787-7.027-14.27-9.49-1.394-.323-6.1.275-9.392.765-3.3.523-6.178-.743-6.839,2.59q-1.19,6.041-2.381,12.081c-.663,3.321,1.833,3.894,6.59,5.192-.053.151,12.551,3.12,14.592,3.131-.582-.81,3.6-1.751,7.226-4.2C171.682,281.389,174.993,276.066,175.638,273.7Z" transform="translate(-142.651 -264.114)" fill="#f2ce9e"/></g><g transform="translate(63.211 1.1)"><path d="M207.981,279.993c-1.676-5.657,3.671-12.537,2-18.193q-5.9,1.747-11.92,2.933-.617.559-1.245,1.114,1.394,7.5,2.787,14.993.933.636,1.881,1.26C206.024,281.2,203.514,281.315,207.981,279.993Z" transform="translate(-196.811 -261.8)" fill="#e0bf93"/></g><g transform="translate(65.078)"><path d="M210.538,260.67q-5.85,1.77-11.808,2.993,1.946,9.551,3.889,19.1,3.722-.757,7.412-1.707a39.028,39.028,0,0,0,.507-20.39Z" transform="translate(-198.73 -260.67)" fill="#14b0bf"/></g><g transform="translate(34.736 2.577)"><path d="M174.134,276.123c-.081-2.62-4.784-5.6-6.491-8.15-1.166-1.661,8.724-2.74,10.6-4.269,1.157-.812,6.6-.373,10.3,1.582,2.919,1.6,8.619-1.049,9.268,2.253q1.191,6.041,2.381,12.081c-3.548,5.352-28.344,11.335-32.418,8.054C168.538,286.954,175.074,278.477,174.134,276.123Z" transform="translate(-167.547 -263.318)" fill="#ad926e"/></g><g transform="translate(28.164 12.687)"><path d="M165.493,274.514a133.991,133.991,0,0,0,14.094,12.018,1.736,1.736,0,0,1,.148,2.793,2.834,2.834,0,0,1-3.355.208,136.379,136.379,0,0,1-14.816-11.756,2.216,2.216,0,0,1,.052-3.4,2.935,2.935,0,0,1,3.786.052C165.431,274.454,165.466,274.485,165.493,274.514Z" transform="translate(-160.793 -273.709)" fill="#f2ce9e"/></g><g transform="translate(28.82 19.292)"><path d="M172.984,290.88a3.237,3.237,0,0,1-1.722-.46q-4.58-2.8-8.822-5.865a2.081,2.081,0,0,1-.33-3.262,3.042,3.042,0,0,1,3.79-.255q4.2,2.959,8.729,5.664a2.052,2.052,0,0,1,.625,3.221A3.072,3.072,0,0,1,172.984,290.88Z" transform="translate(-161.468 -280.497)" fill="#f2ce9e"/></g><g transform="translate(30.36 23.274)"><path d="M167.6,290.172a2.1,2.1,0,0,1-1.349-.51q-1.392-1.254-2.74-2.531a1.363,1.363,0,0,1,.16-2.171,2.123,2.123,0,0,1,2.6.152q1.35,1.252,2.745,2.481a1.349,1.349,0,0,1-.082,2.175A2.115,2.115,0,0,1,167.6,290.172Z" transform="translate(-163.05 -284.589)" fill="#f2ce9e"/></g><g transform="translate(30.8 22.776)"><path d="M169.421,289.381s-.39-.322-.966-.808-1.3-1.163-2.034-1.834-1.429-1.361-1.966-1.868c-.271-.25-.492-.465-.666-.6a2.6,2.6,0,0,0-.286-.2,2.535,2.535,0,0,1,.314.167,7.26,7.26,0,0,1,.749.536c.594.466,1.33,1.135,2.063,1.808.716.682,1.428,1.369,1.944,1.9S169.421,289.381,169.421,289.381Z" transform="translate(-163.503 -284.077)" fill="#b59a76"/></g><g transform="translate(31.467 25.097)"><path d="M166.018,290.641a2.152,2.152,0,0,1-1.235-.43,1.348,1.348,0,0,1-.082-2.178q.632-.543,1.257-1.09a2.162,2.162,0,0,1,2.628-.071,1.357,1.357,0,0,1,.137,2.175q-.623.559-1.254,1.114A2.1,2.1,0,0,1,166.018,290.641Z" transform="translate(-164.188 -286.462)" fill="#ad926e"/></g><g transform="translate(26.869 23.956)"><path d="M161.7,290.784a2.786,2.786,0,0,1-1.173-.339,1.736,1.736,0,0,1-.668-2.686q.673-.812,1.333-1.633a2.619,2.619,0,0,1,3.2-.514,1.76,1.76,0,0,1,.73,2.664q-.645.836-1.3,1.665A2.5,2.5,0,0,1,161.7,290.784Z" transform="translate(-159.463 -285.29)" fill="#ad926e"/></g><g transform="translate(21.611 22.21)"><path d="M156.43,289.413a3.062,3.062,0,0,1-1.068-.3,1.965,1.965,0,0,1-.956-2.93q.6-.833,1.188-1.672a2.781,2.781,0,0,1,3.435-.712,2,2,0,0,1,1.017,2.9q-.568.855-1.146,1.707A2.661,2.661,0,0,1,156.43,289.413Z" transform="translate(-154.059 -283.495)" fill="#ad926e"/></g><g transform="translate(15.99 20.768)"><path d="M150.767,288.056a3.287,3.287,0,0,1-1.336-.487,2.1,2.1,0,0,1-.6-3.268q.652-.705,1.3-1.418a3.08,3.08,0,0,1,3.82-.385,2.132,2.132,0,0,1,.688,3.244q-.626.73-1.263,1.457A2.951,2.951,0,0,1,150.767,288.056Z" transform="translate(-148.282 -282.013)" fill="#ad926e"/></g><g transform="translate(31.016 8.367)"><path d="M168.929,270.015s1.056.886,2.7,2.179c.817.659,1.784,1.419,2.84,2.221.526.406,1.074.822,1.639,1.265.559.422,1.154.9,1.753,1.383.542.464,1.091.922,1.635,1.373.525.426,1.078.92,1.6,1.354,1.051.889,2,1.711,2.827,2.436s1.5,1.337,1.985,1.78c.5.468.781.733.781.734a2.168,2.168,0,0,1-.312,3.458,3.418,3.418,0,0,1-4.134-.115l-.126-.11-.648-.587c-.441-.39-1.084-.956-1.877-1.621s-1.73-1.455-2.723-2.264c-.511-.407-.981-.816-1.549-1.26-.539-.429-1.083-.866-1.621-1.306-.517-.391-1.025-.786-1.59-1.192-.54-.4-1.09-.8-1.619-1.186-1.071-.771-2.053-1.5-2.884-2.137-1.687-1.253-2.769-2.118-2.771-2.117l-.03-.021a2.682,2.682,0,0,1-.312-4.032,3.3,3.3,0,0,1,4.339-.312Z" transform="translate(-163.724 -269.269)" fill="#957f61"/></g><g transform="translate(29.741 7.152)"><path d="M167.731,268.909s1.044,1.019,2.684,2.51,3.9,3.512,6.274,5.431c.659.525,1.163.992,1.751,1.481.563.464,1.149.989,1.713,1.466,1.128.97,2.142,1.863,3.023,2.652s1.606,1.449,2.119,1.923c.522.5.825.781.825.781a2.168,2.168,0,0,1-.33,3.458,3.44,3.44,0,0,1-4.151-.134l-.108-.1s-.261-.236-.711-.652c-.476-.429-1.169-1.045-2.018-1.775s-1.853-1.589-2.911-2.47c-.538-.44-1.055-.891-1.662-1.374-.58-.461-1.2-1.01-1.745-1.423-2.412-1.872-4.666-3.809-6.375-5.3s-2.792-2.507-2.794-2.5a2.7,2.7,0,0,1,.018-4.039,3.25,3.25,0,0,1,4.315-.011Z" transform="translate(-162.414 -268.02)" fill="#f2ce9e"/></g><g transform="translate(23.365 1.859)"><path d="M179.864,272.187q-5.787-1.533-11.274-3.544,1.343-.232,2.675-.491-3.269,2.023-6.736,3.882l.273-.186q-2.153,1.56-4.406,3.05a3.068,3.068,0,0,1-4.005-.613,2.389,2.389,0,0,1,.513-3.469q2.137-1.554,4.176-3.173l.04-.029.231-.15q3.2-2.09,6.186-4.332a2.765,2.765,0,0,1,1.96-.535l.61.065q5.581.588,11.249.683a4.518,4.518,0,1,1-.257,9.012A5.353,5.353,0,0,1,179.864,272.187Z" transform="translate(-155.862 -262.58)" fill="#957f61"/></g><g transform="translate(23.453 1.079)"><path d="M179.543,272.107q-5.754-1.922-11.145-4.313,1.439-.2,2.871-.434-3.25,2.024-6.7,3.883l.272-.186q-2.141,1.559-4.383,3.051a3.038,3.038,0,0,1-3.983-.611,2.4,2.4,0,0,1,.512-3.469q2.125-1.556,4.154-3.176l.04-.028.23-.151q3.179-2.092,6.151-4.334a2.8,2.8,0,0,1,2.166-.52l.593.105q5.593.976,11.342,1.451a4.63,4.63,0,0,1,4.356,4.8,4.748,4.748,0,0,1-5.282,4.182A5.283,5.283,0,0,1,179.543,272.107Z" transform="translate(-155.951 -261.779)" fill="#ad926e"/></g><g transform="translate(23.763 8.958)"><path d="M157.6,270.1s.735-.392.708-.129a6.173,6.173,0,0,0-1.4,1.595,6.745,6.745,0,0,0-.486,1.035C156.411,272.595,155.665,271.331,157.6,270.1Z" transform="translate(-156.27 -269.876)" fill="#f2e2ce"/></g><g transform="translate(18.32 21.047)"><path d="M150.677,282.812a2.817,2.817,0,0,1,2.6-.331c1.492.546,1.024,2.359,1.022,2.361Q152.467,283.849,150.677,282.812Z" transform="translate(-150.677 -282.301)" fill="#f2e2ce"/></g><g transform="translate(23.506 22.698)"><path d="M156.006,284.566a2.845,2.845,0,0,1,2.606-.422,1.817,1.817,0,0,1,1.132,2.165Q157.855,285.461,156.006,284.566Z" transform="translate(-156.006 -283.997)" fill="#f2e2ce"/></g><g transform="translate(29.036 24.349)"><path d="M161.689,286.227a2.423,2.423,0,0,1,2.2-.434c1.3.37,1.016,1.917,1.014,1.918Q163.28,286.987,161.689,286.227Z" transform="translate(-161.689 -285.694)" fill="#f2e2ce"/></g><g transform="translate(33.253 25.495)"><path d="M166.023,287.343a1.985,1.985,0,0,1,1.8-.4c1.081.277.929,1.656.928,1.657Q167.374,287.981,166.023,287.343Z" transform="translate(-166.023 -286.871)" fill="#f2e2ce"/></g><g transform="translate(37.547 18.287)"><path d="M180.705,287.783s-.685-.493-1.694-1.245-2.3-1.792-3.575-2.841-2.5-2.129-3.416-2.944c-.464-.4-.838-.742-1.122-.962a2.4,2.4,0,0,0-.335-.246l-.127-.08.132.07a2.453,2.453,0,0,1,.359.226c.3.205.716.514,1.2.9.971.766,2.228,1.823,3.5,2.873,1.261,1.059,2.54,2.112,3.491,2.912S180.705,287.783,180.705,287.783Z" transform="translate(-170.436 -279.464)" fill="#b59a76"/></g><g transform="translate(33.631 20.283)"><path d="M175.824,289.275s-.627-.46-1.55-1.163c-.908-.715-2.1-1.677-3.271-2.656s-2.294-1.985-3.131-2.74c-.426-.373-.769-.694-1.031-.9a2.309,2.309,0,0,0-.309-.229l-.119-.075a3.055,3.055,0,0,1,.456.274c.278.191.665.474,1.109.834.9.709,2.053,1.693,3.223,2.67,1.153.992,2.321,1.977,3.186,2.726S175.825,289.275,175.824,289.275Z" transform="translate(-166.412 -281.515)" fill="#b59a76"/></g></g></g></svg>