<svg xmlns="http://www.w3.org/2000/svg" width="697.638" height="639.969" viewBox="0 0 697.638 639.969">
  <g id="Group_289" data-name="Group 289" transform="translate(-1090 -297.535)">
    <g id="Group_288" data-name="Group 288">
      <g id="Group_27" data-name="Group 27" transform="translate(0 -105.323)">
        <g id="Group_25" data-name="Group 25" transform="translate(1192.007 557.403)">
          <path id="Path_50" data-name="Path 50" d="M361.125,490.676a10.707,10.707,0,0,0-9.62,4.066,16.3,16.3,0,0,0-3.487,11.618c4.282,60.158.894,121.764-4.691,181.741-2.495,26.668-5.808,54.735-14.6,75.753a14.071,14.071,0,0,0,.334,11.571c1.763,3.524,4.908,5.681,8.3,5.7h0l164.87,1.175a6.183,6.183,0,0,0,5.139-2.954,9.27,9.27,0,0,0,1.3-6.719c-13.069-68.791-10.2-143.911-4.877-215.053,2.681-35.3,4.17-54.238-17.5-56.724-22.34-2.4-44.68-3.525-66.834-5.831C414.741,494.563,380.933,493.3,361.125,490.676Z" transform="translate(-37.521 -489.661)" fill="#fff" stroke="#5d5e61" stroke-linecap="round" stroke-miterlimit="10" stroke-width="4"/>
          <path id="Path_51" data-name="Path 51" d="M576.362,490.425a5.292,5.292,0,0,1,5.013,1.936,8.125,8.125,0,0,1,1.763,6.013c-5.324,62.918-1.862,127.6,3.984,190.471,2.681,28.862,6.367,59.26,16.867,80.714a8.159,8.159,0,0,1-1.564,9.349,13.534,13.534,0,0,1-9.457,2.891l-165.726,1.174a5.66,5.66,0,0,1-4.712-2.8,8.46,8.46,0,0,1-1.059-6.234c13.218-68.971,10.389-144.31,5.027-215.675-2.643-35.276-4.17-54.2,17.5-56.685,22.34-2.394,44.68-3.523,67.02-5.827C516.491,495.348,558.564,493.858,576.362,490.425Z" transform="translate(-421.282 -490.342)" fill="#fff" stroke="#5d5e61" stroke-miterlimit="10" stroke-width="4"/>
          <line id="Line_1" data-name="Line 1" x1="84.297" y2="112.445" transform="translate(338.014 33.914)" fill="#fff" stroke="#5d5e61" stroke-linecap="round" stroke-miterlimit="10" stroke-width="4"/>
          <line id="Line_2" data-name="Line 2" x2="81.504" y2="126.482" transform="translate(338.014 25.499)" fill="#fff" stroke="#5d5e61" stroke-linecap="round" stroke-miterlimit="10" stroke-width="4"/>
          <line id="Line_3" data-name="Line 3" x1="45.909" y2="61.249" transform="translate(61.066 50.397)" fill="#fff" stroke="#5d5e61" stroke-linecap="round" stroke-miterlimit="10" stroke-width="4"/>
          <line id="Line_4" data-name="Line 4" x2="44.382" y2="68.919" transform="translate(61.066 34.584)" fill="#fff" stroke="#5d5e61" stroke-linecap="round" stroke-miterlimit="10" stroke-width="4"/>
          <path id="Path_52" data-name="Path 52" d="M403.449,539.691a493.73,493.73,0,0,0-57.972.707,5.548,5.548,0,0,0-4.915,4.841l-1.787,15.229a2.344,2.344,0,0,0,.409,2.01,2.6,2.6,0,0,0,1.415.372c8.117.223,16.271-.745,24.351,0,5.027.372,9.978,1.341,14.893,1.9a177.779,177.779,0,0,0,24.8.447,124.52,124.52,0,0,0,34.478-4.245c.224,0-.67-12.585-.67-13.814,0-5.883.223-6.367-5.846-6.553Z" transform="translate(-8.989 -306)" fill="none" stroke="#5d5e61" stroke-linecap="round" stroke-miterlimit="10" stroke-width="4"/>
          <path id="Path_53" data-name="Path 53" d="M498.562,524.59a485.665,485.665,0,0,0-57.972.745,5.474,5.474,0,0,0-4.915,4.84l-1.787,15.191a2.346,2.346,0,0,0,.409,2.011,2.085,2.085,0,0,0,1.415.372c8.117.224,16.271-.745,24.351,0,5.027.372,9.979,1.378,14.893,1.9a172.371,172.371,0,0,0,24.8.447,124.979,124.979,0,0,0,34.516-4.245c.186,0-.67-12.585-.67-13.813,0-5.883.186-6.367-5.882-6.553Z" transform="translate(-397.432 -368.502)" fill="none" stroke="#5d5e61" stroke-linecap="round" stroke-miterlimit="10" stroke-width="4"/>
          <path id="Path_54" data-name="Path 54" d="M469.819,535.921a492.845,492.845,0,0,1,57.935.707,5.473,5.473,0,0,1,4.915,4.84l1.713,15.191a2.122,2.122,0,0,1-.41,2.01,2.047,2.047,0,0,1-1.415.372c-8.117.224-16.234-.707-24.351,0-5.027.372-9.979,1.378-14.893,1.936a183.768,183.768,0,0,1-24.8.447A124.614,124.614,0,0,1,434,557.181c-.186,0,.67-12.622.67-13.814,0-5.92-.224-6.4,5.846-6.553Z" transform="translate(-398.216 -327.564)" fill="none" stroke="#5d5e61" stroke-linecap="round" stroke-miterlimit="10" stroke-width="4"/>
          <path id="Path_55" data-name="Path 55" d="M451.23,529.038s-54.77-2.793-64.6,0" transform="translate(-175.19 -358.467)" fill="none" stroke="#5d5e61" stroke-miterlimit="10" stroke-width="4"/>
          <path id="Path_56" data-name="Path 56" d="M425.977,520.21S402.11,544.077,402.11,549.7s30.9,25.281,30.9,25.281" transform="translate(-214.611 -378.341)" fill="none" stroke="#5d5e61" stroke-miterlimit="10" stroke-width="4"/>
        </g>
        <path id="Path_17" data-name="Path 17" d="M526.831,52.743c-23.659-27.712-60.8-33.387-94.615-31.15-106.19,6.945-202.036,74.279-284.969,150.46-30.021,27.586-59.576,57.3-79.058,95.288-39.667,77.309-27.9,184.415,27.257,248.1,18.766,21.7,41.514,38.287,64.865,53.011,41.526,26.184,86.331,47.2,133.46,53.186,33.607,4.265,67.628.793,101.04-5.158,93.353-16.627,184.985-53.42,261.782-116.33,33.682-27.561,65.43-61.9,79.316-106.547s5.024-101.222-29.4-127.64c-14.225-10.934-31.233-15.859-47.882-20.508-24.494-6.819-49.415-13.547-71.534-27.411-22.842-14.332-49.892-42.035-45.37-73.736C546.577,110.278,550.484,80.4,526.831,52.743Z" transform="translate(1045.239 381.705)" fill="#12a2d9" opacity="0.1"/>
      </g>
      <ellipse id="Ellipse_6" data-name="Ellipse 6" cx="43.319" cy="37.542" rx="43.319" ry="37.542" transform="translate(1090 862.419)" fill="#12a2d9" opacity="0.1"/>
      <ellipse id="Ellipse_7" data-name="Ellipse 7" cx="19.819" cy="17.542" rx="19.819" ry="17.542" transform="translate(1694 393.419)" fill="#12a2d9" opacity="0.1"/>
    </g>
    <ellipse id="Ellipse_36" data-name="Ellipse 36" cx="46.819" cy="41.542" rx="46.819" ry="41.542" transform="translate(1694 483.419)" fill="#eeeeef" opacity="0.476"/>
  </g>
</svg>
