<svg xmlns="http://www.w3.org/2000/svg" width="78" height="77.999" viewBox="0 0 78 77.999"><g transform="translate(-30.75 -335.373)"><g transform="translate(30.75 335.373)"><path d="M108.75,374.373a39,39,0,1,1-39-39A39,39,0,0,1,108.75,374.373Z" transform="translate(-30.75 -335.373)" fill="#64b66e"/></g><g transform="translate(39.603 351.895)" style="mix-blend-mode:multiply;isolation:isolate"><path d="M107.183,386.6c-4.352-4.417-11.383-11.458-11.519-11.542l-3.085-1.911a.924.924,0,0,0-1.273.3l-.872,1.409-.486-.117c-.127-.031-.258-.052-.386-.078a.9.9,0,0,0-.329-.189l-.14-.14,0,0-.018-.018a.905.905,0,0,0-.6-.6l-.139-.14-.02-.02a.9.9,0,0,0-.6-.6l-.162-.162a.907.907,0,0,0-.6-.6l-11.9-11.894-1.981-1.982,0,0-1.524-1.525-.763-.763a1.428,1.428,0,0,0-2.019,0l-1.292,1.292a1.409,1.409,0,0,0-.4-.266,34.558,34.558,0,0,0-3.816-3.816,1.431,1.431,0,0,0-1.316-.875H56.322a1.427,1.427,0,0,0-1.425,1.425v2.558l-.731.24a15.687,15.687,0,0,0-2.174.9l-.687.347-1.811-1.81a1.426,1.426,0,0,0-2.018,0l-3.964,3.962a1.432,1.432,0,0,0,0,2.02l.763.763.764.763.283.283-.347.688a15.616,15.616,0,0,0-.9,2.174l-.242.73H41.275a1.429,1.429,0,0,0-1.427,1.427v5.6a1.429,1.429,0,0,0,.875,1.316c.144.344,3.972,4.1,4.081,4.222l-1.291,1.291a1.432,1.432,0,0,0,0,2.02l1.527,1.526,1.526,1.526h0l27.3,27.3A39.027,39.027,0,0,0,107.183,386.6Z" transform="translate(-39.848 -352.353)" fill="#b3b3b3"/></g><g transform="translate(39.603 351.895)"><path d="M76.977,367.4H74.421l-.241-.73a15.634,15.634,0,0,0-.9-2.174l-.347-.688L74.739,362a1.428,1.428,0,0,0,0-2.018l-3.962-3.962a1.428,1.428,0,0,0-2.019,0l-1.811,1.811-.688-.347a15.577,15.577,0,0,0-2.173-.9l-.731-.24v-2.558a1.428,1.428,0,0,0-1.426-1.425H56.322a1.427,1.427,0,0,0-1.425,1.425v2.558l-.731.24a15.687,15.687,0,0,0-2.174.9l-.687.347-1.811-1.81a1.426,1.426,0,0,0-2.018,0l-3.964,3.962a1.432,1.432,0,0,0,0,2.02l1.81,1.809-.347.688a15.616,15.616,0,0,0-.9,2.174l-.242.73H41.275a1.429,1.429,0,0,0-1.427,1.427v5.6a1.429,1.429,0,0,0,1.427,1.427h2.555l.242.73a15.664,15.664,0,0,0,.9,2.174l.347.689-1.81,1.809a1.432,1.432,0,0,0,0,2.02l3.962,3.962a1.428,1.428,0,0,0,2.02,0l1.811-1.811.688.347a16,16,0,0,0,2.174.9l.73.24v2.557a1.427,1.427,0,0,0,1.425,1.425h5.607a1.428,1.428,0,0,0,1.426-1.425v-2.557l.73-.24a15.9,15.9,0,0,0,2.173-.9l.688-.347,1.813,1.811a1.426,1.426,0,0,0,2.018,0l3.962-3.961a1.431,1.431,0,0,0,0-2.019l-1.811-1.812.347-.688a15.684,15.684,0,0,0,.9-2.174l.241-.73h2.556a1.43,1.43,0,0,0,1.427-1.427v-5.6A1.43,1.43,0,0,0,76.977,367.4ZM59.126,383.236A11.606,11.606,0,1,1,70.731,371.63,11.619,11.619,0,0,1,59.126,383.236Z" transform="translate(-39.848 -352.353)" fill="#f6b900"/><g transform="translate(35.113 19.774)"><path d="M99.149,379.951l-1.611.379-.26-.424a10.042,10.042,0,0,0-.893-1.236l-.321-.383.874-1.41a.92.92,0,0,0-.3-1.27L93.552,373.7a.924.924,0,0,0-1.273.3l-.872,1.409-.486-.117a10.134,10.134,0,0,0-1.5-.247l-.5-.042-.379-1.613a.924.924,0,0,0-1.11-.686l-1.767.415-1.767.416a.923.923,0,0,0-.686,1.11l.379,1.612-.426.259a10.017,10.017,0,0,0-1.235.893l-.381.32-1.41-.873a.922.922,0,0,0-.7-.113.911.911,0,0,0-.575.413l-1.911,3.085a.928.928,0,0,0,.3,1.273l1.409.872-.117.485a10.229,10.229,0,0,0-.247,1.5l-.044.5-1.61.379a.925.925,0,0,0-.688,1.11l.831,3.532a.925.925,0,0,0,1.111.688l1.611-.379.261.424a10.128,10.128,0,0,0,.89,1.238l.321.381-.871,1.408a.927.927,0,0,0,.3,1.274l3.085,1.908a.924.924,0,0,0,1.273-.3l.872-1.409.485.118a10.538,10.538,0,0,0,1.5.247l.5.043.379,1.612a.925.925,0,0,0,1.111.686l1.767-.415L93.152,397a.925.925,0,0,0,.686-1.111l-.379-1.611.426-.261a10.113,10.113,0,0,0,1.234-.891l.382-.322,1.411.873a.921.921,0,0,0,1.272-.3l1.91-3.084a.926.926,0,0,0-.3-1.273l-1.41-.873.117-.486a10.2,10.2,0,0,0,.248-1.5l.044-.5,1.609-.379a.926.926,0,0,0,.689-1.112l-.831-3.533A.927.927,0,0,0,99.149,379.951Zm-8.711,13.441a8.349,8.349,0,1,1,6.214-10.041A8.357,8.357,0,0,1,90.438,393.393Z" transform="translate(-75.935 -372.675)" fill="#fff"/><g transform="translate(7.084 7.084)"><path d="M88.726,379.956a5.506,5.506,0,0,0-.01,11.012,5.44,5.44,0,0,0,1.266-.148,5.505,5.505,0,0,0-1.256-10.864Z" transform="translate(-83.215 -379.956)" fill="#fff"/></g></g><g transform="translate(13.291 13.291)"><path d="M65.481,372a5.987,5.987,0,1,1-5.987-5.987A5.987,5.987,0,0,1,65.481,372Z" transform="translate(-53.507 -366.012)" fill="#f6b900"/></g></g></g></svg>