<svg xmlns="http://www.w3.org/2000/svg" width="187.287" height="26.767" viewBox="0 0 187.287 26.767"><path d="M8,444.694c0-4.684,4.254-7.79,11.376-7.84a30.729,30.729,0,0,1,4.812.38l.159-.812c.512-3.152-1.23-4.627-4.663-4.627a21.784,21.784,0,0,0-6.713,1.142l-.308-5.164a25.292,25.292,0,0,1,8.148-1.433c7.585,0,11.633,3.632,10.2,10.994l-2.358,12.474a25.327,25.327,0,0,1-10.352,2.1C11.894,451.911,8,448.948,8,444.694Zm15.375-3.3a19.141,19.141,0,0,0-3.742-.381c-2.973,0-4.663,1.332-4.663,3.251,0,1.816,1.589,2.916,4.151,2.916a8.243,8.243,0,0,0,3.279-.67Z" transform="translate(-8 -426.338)" fill="#5d5e61"/><path d="M159.264,433.015a12.724,12.724,0,0,0-5.28-1.2c-4.663,0-7.686,3.729-7.686,8.755,0,4.254,2.613,5.927,6.2,5.927a14.34,14.34,0,0,0,5.329-1.243l.154,5.306a18.636,18.636,0,0,1-7.33,1.386c-7.328,0-11.633-4.444-11.633-10.659,0-8.986,6.091-14.913,15.375-14.913a17.105,17.105,0,0,1,7.122,1.433Z" transform="translate(-114.083 -426.37)" fill="#5d5e61"/><path d="M270.712,433.015a12.716,12.716,0,0,0-5.278-1.2c-4.663,0-7.687,3.729-7.687,8.755,0,4.254,2.613,5.927,6.2,5.927a14.332,14.332,0,0,0,5.329-1.243l.154,5.306a18.633,18.633,0,0,1-7.328,1.386c-7.33,0-11.633-4.444-11.633-10.659,0-8.986,6.091-14.913,15.373-14.913a17.122,17.122,0,0,1,7.124,1.433Z" transform="translate(-204.32 -426.37)" fill="#5d5e61"/><path d="M385.485,440.822H369.238c.206,4.014,2.564,5.544,6.816,5.544A26,26,0,0,0,384.2,444.9l-2.623,6.2c-2.307.91-3.93.816-7.21.816-7.423,0-12.453-4.111-12.453-10.994a14.418,14.418,0,0,1,14.555-14.578c5.841,0,10.147,3.632,10.147,8.841A19.1,19.1,0,0,1,385.485,440.822Zm-5.535-5.689c0-2.1-1.487-3.536-3.9-3.536-2.971,0-5.329,2.056-6.3,5.209h9.941A6.284,6.284,0,0,0,379.95,435.133Z" transform="translate(-294.55 -426.338)" fill="#5d5e61"/><path d="M501.513,431.787c-2.562,0-3.536.862-3.536,2.008,0,3.3,11.23,2.581,11.173,9.751-.051,5.067-4.458,8.375-11.53,8.375a29.168,29.168,0,0,1-9.789-1.578l1.947-5.423a21.048,21.048,0,0,0,7.533,1.523c3.331,0,4.817-.761,4.817-2.094,0-3.154-11.23-2.438-11.23-10.229,0-4.4,3.843-7.79,10.813-7.79a26.85,26.85,0,0,1,8.917,1.386l-1.793,5.354A25.386,25.386,0,0,0,501.513,431.787Z" transform="translate(-396.503 -426.33)" fill="#5d5e61"/><path d="M613.793,431.787c-2.562,0-3.536.862-3.536,2.008,0,3.3,11.23,2.581,11.173,9.751-.051,5.067-4.458,8.375-11.53,8.375a29.167,29.167,0,0,1-9.789-1.578l1.943-5.423a21.049,21.049,0,0,0,7.533,1.523c3.333,0,4.817-.761,4.817-2.094,0-3.154-11.23-2.438-11.23-10.229,0-4.4,3.843-7.79,10.813-7.79a26.851,26.851,0,0,1,8.917,1.386l-1.793,5.354A25.427,25.427,0,0,0,613.793,431.787Z" transform="translate(-487.412 -426.33)" fill="#5d5e61"/><path d="M919.462,443.766l-3.8-3.8L906.6,430.9l-4.185,4.185,9.067,9.067h0L902.631,453l3.8,3.8,8.845-8.845h0Z" transform="translate(-732.175 -430.03)" fill="#5d5e61"/><path d="M841.3,443.766l-3.8-3.8-9.067-9.067-4.185,4.185,9.067,9.067h0L824.471,453l3.8,3.8,8.845-8.845h0Z" transform="translate(-668.891 -430.03)" fill="#5d5e61"/><path d="M763.142,443.766l-3.8-3.8-9.067-9.067-4.185,4.185,9.067,9.067h0L746.311,453l3.8,3.8,8.845-8.845h0Z" transform="translate(-605.608 -430.03)" fill="#5d5e61"/></svg>