<svg xmlns="http://www.w3.org/2000/svg" width="29.248" height="29.248" viewBox="0 0 29.248 29.248"><path d="M547.008,202.947a14.624,14.624,0,1,0,14.624,14.624A14.641,14.641,0,0,0,547.008,202.947Zm8.469,9.3a.411.411,0,0,1-.084.272,6.766,6.766,0,0,1-1.357,1.418c-.078.058-.208.119-.208.229a10.513,10.513,0,0,1-2.773,7.67,10.32,10.32,0,0,1-10.019,2.343,9.576,9.576,0,0,1-1.938-.775c-.2-.111-.406-.227-.6-.358-.05-.04-.088-.078-.045-.1s.075-.023.231,0a6.838,6.838,0,0,0,2.9-.371,4.428,4.428,0,0,0,1.908-1.012c.008-.011.015-.011.023-.022-.127-.03-.253-.03-.38-.052a3.741,3.741,0,0,1-2.794-2.34c-.037-.093,0-.142.1-.123a4.014,4.014,0,0,0,1.33-.041,2.087,2.087,0,0,1-.451-.138,3.6,3.6,0,0,1-2.221-2.873,2.181,2.181,0,0,1-.023-.4c.007-.093.049-.123.131-.071a3.57,3.57,0,0,0,1.356.38c-.153-.119-.294-.249-.432-.38a3.563,3.563,0,0,1-.608-4.211c.068-.1.112-.1.194-.008a10.922,10.922,0,0,0,7.028,3.577c.074.011.081,0,.07-.082a3.774,3.774,0,0,1,.037-1.469,3.582,3.582,0,0,1,.694-1.391,3.722,3.722,0,0,1,1.163-.95,3.631,3.631,0,0,1,1.441-.407,3.451,3.451,0,0,1,1.52.245,3.619,3.619,0,0,1,.991.607,1.655,1.655,0,0,1,.179.183.136.136,0,0,0,.141.038,8.784,8.784,0,0,0,2.045-.783.1.1,0,0,1,.091-.007c.03.023.019.06,0,.09a3.166,3.166,0,0,1-.573,1.044c-.163.2-.572.705-.85.752a6.993,6.993,0,0,0,1.722-.492c.07-.031.064-.045.064,0Z" transform="translate(-532.384 -202.947)" fill="#12a2d9"/></svg>