<svg xmlns="http://www.w3.org/2000/svg" width="29.248" height="29.248" viewBox="0 0 29.248 29.248"><path d="M628.544,202.947a14.624,14.624,0,1,0,14.624,14.624A14.641,14.641,0,0,0,628.544,202.947Zm4.057,8.674a.221.221,0,0,1-.221.221h-1.759a.781.781,0,0,0-.781.782v1.841h2.5a.221.221,0,0,1,.22.24l-.22,2.6a.221.221,0,0,1-.22.2H629.84v8.614a.221.221,0,0,1-.221.221h-3.147a.221.221,0,0,1-.221-.221V217.5h-1.574a.22.22,0,0,1-.221-.221v-2.6a.221.221,0,0,1,.221-.221h1.574v-2.5a3.157,3.157,0,0,1,3.158-3.158h2.972a.221.221,0,0,1,.221.221Z" transform="translate(-613.92 -202.947)" fill="#12a2d9"/></svg>