<svg xmlns="http://www.w3.org/2000/svg" width="29.199" height="29.198" viewBox="0 0 29.199 29.198"><path d="M643.95,292.168v-.032c-.007.011-.016.022-.022.032Z" transform="translate(-627.874 -279.254)" fill="#12a2d9"/><path d="M628.566,268.094a14.6,14.6,0,1,0,14.6,14.6A14.616,14.616,0,0,0,628.566,268.094Zm-3.651,21.162a.244.244,0,0,1-.244.244h-2.813a.244.244,0,0,1-.244-.244v-9.443a.244.244,0,0,1,.244-.244h2.813a.244.244,0,0,1,.244.244Zm-1.749-10.95a1.767,1.767,0,1,1,1.768-1.768A1.768,1.768,0,0,1,623.165,278.306Zm13.654,10.95a.243.243,0,0,1-.244.244h-2.814a.244.244,0,0,1-.244-.244v-5.069c0-1.334-.477-2.245-1.672-2.245a1.807,1.807,0,0,0-1.694,1.207,2.263,2.263,0,0,0-.109.8v5.3a.244.244,0,0,1-.244.244h-2.813a.243.243,0,0,1-.244-.244c.006-1.35.035-7.9.006-9.44a.243.243,0,0,1,.244-.247H629.8a.244.244,0,0,1,.244.244v1.164a3.279,3.279,0,0,1,2.976-1.641c2.172,0,3.8,1.419,3.8,4.469Z" transform="translate(-613.966 -268.094)" fill="#12a2d9"/></svg>