<svg xmlns="http://www.w3.org/2000/svg" width="1921.003" height="341.796" viewBox="0 0 1921.003 341.796"><path d="M2155,341.8H234V.35c38.169,13.373,77.057,26.119,115.586,37.883,38.687,11.812,78.042,22.949,116.974,33.1,39.155,10.211,78.957,19.711,118.3,28.236,39.568,8.575,79.794,16.41,119.56,23.288,39.98,6.914,80.609,13.057,120.757,18.257,40.331,5.224,81.342,9.646,121.892,13.144,40.749,3.513,82.119,6.186,122.964,7.946,41.074,1.771,82.784,2.669,123.971,2.669,41.248,0,83-.9,124.11-2.674,40.909-1.765,82.324-4.443,123.1-7.962,40.588-3.5,81.641-7.935,122.02-13.171,40.21-5.213,80.881-11.369,120.881-18.295,39.835-6.9,80.1-14.75,119.681-23.337,39.41-8.55,79.251-18.07,118.418-28.3,39.009-10.186,78.4-21.346,117.092-33.171C2077.85,26.182,2116.778,13.408,2155,0V341.795Z" transform="translate(-234)" fill="#12a2d9"/></svg>