<svg xmlns="http://www.w3.org/2000/svg" width="175.783" height="60.154" viewBox="0 0 175.783 60.154"><path d="M111.684,356q-2.248-2.255-4.5-4.507-4.809-4.8-9.619-9.589a.891.891,0,0,1-.3-.695q.011-6.482,0-12.962c0-.071.014-.143.023-.251.248.059.356.248.493.385q8.123,8.119,16.236,16.243l10.887,10.9c.142.144.34.249.372.481Z" transform="translate(-81.11 -328)" fill="#5d5e61"/><path d="M139.079,485.21h13.6c-.03.208-.208.306-.338.435q-10.645,10.656-21.3,21.3c-.13.128-.226.312-.44.337V493.708Q134.834,489.458,139.079,485.21Z" transform="translate(-108.505 -457.206)" fill="#5d5e61"/><path d="M28.646,493.7v13.582c-.219-.011-.314-.2-.444-.324Q17.515,496.271,6.843,485.6c-.114-.112-.285-.194-.283-.4l13.6.009q2.537,2.544,5.073,5.091Q26.945,492,28.646,493.7Z" transform="translate(-6.56 -457.198)" fill="#5d5e61"/><path d="M20.217,448.373,6.61,448.364c0-.194.178-.283.287-.4l7.207-7.252a.953.953,0,0,1,.741-.322q6.19.012,12.382,0a.44.44,0,0,1,.356.075,1.247,1.247,0,0,1-.4.5q-3.372,3.571-6.753,7.138A3.357,3.357,0,0,0,20.217,448.373Z" transform="translate(-6.601 -420.363)" fill="#5d5e61"/><path d="M316.467,461a10.27,10.27,0,0,1,7.435,2.718,10.4,10.4,0,0,1,0,14.25,10.28,10.28,0,0,1-7.435,2.718H309.06V461Zm-.167,15.483a5.762,5.762,0,0,0,4.206-1.543,6.1,6.1,0,0,0,0-8.194A5.761,5.761,0,0,0,316.3,465.2h-2.618v11.283Z" transform="translate(-255.176 -437.309)" fill="#5d5e61"/><path d="M426.625,450.028a2.672,2.672,0,0,1,.741,1.881,2.545,2.545,0,0,1-.741,1.865,2.494,2.494,0,0,1-1.86.75,2.456,2.456,0,0,1-1.844-.75,2.57,2.57,0,0,1-.727-1.865,2.672,2.672,0,0,1,.727-1.9,2.408,2.408,0,0,1,1.844-.778A2.435,2.435,0,0,1,426.625,450.028Zm-4.1,20.978V456.257H427v14.749Z" transform="translate(-348.158 -427.639)" fill="#5d5e61"/><path d="M479.151,501.379h-4.473V500.2a6.083,6.083,0,0,1-4.361,1.616,6.328,6.328,0,0,1-4.849-2.187,8.9,8.9,0,0,1,0-11.238,6.316,6.316,0,0,1,4.849-2.2,6.083,6.083,0,0,1,4.361,1.616V486.63h4.473Zm-5.494-4.631a4.187,4.187,0,0,0,0-5.479,3.206,3.206,0,0,0-2.417-1.087,3.1,3.1,0,0,0-2.431,1.069,4.462,4.462,0,0,0,0,5.508,3.122,3.122,0,0,0,2.431,1.058,3.22,3.22,0,0,0,2.417-1.065Z" transform="translate(-382.081 -458.012)" fill="#5d5e61"/><path d="M591.7,487.843a6.09,6.09,0,0,1,1.537,4.305v9.225h-4.453v-8.226a2.863,2.863,0,0,0-.672-1.984,2.159,2.159,0,0,0-1.676-.748,2.392,2.392,0,0,0-2,.955,4.473,4.473,0,0,0-.741,2.775v7.228h-4.464v-8.226a2.868,2.868,0,0,0-.67-1.984,2.189,2.189,0,0,0-1.706-.748,2.316,2.316,0,0,0-1.97.955,4.59,4.59,0,0,0-.713,2.775v7.228H569.7V486.625h4.473v1.352a5.171,5.171,0,0,1,4.136-1.792,4.96,4.96,0,0,1,4.585,2.494,5.825,5.825,0,0,1,4.975-2.494A5.005,5.005,0,0,1,591.7,487.843Z" transform="translate(-469.389 -458.007)" fill="#5d5e61"/><path d="M726.992,488.685a8.124,8.124,0,0,1,0,11.194,7.542,7.542,0,0,1-5.451,2.175,7.646,7.646,0,0,1-5.522-2.175,8.086,8.086,0,0,1,0-11.194,7.651,7.651,0,0,1,5.522-2.175A7.531,7.531,0,0,1,726.992,488.685Zm-3.074,8.329a4.229,4.229,0,0,0-.014-5.493,3.166,3.166,0,0,0-2.362-1.069,3.267,3.267,0,0,0-2.432,1.069,4.184,4.184,0,0,0-.014,5.493,3.254,3.254,0,0,0,2.446,1.069,3.151,3.151,0,0,0,2.373-1.069Z" transform="translate(-587.796 -458.275)" fill="#5d5e61"/><path d="M826.286,487.854a6.483,6.483,0,0,1,1.495,4.453v9.049h-4.437V493.3a3.188,3.188,0,0,0-.67-2.1,2.152,2.152,0,0,0-1.733-.807,2.529,2.529,0,0,0-2.138,1.014,5.118,5.118,0,0,0-.77,3.094v6.846H813.56V486.6h4.473v1.411a5.536,5.536,0,0,1,4.3-1.851A5.019,5.019,0,0,1,826.286,487.854Z" transform="translate(-669.81 -457.987)" fill="#5d5e61"/><path d="M921.041,473.855H916.57v-1.176a6.091,6.091,0,0,1-4.361,1.616,6.333,6.333,0,0,1-4.851-2.187,8.9,8.9,0,0,1,0-11.238,6.318,6.318,0,0,1,4.851-2.2,6.087,6.087,0,0,1,4.361,1.616V452.7h4.471Zm-5.492-4.631a4.187,4.187,0,0,0,0-5.479,3.206,3.206,0,0,0-2.419-1.087,3.1,3.1,0,0,0-2.432,1.069,4.469,4.469,0,0,0,0,5.508,3.123,3.123,0,0,0,2.435,1.065,3.224,3.224,0,0,0,2.415-1.072Z" transform="translate(-745.258 -430.487)" fill="#5d5e61"/><path d="M625.005,609.813l-3.445-6.343H623.7l1.619,3.206c.085.178.166.342.239.517s.139.331.2.472.1.255.135.346.054.132.057.127h.036c.057-.155.119-.315.178-.479s.125-.3.2-.469.159-.344.244-.513l1.6-3.206h2.138l-3.443,6.343v4.557h-1.894Z" transform="translate(-512.011 -554.401)" fill="#5d5e61"/><path d="M666.669,623.8a4.185,4.185,0,0,1,.321-1.653,3.908,3.908,0,0,1,2.171-2.138,4.361,4.361,0,0,1,3.194,0,3.919,3.919,0,0,1,2.178,2.138,4.4,4.4,0,0,1,0,3.306,3.919,3.919,0,0,1-2.172,2.137,4.362,4.362,0,0,1-3.194,0,3.993,3.993,0,0,1-1.3-.848,3.952,3.952,0,0,1-.877-1.3,4.178,4.178,0,0,1-.321-1.646Zm1.881,0a2.708,2.708,0,0,0,.178,1,2.29,2.29,0,0,0,.477.768,2.137,2.137,0,0,0,1.566.672,2.076,2.076,0,0,0,.848-.178,2.147,2.147,0,0,0,.7-.5,2.313,2.313,0,0,0,.479-.768,2.748,2.748,0,0,0,.178-1,2.717,2.717,0,0,0-.178-.989,2.356,2.356,0,0,0-.479-.771,2.174,2.174,0,0,0-.7-.5,2.027,2.027,0,0,0-.848-.178,2.072,2.072,0,0,0-.86.178,2.143,2.143,0,0,0-.713.5,2.31,2.31,0,0,0-.477.771A2.677,2.677,0,0,0,668.55,623.8Z" transform="translate(-549.084 -567.748)" fill="#5d5e61"/><path d="M718.006,620.73h1.853v4.631a4.05,4.05,0,0,0,.05.654,1.349,1.349,0,0,0,.178.5.89.89,0,0,0,.356.326,1.215,1.215,0,0,0,.566.118,1.807,1.807,0,0,0,.891-.217,2.017,2.017,0,0,0,.657-.581,2.74,2.74,0,0,0,.4-.841,3.552,3.552,0,0,0,.139-1V620.73h1.854v7.825h-1.781v-1.1a.932.932,0,0,1,.011-.178c.011-.053.009-.11.014-.166h-.028a2.589,2.589,0,0,1-.378.6,2.945,2.945,0,0,1-.573.524,2.872,2.872,0,0,1-.743.37,2.741,2.741,0,0,1-.891.139,3.331,3.331,0,0,1-1.078-.164,2,2,0,0,1-.816-.526,2.342,2.342,0,0,1-.517-.926,4.556,4.556,0,0,1-.178-1.368Z" transform="translate(-591.267 -568.586)" fill="#5d5e61"/><path d="M766.16,620.237h1.781V621.8a.959.959,0,0,1-.011.178c-.011.055-.009.11-.014.164h.028a3.4,3.4,0,0,1,.356-.786,2.807,2.807,0,0,1,.535-.638,2.423,2.423,0,0,1,.682-.428,2.072,2.072,0,0,1,.805-.157h.125a.915.915,0,0,1,.11.011l.1.014v1.911l-.128-.016c-.037,0-.082-.009-.135-.011h-.178a1.976,1.976,0,0,0-.6.094,1.917,1.917,0,0,0-.577.292,2.195,2.195,0,0,0-.5.509,2.438,2.438,0,0,0-.356.746,3.885,3.885,0,0,0-.125.609,5.325,5.325,0,0,0-.039.664v3.1H766.16Z" transform="translate(-630.854 -568.093)" fill="#5d5e61"/><path d="M815.21,603.469h3.716a4.181,4.181,0,0,1,1.288.189,2.908,2.908,0,0,1,1.012.543,2.427,2.427,0,0,1,.661.88,2.91,2.91,0,0,1,.235,1.2,2.859,2.859,0,0,1-.331,1.38,2.353,2.353,0,0,1-.924.951v.03a2.187,2.187,0,0,1,.743.4,2.494,2.494,0,0,1,.524.6,2.559,2.559,0,0,1,.31.746,3.416,3.416,0,0,1,.1.816,3.2,3.2,0,0,1-.288,1.412,2.794,2.794,0,0,1-.78.987,3.288,3.288,0,0,1-1.142.577,4.894,4.894,0,0,1-1.363.178H815.21Zm3.716,4.453a1.3,1.3,0,0,0,.547-.109,1.2,1.2,0,0,0,.4-.3,1.287,1.287,0,0,0,.249-.447,1.732,1.732,0,0,0,.085-.551,1.7,1.7,0,0,0-.082-.534,1.193,1.193,0,0,0-.249-.427,1.174,1.174,0,0,0-.413-.281,1.539,1.539,0,0,0-.575-.1h-1.781v2.75Zm.178,4.745a1.674,1.674,0,0,0,.643-.116,1.34,1.34,0,0,0,.47-.326,1.41,1.41,0,0,0,.292-.5,1.98,1.98,0,0,0,.1-.638,1.829,1.829,0,0,0-.1-.625,1.449,1.449,0,0,0-.3-.5,1.3,1.3,0,0,0-.47-.326,1.617,1.617,0,0,0-.636-.117h-2v3.149Z" transform="translate(-671.166 -554.4)" fill="#5d5e61"/><path d="M860.314,625.435a2.157,2.157,0,0,1,.242-1.069,2.327,2.327,0,0,1,.631-.734,3.114,3.114,0,0,1,.878-.465,6.742,6.742,0,0,1,.98-.26,7.65,7.65,0,0,1,.935-.112q.442-.021.748-.021h.249v-.112a1.739,1.739,0,0,0-.107-.648,1.049,1.049,0,0,0-.3-.427,1.177,1.177,0,0,0-.456-.233,2.249,2.249,0,0,0-.572-.071,2.522,2.522,0,0,0-.773.118,4.277,4.277,0,0,0-.652.258,4.068,4.068,0,0,0-.622.374l-.705-1.388a4.613,4.613,0,0,1,.8-.479,6.392,6.392,0,0,1,.917-.333,4.3,4.3,0,0,1,1.2-.153,3.9,3.9,0,0,1,1.313.2,2.551,2.551,0,0,1,.974.607,2.67,2.67,0,0,1,.606.981,3.865,3.865,0,0,1,.21,1.324v4.895H865.1v-.866a.91.91,0,0,1,.011-.178,1.236,1.236,0,0,0,.014-.164H865.1l-.043.1a1.976,1.976,0,0,1-.16.264,2.4,2.4,0,0,1-.289.333,2.559,2.559,0,0,1-.428.333,2.331,2.331,0,0,1-.586.258,2.588,2.588,0,0,1-.755.1,2.889,2.889,0,0,1-.958-.16,2.392,2.392,0,0,1-.81-.472,2.243,2.243,0,0,1-.556-.77A2.515,2.515,0,0,1,860.314,625.435Zm1.869-.089a1.016,1.016,0,0,0,.071.378.89.89,0,0,0,.21.323,1.072,1.072,0,0,0,.356.226,1.318,1.318,0,0,0,.5.085,1.285,1.285,0,0,0,.675-.178,1.855,1.855,0,0,0,.534-.488,2.4,2.4,0,0,0,.356-.663,2.206,2.206,0,0,0,.125-.723v-.178h-.32c-.162,0-.335,0-.517.014a5.439,5.439,0,0,0-.554.06,3.9,3.9,0,0,0-.534.126,1.65,1.65,0,0,0-.453.223,1.1,1.1,0,0,0-.313.333.891.891,0,0,0-.132.46Z" transform="translate(-708.235 -567.721)" fill="#5d5e61"/><path d="M905.26,619.824h1.781v1.1a.943.943,0,0,1-.011.178c-.011.057-.009.109-.014.159h.029a3.257,3.257,0,0,1,.338-.534,2.789,2.789,0,0,1,.534-.534,2.985,2.985,0,0,1,.764-.4,2.907,2.907,0,0,1,1-.16,3.246,3.246,0,0,1,1.1.178,1.986,1.986,0,0,1,.809.534,2.428,2.428,0,0,1,.5.93,4.615,4.615,0,0,1,.178,1.334v5.037h-1.842v-4.631a4.047,4.047,0,0,0-.052-.645,1.4,1.4,0,0,0-.178-.5.921.921,0,0,0-.356-.326,1.329,1.329,0,0,0-.59-.116,2.034,2.034,0,0,0-.691.116,1.9,1.9,0,0,0-.574.33,2.2,2.2,0,0,0-.44.508,2.634,2.634,0,0,0-.292.643,2.563,2.563,0,0,0-.107.5,4.917,4.917,0,0,0-.028.534v3.591H905.26Z" transform="translate(-745.176 -567.68)" fill="#5d5e61"/><path d="M953.13,603.47h1.854V609.3h.919l1.8-2.757h2.061l-2.353,3.493v.037l2.645,4.295h-2.138l-1.959-3.425h-.969v3.425H953.13Z" transform="translate(-784.519 -554.401)" fill="#5d5e61"/></svg>