<svg xmlns="http://www.w3.org/2000/svg" width="24.543" height="24.543" viewBox="0 0 24.543 24.543"><g transform="translate(-7.9 -7.9)"><g transform="translate(7.9 7.9)"><g transform="translate(0 0)"><path d="M7.9,20.172A12.272,12.272,0,1,1,20.172,32.443,12.273,12.273,0,0,1,7.9,20.172Z" transform="translate(-7.9 -7.9)" fill="#5d5e61"/></g></g><g transform="translate(13.331 12.901)"><path d="M130.293,289.885v2.186H119.154V289.9a.728.728,0,0,0-1.454-.01v2.908a.673.673,0,0,0,.173.47.657.657,0,0,0,.549.262h12.593a.673.673,0,0,0,.47-.173.657.657,0,0,0,.262-.549V289.9A.728.728,0,0,0,130.293,289.885Z" transform="translate(-117.7 -280.275)" fill="#fff"/><path d="M186.406,113.7h-2.394v-3.626a1.091,1.091,0,0,0-2.181-.015v3.64h-2.3a.1.1,0,0,0-.04,0,.338.338,0,0,0-.292.218.335.335,0,0,0,.045.371.32.32,0,0,0,.04.045l3.428,3.428a.366.366,0,0,0,.514,0q1.721-1.721,3.438-3.438A.372.372,0,0,0,186.406,113.7Z" transform="translate(-176.123 -109.012)" fill="#fff"/></g></g></svg>