<svg xmlns="http://www.w3.org/2000/svg" width="217.328" height="48.769" viewBox="0 0 217.328 48.769"><g transform="translate(-343.583 -54.915)"><text transform="translate(433.533 100.684)" fill="#5d5e61" font-size="13" font-family="DINPro-Medium, DIN Pro" font-weight="500"><tspan x="0" y="0">a fulfillment company</tspan></text><g transform="translate(343.582 54.915)"><g transform="translate(0 0.924)"><path d="M348.878,77.957a1.6,1.6,0,0,1-1.348-.738l-3.673-5.581a1.6,1.6,0,0,1,.341-2.153l9.4-7.5-1.587-2.414a2.454,2.454,0,0,1,2.054-3.8l16.256-.014a2.454,2.454,0,0,1,2.255,3.432l-6.437,14.926a2.457,2.457,0,0,1-4.309.379l-1.585-2.409-2.289,1.227a.777.777,0,0,1-1.017-.257l-1.97-2.993a.9.9,0,0,0-1.583.137l-3.008,6.978a.775.775,0,0,1-.352.381l-.389.2A1.6,1.6,0,0,1,348.878,77.957Zm21.445-20.643-16.256.013a.893.893,0,0,0-.8.477.877.877,0,0,0,.04.914l1.979,3.01a.778.778,0,0,1-.164,1.035L345.168,70.7a.056.056,0,0,0-.019.074l3.682,5.594a.06.06,0,0,0,.081.022l.151-.08,2.9-6.723a2.457,2.457,0,0,1,4.309-.379l1.58,2.4,2.285-1.226a.775.775,0,0,1,.917.136.923.923,0,0,1,.107.128l1.97,2.994a.9.9,0,0,0,1.583-.138l6.438-14.928v0a.881.881,0,0,0-.071-.849A.892.892,0,0,0,370.323,57.314Z" transform="translate(-343.582 -55.759)" fill="#5d5e61"/><g transform="translate(1.738 9.995)"><path d="M347.629,87.083a2.455,2.455,0,0,1-2.253-3.434l6.435-14.924a2.457,2.457,0,0,1,4.309-.379l1.584,2.406,2.29-1.225a.778.778,0,0,1,1.017.257l1.97,2.994a.9.9,0,0,0,1.583-.138l3.008-6.971a.777.777,0,0,1,.343-.375l.388-.211a1.62,1.62,0,0,1,2.123.543L374.1,71.2a1.621,1.621,0,0,1-.351,2.156l-9.4,7.493,1.588,2.414a2.414,2.414,0,0,1,.115,2.5,2.465,2.465,0,0,1-2.166,1.307Zm6.442-18.289a.71.71,0,0,0-.084,0,.887.887,0,0,0-.748.54L346.8,84.267a.9.9,0,0,0,.827,1.261l16.256-.007a.9.9,0,0,0,.8-.485.875.875,0,0,0-.042-.914l-1.979-3.01a.776.776,0,0,1,.164-1.034l9.956-7.938.007,0a.062.062,0,0,0,.013-.078l-3.682-5.585a.068.068,0,0,0-.082-.022l-.149.081-2.9,6.722a2.457,2.457,0,0,1-4.309.379l-1.58-2.4-2.293,1.227a.778.778,0,0,1-1.055-.324L354.822,69.2A.891.891,0,0,0,354.071,68.794Z" transform="translate(-345.17 -64.892)" fill="#5d5e61"/></g></g><g transform="translate(38.307)"><path d="M382.954,71.2a3.64,3.64,0,0,0,3.892,3.961,5.029,5.029,0,0,0,4.03-1.672l2.7,2.629a8.365,8.365,0,0,1-6.76,2.8c-4.2,0-8.229-1.912-8.229-9.117,0-5.8,3.141-9.083,7.751-9.083,4.951,0,7.751,3.552,7.751,8.6V71.2Zm6.35-4.951a3.315,3.315,0,0,0-5.941,0,4.358,4.358,0,0,0-.409,1.912h6.76A4.358,4.358,0,0,0,389.3,66.249Z" transform="translate(-378.583 -54.367)" fill="#5d5e61"/><path d="M404.469,78.713V77.176a5.407,5.407,0,0,1-4.371,1.707,6.152,6.152,0,0,1-4.541-1.571,5.7,5.7,0,0,1-1.469-3.995c0-2.835,1.947-5.157,6.146-5.157h4.132v-.888c0-1.946-.955-2.8-3.312-2.8a3.936,3.936,0,0,0-3.415,1.537l-2.8-2.766c1.741-1.912,3.415-2.527,6.385-2.527,5.019,0,7.58,2.118,7.58,6.283V78.713Zm-.1-7.512h-3.38c-1.776,0-2.63.717-2.63,2.049,0,1.229.854,2.015,2.7,2.015a3.38,3.38,0,0,0,2.629-.854,2.753,2.753,0,0,0,.683-2.253Z" transform="translate(-377.118 -54.367)" fill="#5d5e61"/><path d="M416.643,78.918c-2.8,0-5.292-.308-7.58-2.561l2.9-2.9a6.415,6.415,0,0,0,4.747,1.673c1.537,0,3.141-.512,3.141-1.844,0-.888-.444-1.5-1.878-1.638l-2.869-.274c-3.141-.308-5.121-1.707-5.121-4.985,0-3.721,3.243-5.668,6.863-5.668,2.8,0,5.087.512,6.794,2.083l-2.732,2.766a6.127,6.127,0,0,0-4.132-1.2c-1.775,0-2.526.82-2.526,1.707s.512,1.4,1.843,1.537l2.8.274c3.518.341,5.293,2.186,5.293,5.224C424.189,77.04,420.844,78.918,416.643,78.918Z" transform="translate(-375.704 -54.367)" fill="#5d5e61"/><path d="M431.709,81.564a6.328,6.328,0,0,1-1.332,2.287,5.143,5.143,0,0,1-3.824,1.366h-1.742V81.222h1.025a1.918,1.918,0,0,0,2.218-1.606l.752-2.186-6.078-16.525h4.678L431.094,71.9l3.552-10.994h4.678Z" transform="translate(-374.413 -54.349)" fill="#5d5e61"/><path d="M449.691,79.258V77.243a5.407,5.407,0,0,1-4.781,2.22,5.788,5.788,0,0,1-4.1-1.469c-1.673-1.706-2.049-4.438-2.049-7.136s.375-5.464,2.049-7.137a5.792,5.792,0,0,1,4.1-1.468,5.4,5.4,0,0,1,4.747,2.152V54.946h2.458V79.258Zm-4.234-14.819c-3.687,0-4.233,3.141-4.233,6.419s.546,6.419,4.233,6.419c3.653,0,4.2-3.141,4.2-6.419S449.11,64.439,445.457,64.439Z" transform="translate(-372.899 -54.912)" fill="#5d5e61"/><path d="M455.2,57.682V54.915h2.766v2.767Zm.137,21.579v-16.8H457.8v16.8Z" transform="translate(-371.346 -54.915)" fill="#5d5e61"/><path d="M467.375,78.832c-2.869,0-5.088-.649-6.9-2.424l1.64-1.639a6.945,6.945,0,0,0,5.224,1.947c2.8,0,4.473-.99,4.473-2.97,0-1.5-.82-2.288-2.8-2.459l-2.766-.239c-3.278-.274-5.019-1.707-5.019-4.507,0-3.073,2.561-4.917,6.18-4.917a9.5,9.5,0,0,1,6.044,1.81l-1.6,1.6a7.171,7.171,0,0,0-4.473-1.332c-2.458,0-3.756,1.024-3.756,2.766,0,1.5.923,2.253,3.005,2.459l2.629.239c2.936.274,4.951,1.366,4.951,4.541C474.2,76.954,471.473,78.832,467.375,78.832Z" transform="translate(-370.848 -54.281)" fill="#5d5e61"/><path d="M487.472,77.363a5.788,5.788,0,0,1-4.1,1.469,5.471,5.471,0,0,1-4.746-2.186V86.14H476.17V61.828h2.459v1.981a5.433,5.433,0,0,1,4.746-2.186,5.792,5.792,0,0,1,4.1,1.468c1.673,1.673,2.049,4.439,2.049,7.137S489.146,75.657,487.472,77.363Zm-4.61-13.555c-3.687,0-4.233,3.141-4.233,6.419s.546,6.419,4.233,6.419c3.653,0,4.2-3.141,4.2-6.419S486.516,63.809,482.863,63.809Z" transform="translate(-369.365 -54.281)" fill="#5d5e61"/><path d="M501.567,78.628v-1.6a5.969,5.969,0,0,1-4.85,1.809c-2.321,0-3.584-.409-4.746-1.537a4.694,4.694,0,0,1-1.263-3.415c0-2.97,2.083-4.848,5.838-4.848h5.02v-1.6c0-2.424-1.2-3.688-4.3-3.688-2.118,0-3.21.546-4.234,1.947l-1.673-1.537c1.469-1.947,3.176-2.527,5.942-2.527,4.541,0,6.727,1.981,6.727,5.6v11.4Zm0-7.751h-4.678q-3.791,0-3.79,2.97c0,1.946,1.194,2.869,3.892,2.869a5.058,5.058,0,0,0,3.722-1.127,3.883,3.883,0,0,0,.854-2.9Z" transform="translate(-367.992 -54.281)" fill="#5d5e61"/><path d="M511.947,79.055c-2.869,0-4.3-2.015-4.3-4.507V64.133h-2.117V62.255h2.117V57.1H510.1v5.156h3.585v1.878H510.1V74.479c0,1.537.717,2.459,2.287,2.459h1.3v2.117Z" transform="translate(-366.592 -54.709)" fill="#5d5e61"/><path d="M522.642,78.832c-4.233,0-7.443-2.869-7.443-8.6s3.21-8.6,7.443-8.6a6.65,6.65,0,0,1,5.531,2.493L526.5,65.687a4.61,4.61,0,0,0-3.859-1.878,4.553,4.553,0,0,0-3.893,1.912,7.212,7.212,0,0,0-1.092,4.507,7.212,7.212,0,0,0,1.092,4.507,4.55,4.55,0,0,0,3.893,1.912,4.647,4.647,0,0,0,3.859-1.912l1.672,1.606A6.649,6.649,0,0,1,522.642,78.832Z" transform="translate(-365.679 -54.281)" fill="#5d5e61"/><path d="M540.836,79.258V68.878c0-2.971-1.537-4.439-4.1-4.439s-4.2,1.468-4.2,4.439v10.38H530.08V54.946h2.458V64.3a6.058,6.058,0,0,1,4.713-2.049c3.824,0,6.044,2.424,6.044,6.214v10.79Z" transform="translate(-364.273 -54.912)" fill="#5d5e61"/></g></g></g></svg>