<svg xmlns="http://www.w3.org/2000/svg" width="43.302" height="43.302" viewBox="0 0 43.302 43.302"><path d="M635.571,202.947A21.651,21.651,0,1,0,657.222,224.6,21.676,21.676,0,0,0,635.571,202.947Zm6.006,12.843a.327.327,0,0,1-.327.327h-2.6a1.157,1.157,0,0,0-1.157,1.157V220h3.7a.327.327,0,0,1,.326.355l-.325,3.843a.326.326,0,0,1-.325.3H637.49v12.753a.327.327,0,0,1-.327.327H632.5a.327.327,0,0,1-.327-.327V224.5h-2.33a.326.326,0,0,1-.327-.327v-3.843a.327.327,0,0,1,.327-.327h2.33v-3.7a4.675,4.675,0,0,1,4.675-4.675h4.4a.327.327,0,0,1,.327.327Z" transform="translate(-613.92 -202.947)" fill="#5d5e61"/></svg>