<svg xmlns="http://www.w3.org/2000/svg" width="43.02" height="43.02" viewBox="0 0 43.02 43.02"><g transform="translate(0 0)"><path d="M717.513,246.651a21.51,21.51,0,1,1,21.509-21.509A21.535,21.535,0,0,1,717.513,246.651Zm7.252-30.237a1.592,1.592,0,1,0,1.592,1.592A1.592,1.592,0,0,0,724.766,216.413Zm-7.076,2.041a6.686,6.686,0,1,0,6.686,6.687A6.694,6.694,0,0,0,717.689,218.455Zm0,10.97a4.283,4.283,0,1,1,4.283-4.283A4.288,4.288,0,0,1,717.689,229.424Zm13.491-9.84a8.155,8.155,0,0,0-8.155-8.155H712.262a8.156,8.156,0,0,0-8.155,8.155v10.764a8.156,8.156,0,0,0,8.155,8.155h10.763a8.155,8.155,0,0,0,8.155-8.155Zm-2.554,10.764a5.6,5.6,0,0,1-5.6,5.6H712.262a5.6,5.6,0,0,1-5.6-5.6V219.584a5.6,5.6,0,0,1,5.6-5.6h10.763a5.6,5.6,0,0,1,5.6,5.6Z" transform="translate(-696.003 -203.631)" fill="#5d5e61"/></g></svg>