<svg xmlns="http://www.w3.org/2000/svg" width="43.229" height="43.229" viewBox="0 0 43.229 43.229"><path d="M643.961,292.184v-.048c-.01.016-.024.033-.033.048Z" transform="translate(-620.159 -273.064)" fill="#5d5e61"/><path d="M635.581,268.094A21.614,21.614,0,1,0,657.2,289.708,21.639,21.639,0,0,0,635.581,268.094Zm-5.406,31.33a.361.361,0,0,1-.362.361h-4.165a.361.361,0,0,1-.361-.361V285.443a.361.361,0,0,1,.361-.361h4.165a.361.361,0,0,1,.362.361Zm-2.59-16.212A2.617,2.617,0,1,1,630.2,280.6,2.617,2.617,0,0,1,627.585,283.213ZM647.8,299.424a.36.36,0,0,1-.361.361h-4.166a.361.361,0,0,1-.361-.361v-7.505c0-1.975-.706-3.324-2.476-3.324a2.675,2.675,0,0,0-2.508,1.787,3.351,3.351,0,0,0-.161,1.191v7.85a.361.361,0,0,1-.362.361h-4.165a.36.36,0,0,1-.361-.361c.01-2,.052-11.7.009-13.976a.359.359,0,0,1,.361-.366h4.157a.361.361,0,0,1,.361.361v1.723a4.854,4.854,0,0,1,4.406-2.429c3.216,0,5.627,2.1,5.627,6.617Z" transform="translate(-613.966 -268.094)" fill="#5d5e61"/></svg>