<svg xmlns="http://www.w3.org/2000/svg" width="95.162" height="36.207" viewBox="0 0 95.162 36.207"><g transform="translate(1.384 35.174) rotate(-90)" opacity="0.4"><path d="M16.9,92.77a1.672,1.672,0,0,1-.179-.045A1.434,1.434,0,0,1,15.6,91.293V5.457L2.449,18.608a1.431,1.431,0,0,1-1.029.447A1.431,1.431,0,0,1,.436,16.6L16,.984,17.032,0,18.06.984,33.627,16.6a1.432,1.432,0,1,1-2.013,2.013L18.463,5.457V91.293A1.433,1.433,0,0,1,16.9,92.77Z" transform="translate(0 0)" fill="#fff" stroke="#fff" stroke-width="2"/></g></svg>