<svg xmlns="http://www.w3.org/2000/svg" width="95.162" height="36.207" viewBox="0 0 95.162 36.207"><g transform="translate(-228.998 35.175) rotate(-90)"><path d="M16.9,230.006a1.671,1.671,0,0,0-.179.045,1.434,1.434,0,0,0-1.118,1.431v85.836L2.449,304.168a1.431,1.431,0,0,0-1.029-.447,1.431,1.431,0,0,0-.984,2.46L16,321.792l1.029.984,1.029-.984,15.566-15.611a1.432,1.432,0,1,0-2.013-2.013L18.463,317.319V231.483a1.433,1.433,0,0,0-1.566-1.476Z" transform="translate(0 0)" fill="#fff" stroke="#fff" stroke-width="2"/></g></svg>