<svg xmlns="http://www.w3.org/2000/svg" width="25.266" height="21.716" viewBox="0 0 25.266 21.716"><path d="M0,7V25.191H13.918l.287-1.011H1.011V22.924l7.405-5.857L10.285,18.7a3.625,3.625,0,0,0,2.348.935,3.625,3.625,0,0,0,2.348-.935l1.868-1.628,2.48,1.961.756-.69-2.461-1.946,6.631-5.78V16.78a2.768,2.768,0,0,1,1.011.618V7ZM1.011,8.011H24.255V9.277l-9.937,8.659a2.621,2.621,0,0,1-1.686.687,2.622,2.622,0,0,1-1.686-.687L1.011,9.277Zm0,2.6,6.63,5.78-6.63,5.244Zm22.184,7a2.047,2.047,0,0,0-1.365.556l-.1.05-.05.051-.152.151-.353.354-.1.1-5.912,5.963c-.051.051-.1.151-.152.2l-.859,3.032a.449.449,0,0,0,.353.607.226.226,0,0,0,.253,0l3.032-.808c.1,0,.152-.051.253-.152l6.468-6.468.152-.1a2.074,2.074,0,0,0,0-2.931A1.911,1.911,0,0,0,23.194,17.612Zm0,1.011a1.114,1.114,0,0,1,.758.3A1.024,1.024,0,0,1,24,20.341l-1.466-1.466A1.065,1.065,0,0,1,23.194,18.622Zm-1.415.96L23.295,21.1l-5.508,5.508-1.516-1.466ZM15.765,26.1l1.062,1.061-1.466.4Z" transform="translate(0 -7)" fill="#5d5e61"/></svg>