<svg xmlns="http://www.w3.org/2000/svg" width="70.318" height="70.316" viewBox="0 0 70.318 70.316"><rect width="70.318" height="70.316" transform="translate(0 0)" fill="#5d5e61"/><path d="M24.9,327.968c0-7.344,15.263-13.3,34.09-13.3s34.09,5.956,34.09,13.3-15.262,13.3-34.09,13.3S24.9,335.311,24.9,327.968Z" transform="translate(-23.831 -292.81)" fill="#fff"/><path d="M199.02,419.218l3.538-13.207h5.585v7.768h.037l3.789-7.768h5.673L214.1,419.218h-3.687l2.268-8.472h-.037l-4.5,8.472H205.19v-8.472h-.06l-2.268,8.472Z" transform="translate(-185.457 -377.596)" fill="#5d5e61" fill-rule="evenodd"/><path d="M472.44,569.437l.5-1.877h4.07l-.5,1.877Z" transform="translate(-439.259 -527.554)" fill="#5d5e61" fill-rule="evenodd"/><path d="M460.171,417.074l2.059-7.679h-3.7l.908-3.385h11.468L470,409.4h-3.7l-2.058,7.677Z" transform="translate(-426.347 -377.596)" fill="#5d5e61" fill-rule="evenodd"/><path d="M594.36,419.218,597.9,406.01h4l1.8,7.067h.035l1.893-7.067h3.695l-3.537,13.207h-3.8L600.021,412h-.035l-1.932,7.213Z" transform="translate(-552.431 -377.596)" fill="#5d5e61" fill-rule="evenodd"/></svg>