<svg xmlns="http://www.w3.org/2000/svg" width="35.094" height="35.094" viewBox="0 0 35.094 35.094"><path d="M631.467,202.947a17.547,17.547,0,1,0,17.547,17.547A17.568,17.568,0,0,0,631.467,202.947Zm4.868,10.408a.265.265,0,0,1-.265.265h-2.111a.938.938,0,0,0-.937.938v2.209h3a.265.265,0,0,1,.264.287l-.264,3.114a.265.265,0,0,1-.264.242h-2.738v10.336a.265.265,0,0,1-.265.265H628.98a.265.265,0,0,1-.265-.265V220.411h-1.888a.264.264,0,0,1-.265-.265v-3.114a.265.265,0,0,1,.265-.265h1.888v-3a3.788,3.788,0,0,1,3.789-3.789h3.566a.265.265,0,0,1,.265.265Z" transform="translate(-613.92 -202.947)" fill="#eeeeef"/></svg>