<svg xmlns="http://www.w3.org/2000/svg" width="35.035" height="35.034" viewBox="0 0 35.035 35.034"><path d="M643.954,292.175v-.039c-.008.013-.019.026-.026.039Z" transform="translate(-624.665 -276.679)" fill="#eeeeef"/><path d="M631.484,268.094A17.517,17.517,0,1,0,649,285.611,17.537,17.537,0,0,0,631.484,268.094ZM627.1,293.486a.292.292,0,0,1-.293.293h-3.375a.292.292,0,0,1-.293-.293V282.155a.293.293,0,0,1,.293-.293h3.375a.293.293,0,0,1,.293.293ZM625,280.347a2.121,2.121,0,1,1,2.121-2.121A2.121,2.121,0,0,1,625,280.347Zm16.383,13.139a.292.292,0,0,1-.293.293h-3.377a.292.292,0,0,1-.292-.293V287.4c0-1.6-.572-2.694-2.007-2.694a2.168,2.168,0,0,0-2.032,1.448,2.716,2.716,0,0,0-.13.966v6.362a.293.293,0,0,1-.293.293h-3.375a.292.292,0,0,1-.293-.293c.008-1.62.042-9.48.007-11.327a.291.291,0,0,1,.292-.3h3.369a.293.293,0,0,1,.293.293v1.4a3.934,3.934,0,0,1,3.571-1.969c2.606,0,4.56,1.7,4.56,5.363Z" transform="translate(-613.966 -268.094)" fill="#eeeeef"/></svg>