<svg xmlns="http://www.w3.org/2000/svg" width="34.865" height="34.865" viewBox="0 0 34.865 34.865"><g transform="translate(0 0)"><path d="M713.436,238.5a17.433,17.433,0,1,1,17.432-17.432A17.453,17.453,0,0,1,713.436,238.5Zm5.878-24.506a1.29,1.29,0,1,0,1.29,1.29A1.29,1.29,0,0,0,719.314,213.99Zm-5.735,1.654A5.419,5.419,0,1,0,719,221.064,5.425,5.425,0,0,0,713.579,215.645Zm0,8.89a3.471,3.471,0,1,1,3.471-3.471A3.475,3.475,0,0,1,713.579,224.535Zm10.933-7.975a6.609,6.609,0,0,0-6.609-6.609H709.18a6.61,6.61,0,0,0-6.609,6.609v8.724a6.61,6.61,0,0,0,6.609,6.609H717.9a6.609,6.609,0,0,0,6.609-6.609Zm-2.07,8.724a4.539,4.539,0,0,1-4.54,4.539H709.18a4.539,4.539,0,0,1-4.539-4.539V216.56a4.539,4.539,0,0,1,4.539-4.539H717.9a4.539,4.539,0,0,1,4.54,4.539Z" transform="translate(-696.003 -203.631)" fill="#eeeeef"/></g></svg>