<svg xmlns="http://www.w3.org/2000/svg" width="181.005" height="49.305" viewBox="0 0 181.005 49.305"><path d="M969.758,451.1a2.418,2.418,0,0,1,1.155.3,2.172,2.172,0,0,1,.878.868,2.4,2.4,0,0,1,.314,1.178,2.372,2.372,0,0,1-.31,1.168,2.189,2.189,0,0,1-.868.87,2.368,2.368,0,0,1-2.337,0,2.2,2.2,0,0,1-.87-.87,2.355,2.355,0,0,1,0-2.346,2.164,2.164,0,0,1,.879-.868A2.406,2.406,0,0,1,969.758,451.1Zm0,.389a2,2,0,0,0-.958.253,1.819,1.819,0,0,0-.734.725,1.957,1.957,0,0,0,0,1.955,1.836,1.836,0,0,0,.734.725,1.949,1.949,0,0,0,1.948,0,1.813,1.813,0,0,0,.734-.725,1.976,1.976,0,0,0,.259-.973,2,2,0,0,0-.262-.982,1.82,1.82,0,0,0-.734-.725A2.019,2.019,0,0,0,969.758,451.489Zm-1.03,3.264V452.22h.867a2.075,2.075,0,0,1,.644.072.609.609,0,0,1,.317.244.644.644,0,0,1,.119.367.67.67,0,0,1-.2.483.78.78,0,0,1-.525.231.642.642,0,0,1,.215.134,2.768,2.768,0,0,1,.367.5l.308.494h-.5l-.224-.4a2.018,2.018,0,0,0-.426-.587.521.521,0,0,0-.327-.088h-.239v1.081Zm.408-1.423h.494a.807.807,0,0,0,.485-.1.347.347,0,0,0,.129-.281.333.333,0,0,0-.062-.2.368.368,0,0,0-.173-.132,1.263,1.263,0,0,0-.409-.044h-.463Z" transform="translate(-791.099 -438.309)" fill="#5d5e61"/><ellipse cx="7.049" cy="7.049" rx="7.049" ry="7.049" transform="translate(21.733 0)" fill="#5d5e61"/><ellipse cx="7.049" cy="7.049" rx="7.049" ry="7.049" transform="translate(31.718 31.013)" fill="#5d5e61"/><ellipse cx="7.049" cy="7.049" rx="7.049" ry="7.049" transform="translate(0 24.436)" fill="#5d5e61"/><ellipse cx="4.582" cy="4.582" rx="4.582" ry="4.582" transform="translate(3.407 12.687)" fill="#5d5e61"/><ellipse cx="4.582" cy="4.582" rx="4.582" ry="4.582" transform="translate(36.183 10.809)" fill="#5d5e61"/><ellipse cx="4.582" cy="4.582" rx="4.582" ry="4.582" transform="translate(21.146 39.472)" fill="#5d5e61"/><ellipse cx="3.172" cy="3.172" rx="3.172" ry="3.172" transform="translate(11.747 38.298)" fill="#5d5e61"/><ellipse cx="3.172" cy="3.172" rx="3.172" ry="3.172" transform="translate(40.647 22.556)" fill="#5d5e61"/><ellipse cx="3.172" cy="3.172" rx="3.172" ry="3.172" transform="translate(12.452 6.109)" fill="#5d5e61"/><path d="M382.47,487.668V452.032h3.809v4.5a10.039,10.039,0,0,1,3.58-3.98,9.178,9.178,0,0,1,4.956-1.388,10.236,10.236,0,0,1,8.131,3.536q3.069,3.536,3.068,9.375,0,5.944-3,9.441a10.069,10.069,0,0,1-8.037,3.5,9.265,9.265,0,0,1-5.037-1.349,9.877,9.877,0,0,1-3.5-4.02v16.017Zm3.855-23.6a9.343,9.343,0,0,0,2.174,6.469,7.382,7.382,0,0,0,5.759,2.442,7.041,7.041,0,0,0,5.507-2.227,8.891,8.891,0,0,0,2.007-6.181,10.839,10.839,0,0,0-2.007-6.939,6.752,6.752,0,0,0-5.586-2.515,7.261,7.261,0,0,0-5.753,2.386,9.611,9.611,0,0,0-2.095,6.572Z" transform="translate(-313.543 -438.363)" fill="#5d5e61"/><path d="M546.568,452.067v23.962h-3.886v-4.347a10.4,10.4,0,0,1-3.593,3.995,9.012,9.012,0,0,1-4.89,1.379,10.226,10.226,0,0,1-8.118-3.548,13.822,13.822,0,0,1-3.08-9.394q0-5.918,2.992-9.416a9.974,9.974,0,0,1,8-3.488,9.435,9.435,0,0,1,5.1,1.349,9.626,9.626,0,0,1,3.488,4.018v-4.51Zm-3.886,12.2a9.584,9.584,0,0,0-2.161-6.535,7.863,7.863,0,0,0-11.263-.2,9.259,9.259,0,0,0-2.019,6.365q0,4.347,2.032,6.7a7.2,7.2,0,0,0,5.766,2.357,7.114,7.114,0,0,0,5.612-2.291A9.323,9.323,0,0,0,542.681,464.271Z" transform="translate(-428.275 -438.398)" fill="#5d5e61"/><path d="M695.961,452.043v23.544a21.029,21.029,0,0,1-.51,5.553,7.894,7.894,0,0,1-1.687,2.957,10.11,10.11,0,0,1-4,2.7,15.468,15.468,0,0,1-5.432.883q-5.324,0-8.3-2.487a9.04,9.04,0,0,1-3.106-7.046h4.5v.314a5.048,5.048,0,0,0,1.816,4.165,7.994,7.994,0,0,0,5.14,1.469,9.6,9.6,0,0,0,4.1-.8,5.692,5.692,0,0,0,2.594-2.37,6.327,6.327,0,0,0,.765-2.058,18.631,18.631,0,0,0,.23-3.378V471.45a10.025,10.025,0,0,1-3.552,3.941,9.126,9.126,0,0,1-4.935,1.375,10.273,10.273,0,0,1-8.118-3.51q-3.078-3.51-3.08-9.324,0-5.874,2.99-9.309a10.1,10.1,0,0,1,8-3.444,9.581,9.581,0,0,1,5.114,1.349,9.281,9.281,0,0,1,3.477,3.967v-4.454Zm-3.886,12.046a9.518,9.518,0,0,0-2.146-6.495,7.893,7.893,0,0,0-11.275-.184,9.271,9.271,0,0,0-2.019,6.365q0,4.349,2.032,6.7a7.211,7.211,0,0,0,5.768,2.357,7.075,7.075,0,0,0,5.612-2.317A9.413,9.413,0,0,0,692.075,464.089Z" transform="translate(-550.241 -438.374)" fill="#5d5e61"/><path d="M845.931,452.067v23.962h-3.886v-4.347a10.35,10.35,0,0,1-3.6,3.995,9.012,9.012,0,0,1-4.89,1.379,10.223,10.223,0,0,1-8.118-3.548,13.834,13.834,0,0,1-3.08-9.394q0-5.918,2.99-9.416a9.97,9.97,0,0,1,8-3.488,9.445,9.445,0,0,1,5.1,1.349,9.607,9.607,0,0,1,3.488,4.018v-4.51Zm-3.886,12.2a9.589,9.589,0,0,0-2.159-6.535,7.863,7.863,0,0,0-11.262-.2A9.27,9.27,0,0,0,826.6,463.9q0,4.347,2.032,6.7a7.21,7.21,0,0,0,5.773,2.357,7.114,7.114,0,0,0,5.612-2.291A9.289,9.289,0,0,0,842.045,464.271Z" transform="translate(-672.68 -438.398)" fill="#5d5e61"/></svg>