<svg xmlns="http://www.w3.org/2000/svg" width="21.585" height="21.588" viewBox="0 0 21.585 21.588"><path d="M7.334,2.983a1.816,1.816,0,0,0-1.184.351A17.006,17.006,0,0,0,4.386,4.816a8.718,8.718,0,0,0-.923,1.009A1.675,1.675,0,0,0,3,6.92a8.332,8.332,0,0,0,.91,3.415A28.063,28.063,0,0,0,9.665,17.9a28.039,28.039,0,0,0,7.563,5.758,8.326,8.326,0,0,0,3.415.91,1.674,1.674,0,0,0,1.092-.464,8.893,8.893,0,0,0,1.009-.923,17.181,17.181,0,0,0,1.481-1.764,1.485,1.485,0,0,0-.151-2.107c-.379-.266-3.867-2.588-4.392-2.91a1.681,1.681,0,0,0-1.693.111c-.431.228-1.6.9-1.931,1.088a20.7,20.7,0,0,1-3.251-2.841,20.573,20.573,0,0,1-2.841-3.251c.192-.333.858-1.494,1.088-1.933a1.658,1.658,0,0,0,.105-1.7c-.144-.228-.8-1.222-1.456-2.22s-1.287-1.944-1.45-2.17v0A1.238,1.238,0,0,0,7.334,2.983Zm10.392,0a.488.488,0,0,0-.345.13L13.732,6.421l3.649,3.3a.489.489,0,0,0,.82-.253A.486.486,0,0,0,18.04,9l-2.306-2.09h3.938a2.844,2.844,0,0,1,2.942,2.942v4.413H23.6V9.854a3.88,3.88,0,0,0-3.923-3.923H15.734L18.04,3.843a.494.494,0,0,0,.136-.538A.489.489,0,0,0,17.726,2.985Zm-10.482,1a.541.541,0,0,1,.215.071c.079.109.766,1.14,1.425,2.136S10.215,8.213,10.332,8.4a1.124,1.124,0,0,1-.146.716v0c-.216.412-1.226,2.176-1.226,2.176l-.14.247.144.245a22.084,22.084,0,0,0,3.147,3.664A22.23,22.23,0,0,0,15.778,18.6l.245.144.247-.14s1.76-1.008,2.176-1.226a1.115,1.115,0,0,1,.726-.142c.339.209,4.107,2.712,4.339,2.875a.646.646,0,0,1-.086.741h0A16.955,16.955,0,0,1,22.038,22.5a8.1,8.1,0,0,1-.893.82,3.279,3.279,0,0,1-.469.266,6.96,6.96,0,0,1-3.03-.818A27.046,27.046,0,0,1,10.359,17.2,27.093,27.093,0,0,1,4.8,9.915,6.974,6.974,0,0,1,3.98,6.887a3.214,3.214,0,0,1,.266-.471,8.069,8.069,0,0,1,.818-.895A17.194,17.194,0,0,1,6.712,4.136v0A.756.756,0,0,1,7.244,3.985Z" transform="translate(-2.999 -2.978)" fill="#5d5e61"/></svg>