<svg xmlns="http://www.w3.org/2000/svg" width="90.881" height="90.881" viewBox="0 0 90.881 90.881">
  <g id="Group_52" data-name="Group 52" transform="translate(-286.106 -1840.107)">
    <circle id="Ellipse_8" data-name="Ellipse 8" cx="45.441" cy="45.441" r="45.441" transform="translate(286.106 1840.107)" fill="#12a2d9"/>
    <g id="Group_51" data-name="Group 51" transform="translate(300.336 1849.504)">
      <g id="Group_49" data-name="Group 49" transform="translate(0 0)">
        <g id="Group_37" data-name="Group 37" transform="translate(1.32)" style="mix-blend-mode: multiply;isolation: isolate">
          <path id="Path_154" data-name="Path 154" d="M199.508,39.052c-.068-.082-.132-.164-.207-.24a30.921,30.921,0,0,0-44.93,1.272,3.7,3.7,0,0,0-.665,3.844,28.9,28.9,0,0,0-5.331,16.746,1.83,1.83,0,0,0,.236.889,3.707,3.707,0,0,0-2.365,3.452V80.7a3.691,3.691,0,0,0,1.389,2.874v4.248a9.722,9.722,0,0,0,3.171,7.012c.218.255,11.037,11.084,15.247,15.27A45.417,45.417,0,0,0,221.3,60.838C214.668,54.2,199.686,39.218,199.508,39.052Z" transform="translate(-146.245 -29.755)" fill="#b3b3b3"/>
        </g>
        <g id="Group_38" data-name="Group 38" transform="translate(3.449 1.856)">
          <path id="Path_155" data-name="Path 155" d="M204.393,62.311a1.855,1.855,0,0,1-1.855-1.856,25.352,25.352,0,1,0-50.7,0,1.855,1.855,0,1,1-3.711,0,29.063,29.063,0,0,1,58.126,0A1.856,1.856,0,0,1,204.393,62.311Z" transform="translate(-148.123 -31.392)" fill="#f3701e"/>
        </g>
        <g id="Group_39" data-name="Group 39" transform="translate(62.386 39.168)">
          <path id="Path_156" data-name="Path 156" d="M202.746,68.235c0,2.172-.59,3.933-1.319,3.933s-1.319-1.761-1.319-3.933.59-3.932,1.319-3.932S202.746,66.064,202.746,68.235Z" transform="translate(-200.109 -64.303)" fill="#f3701e"/>
        </g>
        <g id="Group_40" data-name="Group 40" transform="translate(0 39.168)">
          <path id="Path_157" data-name="Path 157" d="M147.719,68.235c0,2.172-.591,3.933-1.319,3.933s-1.32-1.761-1.32-3.933.591-3.932,1.32-3.932S147.719,66.064,147.719,68.235Z" transform="translate(-145.081 -64.303)" fill="#f3701e"/>
        </g>
        <g id="Group_41" data-name="Group 41" transform="translate(56.277 31.546)">
          <path id="Path_158" data-name="Path 158" d="M194.72,76.976a3.713,3.713,0,0,0,3.713,3.713h0a3.714,3.714,0,0,0,3.715-3.713V61.294a3.715,3.715,0,0,0-3.715-3.714h0a3.714,3.714,0,0,0-3.713,3.714Z" transform="translate(-194.72 -57.58)" fill="#fff"/>
        </g>
        <g id="Group_42" data-name="Group 42" transform="translate(49.145 28.156)">
          <path id="Path_159" data-name="Path 159" d="M188.429,79.675a4.8,4.8,0,0,0,4.8,4.8h0a4.8,4.8,0,0,0,4.8-4.8V59.394a4.8,4.8,0,0,0-4.8-4.8h0a4.8,4.8,0,0,0-4.8,4.8Z" transform="translate(-188.429 -54.59)" fill="#424244"/>
        </g>
        <g id="Group_46" data-name="Group 46" transform="translate(2.708 51.589)">
          <g id="Group_43" data-name="Group 43">
            <path id="Path_160" data-name="Path 160" d="M174.185,90.692H156.448c-6.989,0-8.929-5.86-8.978-8.959V76.5a1.237,1.237,0,1,1,2.474,0v5.219c.015.644.325,6.5,6.5,6.5h17.737a1.237,1.237,0,1,1,0,2.474Z" transform="translate(-147.47 -75.259)" fill="#f3701e"/>
          </g>
          <g id="Group_45" data-name="Group 45" transform="translate(23.879 11.499)">
            <g id="Group_44" data-name="Group 44">
              <circle id="Ellipse_9" data-name="Ellipse 9" cx="2.698" cy="2.698" r="2.698" fill="#f3701e"/>
            </g>
          </g>
        </g>
        <g id="Group_47" data-name="Group 47" transform="translate(1.32 31.546)">
          <path id="Path_161" data-name="Path 161" d="M153.672,76.976a3.713,3.713,0,0,1-3.714,3.713h0a3.713,3.713,0,0,1-3.713-3.713V61.294a3.714,3.714,0,0,1,3.713-3.714h0a3.714,3.714,0,0,1,3.714,3.714Z" transform="translate(-146.245 -57.58)" fill="#fff"/>
        </g>
        <g id="Group_48" data-name="Group 48" transform="translate(6.272 28.156)">
          <path id="Path_162" data-name="Path 162" d="M160.22,79.675a4.8,4.8,0,0,1-4.8,4.8h0a4.8,4.8,0,0,1-4.8-4.8V59.394a4.805,4.805,0,0,1,4.8-4.8h0a4.8,4.8,0,0,1,4.8,4.8Z" transform="translate(-150.613 -54.59)" fill="#424244"/>
        </g>
      </g>
      <g id="Group_50" data-name="Group 50" transform="translate(8.501 0)">
        <path id="Path_163" data-name="Path 163" d="M156.29,46.266a3.711,3.711,0,0,1-2.766-6.183,30.921,30.921,0,0,1,44.93-1.272A3.712,3.712,0,1,1,193.2,44.06a23.5,23.5,0,0,0-34.145.968A3.7,3.7,0,0,1,156.29,46.266Z" transform="translate(-152.58 -29.755)" fill="#424244"/>
      </g>
    </g>
  </g>
</svg>
