<svg xmlns="http://www.w3.org/2000/svg" width="1921.003" height="2406.586" viewBox="0 0 1921.003 2406.586"><path d="M5009,9671.792c-38.223-13.407-77.151-26.181-115.7-37.965-38.7-11.83-78.094-22.99-117.091-33.172-39.124-10.215-78.965-19.738-118.417-28.3-39.6-8.591-79.869-16.442-119.68-23.334-40.011-6.93-80.681-13.086-120.882-18.3-40.4-5.238-81.457-9.67-122.021-13.171-40.777-3.521-82.192-6.2-123.1-7.964-41.13-1.773-82.886-2.672-124.11-2.672-41.195,0-82.9.9-123.972,2.667-40.862,1.761-82.233,4.435-122.964,7.947-40.553,3.5-81.564,7.92-121.892,13.144-40.152,5.2-80.78,11.342-120.757,18.256-39.776,6.88-80,14.715-119.56,23.288-39.386,8.534-79.188,18.034-118.3,28.235-38.961,10.162-78.317,21.3-116.974,33.1-38.5,11.753-77.385,24.5-115.585,37.883V7265.556c38.175,13.375,77.063,26.121,115.585,37.883,38.668,11.806,78.024,22.943,116.974,33.1,39.115,10.2,78.916,19.7,118.3,28.235,39.544,8.57,79.77,16.406,119.56,23.289,39.977,6.914,80.606,13.057,120.757,18.256,40.342,5.226,81.353,9.647,121.892,13.144,40.735,3.512,82.106,6.186,122.964,7.946,41.063,1.771,82.773,2.668,123.972,2.668,41.233,0,82.989-.9,124.11-2.673,40.92-1.765,82.335-4.444,123.1-7.962,40.571-3.5,81.625-7.933,122.021-13.17,40.212-5.214,80.882-11.369,120.882-18.3,39.832-6.9,80.1-14.749,119.68-23.336,39.421-8.553,79.262-18.073,118.417-28.3,39-10.182,78.393-21.342,117.091-33.171,38.545-11.782,77.474-24.556,115.7-37.965V9671.792Z" transform="translate(-3087.999 -7265.206)" fill="#12a2d9"/></svg>