<svg xmlns="http://www.w3.org/2000/svg" width="18.086" height="11.804" viewBox="0 0 18.086 11.804"><g transform="translate(0.25 11.543) rotate(-90)"><path d="M5.584,0c-.02,0-.041.008-.059.013a.431.431,0,0,0-.37.416V15.923L.809,12.1a.505.505,0,0,0-.34-.13.477.477,0,0,0-.436.262.382.382,0,0,0,.111.453l5.144,4.535.34.286.34-.286,5.144-4.535a.391.391,0,0,0,.164-.417.45.45,0,0,0-.355-.312.513.513,0,0,0-.475.145L6.1,15.923V.431A.39.39,0,0,0,5.953.114.514.514,0,0,0,5.584,0Z" transform="translate(0 0)" fill="#5d5e61" stroke="#5d5e61" stroke-width="0.5"/></g></svg>