<svg xmlns="http://www.w3.org/2000/svg" width="415.638" height="381.28" viewBox="0 0 415.638 381.28"><g transform="translate(141 -296.535)" opacity="0.5"><path d="M331.968,39.973c-14.1-16.51-36.224-19.892-56.37-18.559C212.333,25.552,155.23,65.668,105.82,111.056c-17.886,16.435-35.494,34.139-47.1,56.77C35.086,213.885,42.1,277.7,74.958,315.64c11.18,12.93,24.733,22.811,38.645,31.583,24.741,15.6,51.434,28.122,79.513,31.687,20.022,2.541,40.291.472,60.2-3.073,55.618-9.906,110.21-31.826,155.964-69.307,20.067-16.42,38.982-36.879,47.255-63.479s2.993-60.306-17.515-76.045c-8.475-6.514-18.608-9.448-28.527-12.218-14.593-4.063-29.44-8.071-42.619-16.331-13.609-8.538-29.725-25.043-27.03-43.93C343.732,74.251,346.06,56.454,331.968,39.973Z" transform="translate(-185.761 275.382)" fill="#12a2d9" opacity="0.1"/><ellipse cx="25.808" cy="22.367" rx="25.808" ry="22.367" transform="translate(-141 633.081)" fill="#12a2d9" opacity="0.1"/><ellipse cx="11.808" cy="10.451" rx="11.808" ry="10.451" transform="translate(218.85 353.661)" fill="#12a2d9" opacity="0.1"/><ellipse cx="27.894" cy="24.75" rx="27.894" ry="24.75" transform="translate(218.85 407.281)" fill="#eeeeef" opacity="0.476"/></g></svg>