<svg xmlns="http://www.w3.org/2000/svg" width="43.302" height="43.302" viewBox="0 0 43.302 43.302"><path d="M554.035,202.947A21.651,21.651,0,1,0,575.686,224.6,21.676,21.676,0,0,0,554.035,202.947Zm12.538,13.772a.609.609,0,0,1-.124.4,10.014,10.014,0,0,1-2.009,2.1c-.115.086-.308.176-.308.339,0,4.17-1.065,8.336-4.105,11.356a15.279,15.279,0,0,1-14.833,3.468,14.182,14.182,0,0,1-2.869-1.148c-.3-.165-.6-.336-.893-.53-.075-.06-.13-.115-.067-.154s.111-.034.342,0A10.123,10.123,0,0,0,546,232c.75-.263,2.361-.789,2.825-1.5.011-.017.022-.017.033-.033-.188-.044-.375-.044-.563-.077a5.539,5.539,0,0,1-4.137-3.464c-.055-.138,0-.21.144-.182a5.943,5.943,0,0,0,1.969-.061,3.09,3.09,0,0,1-.667-.2,5.336,5.336,0,0,1-3.288-4.253,3.216,3.216,0,0,1-.033-.6c.011-.137.072-.182.194-.1a5.285,5.285,0,0,0,2.008.562c-.226-.176-.435-.369-.639-.562a5.275,5.275,0,0,1-.9-6.234c.1-.149.166-.149.287-.011a16.169,16.169,0,0,0,10.4,5.3c.11.017.121,0,.1-.121a5.588,5.588,0,0,1,.055-2.174,5.3,5.3,0,0,1,1.028-2.059,5.509,5.509,0,0,1,1.722-1.407,5.377,5.377,0,0,1,2.134-.6,5.109,5.109,0,0,1,2.25.363,5.36,5.36,0,0,1,1.467.9,2.457,2.457,0,0,1,.265.271.2.2,0,0,0,.209.056,13.007,13.007,0,0,0,3.028-1.159.143.143,0,0,1,.135-.011c.044.033.028.089.006.132a4.693,4.693,0,0,1-.849,1.546c-.242.3-.847,1.044-1.258,1.113a10.352,10.352,0,0,0,2.549-.728c.1-.046.094-.067.094,0Z" transform="translate(-532.384 -202.947)" fill="#5d5e61"/></svg>